<?xml version="1.0" standalone="no"?>
<!DOCTYPE svg PUBLIC "-//W3C//DTD SVG 1.1//EN" "http://www.w3.org/Graphics/SVG/1.1/DTD/svg11.dtd" >
<svg xmlns="http://www.w3.org/2000/svg">
<metadata></metadata>
<defs>
<font id="halo_outlineregular" horiz-adv-x="1024" >
<font-face units-per-em="2048" ascent="1638" descent="-410" />
<missing-glyph horiz-adv-x="500" />
<glyph horiz-adv-x="2048" />
<glyph horiz-adv-x="2048" />
<glyph unicode="&#xd;" />
<glyph horiz-adv-x="1423" d="M1319 1120l-1030 -1169l69 -60l541 613l-51 35l493 561l-22 20v0zM1317 1165l65 -63l-487 -557l49 -35l-584 -662l-114 101l1071 1216v0z" />
<glyph unicode=" " />
<glyph unicode="!" horiz-adv-x="610" d="M508 1047h-348v-457h-68v-279h240v602v7v6v8l2 6l2 6l2 6l2 6l2 5l2 6l4 4l2 6l4 4l2 6l4 4l5 4l4 4l4 5l4 2l4 4l4 4l4 2l4 4l4 2l6 2l5 2l4 2l6 2h4l4 2h6l4 2h4h68v11zM346 121l-2 2l-2 2l-4 2l-2 4l-4 2l-2 2l-4 2l-4 2l-5 2l-4 2l-4 2l-4 2l-6 3l-4 2l-6 2h-4l-6 2 l-5 2h-6l-6 2h-6h-6l-6 2h-6h-7h-6h-8h-6h-8l-6 -2h-9l-6 -2l-6 -2h-6l-6 -2l-6 -2l-6 -2l-7 -3l-4 -2l-6 -2l-4 -2l-4 -4l-6 -2l-4 -2l-2 -4l-4 -2l-5 -2l-2 -4l-2 -2l-2 -2l-2 -4l-2 -2v-2l-2 -3v-4v-2v-2l-2 -2l2 -2v-2v-2v-2l2 -4v-2l2 -2l2 -4l2 -2l2 -2l2 -4l5 -2 l4 -3l4 -4l2 -2l6 -2l4 -4l4 -2l6 -2l4 -2l7 -2l6 -2l6 -2l6 -2l6 -2h6l6 -2h9l6 -2h8h6h8h6h7h6l6 2h6h6l6 2h6l7 2l4 2l6 2h6l4 2l4 2l6 2l4 2l4 2l5 2l4 2l4 4l2 2l4 2l2 3l2 2l4 4l2 2v2l2 2l2 2l2 2v2v25l-2 2v2l-2 4l-2 2zM537 1077v-71h-95q-23 0 -52.5 -26 t-29.5 -67v-632h-297v340h66v456h408zM383 119h57v-41h-55q-12 -35 -56 -56.5t-104 -21.5q-68 0 -115 27.5t-47 68.5t47.5 69t114.5 28q59 0 102.5 -21.5t55.5 -52.5z" />
<glyph unicode="&#x22;" horiz-adv-x="550" d="M92 1044v-249h37v75v2v5v4v2l2 4v4l2 2v4l2 2v2l2 4l2 2l2 4l2 2l2 2l2 5l3 2l2 2l2 2l2 2l4 2l2 2l2 2h4l4 2l2 2h4l2 2h4h4h5h2h30v104h-133zM326 1044v-249h34l2 75v2v5v4v2v4l3 4v2l2 4v2l2 2l2 4l2 2l2 4v2l2 2l2 5l4 2l2 2l2 2l2 2l2 2l4 2l2 2h4l2 2l5 2h2l4 2h4 h4h2h4h29v104h-131zM63 1075h191v-166h-59q-14 0 -24.5 -11t-10.5 -28v-104h-97v309zM295 1075h192v-166h-59q-16 0 -26.5 -11t-10.5 -28v-104h-96v309z" />
<glyph unicode="#" horiz-adv-x="1531" d="M641 635h381l-121 -227h-381zM1219 358l2 2v5l2 4l2 4l2 4l2 2l4 4l2 4l2 2l4 4l4 2l2 2l4 2l4 2l5 2l4 3h4v2h-291l121 227h325v31h-182v24h-113l144 281h-2l-4 2l-4 2l-5 2l-2 2l-4 2l-2 4l-4 4l-2 4l-2 4l-2 4l-2 5v4l-2 4v4v4l2 4v4v4l2 4v4v2h-43l-184 -354h-344 l180 354h-41l-64 -129h-53l-127 -225h-471v-4h234h4h4h4l4 -2h4l4 -2l4 -2h2l4 -2l5 -2l2 -2l4 -2l2 -4l4 -2l2 -2l2 -5l2 -2l2 -4l2 -2l2 -4l2 -2v-4l2 -4v-2h142l-123 -227h-320v-50h350l-116 -239h-62l-43 -88h121l164 327h350l-174 -327h117l166 327h254zM659 606 l-88 -168h312l88 168h-312zM547 721l125 225h53l61 129h111l-178 -354h274l185 354h110l-16 -31q-10 -29 -2 -38t30 -9h21l-143 -276h94v-25h182v-92l-338 2l-90 -168h432v-57h-158q-55 0 -55 -53h-262l-166 -328h-186l174 328h-281l-164 -328h-186l72 150h61l86 178h-330 v110h330l90 168h-114q-2 23 -12.5 36t-30.5 13h-263v66h484z" />
<glyph unicode="$" horiz-adv-x="1531" d="M641 137h2h2h2h2h2h2h2h2h2h3h2h2h2h2h2h4h2h2h2h2h2h2h2h2h2h2h2h2h2h3h2h2h2h2h2h2h2h2h2h4h2h2h2l33 2v-61h12v61l56 4l24 2l27 2l24 5l25 2l24 4l23 4l23 6l22 4l23 4l20 6l21 6l20 5l18 6l19 8l18 6l17 6l14 8l16 6l13 9l14 8l12 6l11 8l10 8l10 9l6 8l8 6l7 8l4 8 l4 6l2 9l2 4v30l-2 5l-2 8l-4 6l-7 8l-4 8l-8 6l-8 9l-8 8l-10 8l-13 8l-12 6l-12 9l-15 6l-14 8l-16 6l-17 8l-18 6l-17 6l-20 7l-18 6l-21 6l-22 4l-21 6l-22 4l-23 4l-25 4l-22 5l-25 4l-26 2l-25 2l-27 4l-40 2l-29 2h-2h-2h-6h-2h-2h-3h-2h-2h-2h-2h-2h-4h-2h-4h-2h-2 h-2h-2h-4h-2h-2h-2h-2h-3h-2h-2h-4h-2h-2h-2h-2h-2h-2h-2l-2 2h-2h-2h-2h-2h-2h-2h-2h-2h-5h-2l-2 2h-2h-2h-2h-2h-2h-2h-4l-2 2h-2h-2l-29 4v346l29 4l4 2h4h4l4 2h4h4h4l5 3h4h4l4 2h4h4h4l4 2h4h4h7l4 2h4h4h4h4l4 2h4h6h4h5h4l4 2h20h6l11 2h14h2h2h2h2h2h2h2h2h2h2h2h3 h2h2h2h2h2l-2 10h-2h-2h-2h-2h-3h-2h-2h-2h-2h-2h-2v-2h-2h-2h-2h-2h-2h-31v106h-12v-106l-33 -2h-2h-4h-4h-2h-4l-2 -2h-4h-2h-4h-5h-2h-4h-2h-4l-2 -2h-4h-2h-4h-2h-4l-4 -2h-2h-2h-5h-4h-2l-4 -2h-2h-4h-2l-37 -4v120h-12v-122l-43 -9l-19 -4l-18 -2l-18 -4l-17 -4 l-16 -4l-17 -4l-16 -6l-14 -4l-15 -4l-14 -7l-14 -4l-13 -6l-14 -6l-12 -4l-11 -6l-12 -6l-10 -7l-10 -6l-8 -6l-9 -6l-8 -6l-8 -6l-6 -6l-6 -4l-6 -7l-5 -6l-4 -6l-4 -6l-2 -4l-2 -6l-6 -17l8 -30l2 -13l4 -10l6 -10l5 -10l6 -11l8 -8l6 -8l8 -8l8 -8l11 -9l8 -6l12 -6 l10 -6l11 -6l12 -4l12 -6l12 -5l15 -4l12 -4l14 -4l15 -4l14 -2l14 -2l15 -4l14 -2l14 -2h15l14 -2l14 -2h15l43 -2v-400l-53 6l-19 3h-8v-3l2 -2h4h2h2h4h2h2h4l3 -2h2h4h2h2h4h2h2l4 -2h2l31 -2v-22h12v22l35 -2h2h2zM664 539h2h2h2h2h2h2h2h2h2h2h2h2h2h2h2h2h2h2l5 -2h2 h2h2h2h2h2h2h2h2h2h2h2h2h2h2l31 -2v-394l-31 -2h-2h-2h-2h-2h-2h-2h-2h-2h-2h-2h-2h-2h-2h-2h-2h-3h-2h-2h-2h-2h-2h-2h-2h-2h-2h-2h-2h-2h-2h-2h-2h-2h-2h-2h-2h-2h-3h-2h-2h-2h-2h-2h-2h-2h-2h-2h-2h-2h-2h-2l-31 2v398h33h2h2h2h2h2h2h2h2h2h2h2h2h3h2zM590 563l-47 10 l-8 2l-9 3l-8 2l-10 4l-8 2l-8 2l-11 4l-8 2l-8 4l-8 4l-8 4l-9 2l-8 4l-8 6l-8 5l-8 4l-7 4l-8 6l-6 4l-6 6l-6 6l-6 6l-7 7l-4 8l-4 6l-4 8l-4 8l-2 11l-2 8l-2 8v10v8v7l2 8l2 6l4 8l2 6l4 6l4 6l4 7l7 6l4 6l6 6l6 4l6 6l6 4l6 7l9 4l8 4l6 4l8 4l8 6l9 4l10 4l8 2l10 4 l10 4l9 5l10 2l10 4l10 4l13 2l49 14v-342zM778 535l51 -7l21 -2l18 -2l19 -2l18 -4l17 -4l18 -2l16 -4l17 -4l16 -4l15 -4l16 -4l14 -7l15 -4l12 -6l12 -6l14 -4l11 -6l12 -6l10 -7l10 -8l11 -6l8 -8l8 -6l8 -8l6 -11l7 -8l6 -8l4 -10l4 -11v-12l2 -10l-2 -10v-13l-4 -10 l-4 -10l-6 -8l-7 -10l-6 -9l-8 -8l-8 -8l-8 -6l-11 -8l-10 -7l-10 -6l-10 -8l-13 -6l-12 -6l-14 -4l-12 -6l-15 -4l-14 -7l-14 -4l-17 -4l-16 -4l-17 -6l-16 -2l-18 -4l-17 -4l-18 -2l-19 -4l-18 -2l-21 -3l-51 -6v394zM690 106h-57v-22l-31 2v-86h-43v111q-23 2 -44 4 t-44 6l6 24q-129 20 -218 62.5t-116 95.5h-2h-78l33 53h107q0 -4 -1 -8t-1 -8q0 -29 27.5 -55.5t74.5 -48t112.5 -38t143.5 -22.5v334q-57 4 -118.5 14.5t-114 33t-90 60t-48.5 99.5h-125v41h125q16 63 117 113.5t254 76.5v127h74v-117q25 4 50.5 5.5t51.5 3.5v108h74v-106 q8 2 16 2h17h24l6 -27q86 -2 162 -13t142 -30l-46 -33q-59 14 -130.5 22.5t-149.5 8.5h-41v-321q106 -6 200.5 -26t165 -47.5t115.5 -63t56 -74.5h124v-43l-124 2q-10 -41 -54.5 -77t-116 -64.5t-166 -48t-200.5 -25.5v-64h-74v59h-45zM633 508v-338h49h53v336 q-14 0 -27.5 1t-27.5 1h-47zM633 881v-293q37 -6 57 -6h37q20 0 37 -2v317q-35 -4 -67.5 -7t-63.5 -9zM559 600v264q-86 -23 -137 -56.5t-51 -74.5q0 -27 16 -48t44 -36.5t60.5 -28t67.5 -20.5zM809 500v-324q76 6 140.5 22.5t112.5 38t74.5 48t26.5 55.5t-26.5 54.5 t-74.5 47t-112.5 36t-140.5 22.5z" />
<glyph unicode="%" horiz-adv-x="2068" d="M1710 377l12 -8l11 -7l10 -8l10 -8l10 -8l9 -8l8 -8l8 -11l6 -10l4 -10l6 -10l4 -11l2 -12l2 -12v-10v-13l-2 -12l-2 -12l-4 -11l-6 -10l-4 -10l-6 -10l-8 -11l-8 -8l-9 -8l-10 -8l-10 -8l-10 -9l-11 -6l-12 -8l-12 -6l-12 -6l-15 -6l-12 -4l-14 -7l-15 -4l-16 -4l-15 -4 l-16 -4l-16 -4l-17 -2l-16 -2l-18 -2l-17 -2l-18 -2h-17h-18h-19h-18l-16 2l-19 2l-16 2l-19 2h-6v-2h2h4l4 -2h5h4l6 -2h4h4h4h6l4 -2h4h5h6h4h4l6 -2h4h4h6h4h5h6h4h4h6h23h20l23 2l20 2l21 2l20 4l20 2l21 4l18 4l19 6l18 4l19 7l16 6l16 6l15 6l16 8l12 8l15 7l12 8 l12 8l11 8l10 8l10 9l8 10l8 8l7 8l4 10l6 9l4 10l2 8l2 8l2 19l-2 18l-2 8l-4 10l-4 9l-4 8l-6 10l-7 8l-6 8l-10 9l-8 10l-10 8l-11 8l-12 8l-12 9l-15 6l-14 8l-14 6l-17 8l-16 7l-16 6l-17 4l-18 6l-19 4l-20 4l-19 4l-20 4l-20 2l-21 2l-20 2l-23 2l-20 3h-15l-2 -13h6 h17l18 -2l17 -2l18 -2l16 -2l17 -2l16 -4l16 -4l15 -4l16 -4l15 -4l14 -7l12 -4l15 -6l12 -6zM1262 1034l-521 -956l68 -37l268 496l-55 28l250 463zM365 692l-15 6l-10 9l-12 6l-11 8l-10 8l-8 8l-10 8l-6 9l-9 10l-6 10l-6 10l-6 11l-2 10l-4 12l-2 12v11v12l2 12l4 13 l2 10l6 10l6 10l6 11l9 10l6 8l10 8l8 8l10 9l11 8l12 6l10 8l15 6l12 6l12 6l14 5l15 6l14 4l14 4l17 4l14 4l17 4l16 2l18 2l17 2l16 2l19 2h18h18h19h16l19 -2l16 -2l19 -2l16 -2h6v2h-4l-4 2h-6h-4h-4l-5 2h-6h-4h-4l-6 2h-4h-4h-4h-6h-5l-4 2h-4h-6h-4h-4h-6h-4h-7h-4 h-4h-22h-23l-20 -2l-23 -2l-20 -2l-21 -4l-20 -2l-19 -4l-20 -4l-19 -6l-18 -4l-16 -6l-17 -7l-16 -6l-17 -6l-14 -8l-14 -8l-15 -6l-12 -9l-12 -8l-10 -8l-11 -8l-8 -10l-10 -9l-6 -8l-6 -8l-6 -10l-5 -8l-4 -11l-4 -8l-2 -8l-2 -18l2 -19l4 -8l2 -10l4 -8l5 -9l6 -10l6 -8 l8 -8l8 -8l10 -11l9 -8l12 -8l12 -8l13 -8l12 -7l14 -8l17 -6l14 -8l16 -6l17 -6l18 -5l19 -6l18 -4l18 -4l21 -4l18 -4l21 -2l20 -2l23 -2l20 -2h23l12 -2l2 12h-4h-18l-19 2l-16 2l-17 2l-18 2l-16 2l-17 4l-14 4l-17 5l-14 4l-14 4l-15 6l-14 4l-12 6zM1452 0 q-88 0 -154 14l5 25q-92 20 -155 62t-81 96h-55l22 53h76q-2 -4 -2 -14q0 -37 26.5 -68t72.5 -54.5t107.5 -37t131.5 -13.5t130 13.5t106.5 37t73 54.5t26.5 68q0 35 -26.5 65.5t-73 54t-106.5 37t-130 13.5q-55 0 -105.5 -8.5t-91.5 -22.5l-32 35q94 39 213 41l4 26 q4 0 9 1t9 1q92 0 174 -18.5t143.5 -49t99.5 -71.5t42 -88h88v-25h-86q-4 -47 -42 -88t-100.5 -71.5t-144.5 -49t-174 -18.5zM1249 1075l64 -35l-250 -460l55 -31l-297 -549l-121 66zM610 1075q84 0 154 -14l-6 -25q92 -20 154.5 -62t80.5 -95h2h56l-25 -54h-74v15 q0 37 -26.5 67.5t-72.5 54t-106.5 37t-130.5 13.5t-131 -13.5t-107 -37t-72.5 -54t-26.5 -67.5q0 -35 26.5 -67t72.5 -54.5t107.5 -35.5t130.5 -13q53 0 103.5 8t91.5 22l33 -34q-92 -37 -213 -41l-4 -27q-4 0 -8.5 -1t-8.5 -1q-92 0 -174 18.5t-144.5 49t-100 71.5 t-41.5 88h-87v25h87q4 47 41.5 88t99 71.5t144.5 49t175 18.5z" />
<glyph unicode="&#x26;" horiz-adv-x="2025" d="M1642 264l7 2l6 4l6 4l6 2l6 3l6 4l7 4l6 2l6 4l6 2l6 4l6 2l6 4l7 4l6 2l6 4l6 2l6 5l6 4l6 2l7 4v2l-33 24l-4 -4l-6 -2l-5 -4l-6 -2l-6 -4l-6 -2l-6 -4l-6 -4l-6 -2l-7 -4l-6 -4l-6 -3l-4 -2l-6 -4l-6 -4l-8 -2l-7 -4l-6 -2l-6 -4l-6 -2l-6 -4l-6 -2l-6 -4l-9 -2 l-6 -4l-6 -3l-8 -4l-6 -2l-25 -10l-199 172l-114 -31l-47 35l-4 -2h-4l-7 -2h-4l-4 -2l-6 -2h-4l-6 -2h-4l-4 -2h-7l-4 -2h-6l-4 -2h-6l-4 -2h-6l264 -225l-68 -19l-10 -2l-10 -2l-10 -4l-13 -2l-10 -2l-10 -2l-12 -2l-11 -4l-10 -2l-10 -2l-12 -3l-11 -2h-10l-12 -2l-10 -2 l-11 -2l-12 -2l-10 -2h-10l-11 -2h-12l-10 -2h-10l-11 -2h-12h-10l-10 -2h-11h-10h-10h-10h-17h-16h-15h-16l-16 2l-15 2l-16 2h-14l-17 2l-14 4l-14 2l-15 2l-14 4l-14 3l-13 4l-14 4l-12 4l-13 4l-12 4l-10 6l-10 4l-11 6l-10 7l-10 6l-8 6l-9 6l-6 8l-8 6l-4 11l-6 8 l-4 10v10l-2 19l2 16l4 16l6 17l8 14l10 12l13 13l12 10l14 10l15 8l14 9l16 8l17 8l16 6l17 6l18 6l16 4l19 7l18 4l19 4l16 4l19 4l16 2l16 4l15 2l14 2l14 2l15 2l12 2l10 2l8 2h9l38 9l39 6l37 8l35 8l35 8l33 9l30 8l31 8l29 10l26 8l27 9l25 10l24 8l23 10l20 10l21 9 l18 10l19 10l16 10l14 11l15 10l12 10l12 10l10 11l11 10l8 10l6 10l6 11l6 10l4 10l2 10l4 19v39l-2 14l-2 14l-4 15l-6 12l-6 14l-6 13l-10 10l-11 12l-10 10l-12 11l-14 10l-15 8l-16 8l-17 8l-18 9l-20 6l-23 6l-23 6l-24 4l-25 6l-26 2l-29 4l-29 2l-28 2h-33h-33h-33 l-34 -2l-37 -2l-37 -2l-37 -4h-6l8 -26l-45 -13l-16 -4l-15 -6l-14 -6l-14 -6l-13 -4l-12 -6l-10 -7l-13 -6l-10 -6l-10 -6l-8 -8l-8 -6l-9 -6l-8 -7l-6 -6l-6 -6l-6 -8l-6 -6l-4 -6l-7 -7l-4 -6l-4 -8l-4 -6l-2 -4l-4 -6l-2 -6l-4 -7l-2 -6l-2 -6l-2 -4l-9 -29h-71l4 -4 h104l4 19l11 22l12 21l14 20l19 17l18 16l21 14l22 13l25 12l24 10l25 8l27 9l26 6l29 6l26 4l29 2l27 2h28h27l27 -2l24 -2l25 -4l22 -6l23 -9l22 -8l19 -10l18 -12l15 -15l14 -16l10 -20l4 -19l2 -4v-2v-4l2 -4v-6v-7v-6v-6v-6l-2 -8l-4 -8l-2 -6l-4 -9l-6 -8l-6 -6l-6 -8 l-9 -6l-8 -6l-10 -7l-10 -8l-13 -6l-14 -6l-14 -6l-15 -6l-18 -7l-18 -4l-21 -6l-20 -6l-25 -6l-24 -6l-27 -4l-31 -6l-20 -5l-23 -4l-24 -4l-27 -4l-27 -4l-30 -6l-31 -4l-33 -6l-33 -9l-34 -6l-33 -8l-37 -8l-35 -8l-35 -10l-35 -9l-34 -10l-35 -12l-33 -10l-33 -13 l-32 -14l-29 -12l-29 -15l-28 -14l-25 -16l-23 -17l-22 -16l-19 -19l-14 -16l-14 -18l-10 -19l-9 -20l-10 -35h2l6 -47l6 -19l9 -16l10 -16l12 -17l14 -14l19 -14l18 -13l23 -12l24 -12l25 -11l27 -10l28 -8l29 -8l29 -6l30 -7l31 -6l33 -4l31 -6l30 -2l31 -4l31 -2l28 -2 l29 -2l27 -2h26l25 -2h22h21h20l-4 67l45 2h13h12h12l15 2h12l12 2h12l13 2h12l12 3l13 2l12 2h12l12 2l13 2l12 2l12 2l13 2l12 4l12 2l12 2l13 2l12 2l12 4l13 2l10 4l12 2l12 5l13 2l12 4l27 8l159 -135h377v10h-135l-219 190l49 25l6 2l6 4zM1235 434l117 33l196 -172 q53 23 101.5 48.5t91.5 51.5l86 -65q-47 -29 -96.5 -55.5t-100.5 -49.5l176 -153h152l2 -72h-371h-49l-154 131q-98 -29 -197 -44t-204 -17l2 -70q-35 0 -102.5 1t-149.5 8t-168 23.5t-158.5 45t-120.5 74t-52 110.5h-173v53h170q12 63 68.5 114.5t136.5 90.5t176.5 67.5 t189.5 49t175 34t133 23.5q119 20 177.5 44t82 45.5t22.5 39t-3 27.5q-8 41 -53.5 65.5t-110 31.5t-137 -2t-135 -33.5t-103.5 -65.5t-43 -96h-147l-48 65h109q6 25 22.5 53.5t46 58t76.5 56.5t119 47l-8 31q324 37 503 -19.5t191 -203.5h107v-52h-109q-18 -104 -178 -186 t-481 -139q-20 -4 -58.5 -10.5t-83.5 -15.5t-91 -22.5t-83 -34t-59.5 -47t-18.5 -63.5q2 -25 34 -45t80 -35.5t108.5 -22.5t120.5 -7q84 0 167.5 13t167.5 36l-268 229q45 6 85 14.5t75 18.5z" />
<glyph unicode="'" horiz-adv-x="311" d="M92 1044v-249h37v75v2v5v4v2l2 4v4l2 2v4l2 2v2l2 4l2 2l2 4l2 2l2 2l2 5l3 2l2 2l2 2l2 2l4 2l2 2l2 2h4l4 2l2 2h4l2 2h4h4h5h2h30v104h-133zM63 1075h191v-166h-59q-14 0 -24.5 -11t-10.5 -28v-104h-97v309z" />
<glyph unicode="(" horiz-adv-x="616" d="M193 791l6 14l6 16l8 15l8 16l8 14l11 15l10 16l12 14l12 15l13 14l14 12l14 15l17 14l6 4l-6 6l-8 -8l-9 -6l-8 -8l-10 -8l-8 -9l-10 -10l-11 -10l-10 -10l-10 -11l-10 -12l-11 -12l-10 -13l-10 -12l-8 -14l-11 -14l-10 -15l-8 -14l-10 -14l-8 -17l-9 -14l-8 -17l-6 -16 l-6 -16l-6 -19l-6 -16l-5 -19l-4 -16l-2 -18l-2 -19l-2 -18v-19v-80h-4v-10h4v-74v-20v-21l2 -20l2 -20l2 -19l4 -18l5 -19l4 -18l4 -17l4 -18l6 -16l6 -15l6 -16l6 -16l7 -15l8 -14l8 -15l8 -14l8 -14l9 -12l8 -13l8 -12l10 -12l10 -13l9 -10l10 -12l10 -10l10 -11l11 -10 l10 -10l10 -8l4 -2l14 14l-8 6l-14 14l-14 15l-15 16l-12 15l-10 14l-10 16l-11 17l-8 14l-8 16l-8 17l-6 16l-7 17l-4 16l-6 16l-4 19l-2 16l-4 16l-2 17l-2 18l-2 17l-2 18l-2 16l-2 19v16l-2 19v18v17l-2 18v18l-2 19v18v21l2 18v19l2 18v18l2 17v18l2 17l2 16l2 19l2 16 l4 16l2 17l4 16l2 16l6 15l4 16zM369 971q-68 -53 -105 -107.5t-54 -114t-21.5 -126t-8.5 -142.5q4 -74 7 -142.5t17.5 -132t47.5 -122.5t96 -111q41 -37 86 -61.5t88 -38.5l2 -53q-47 14 -98 39.5t-98 62.5l-21 -20q-6 2 -14 10q-45 37 -86 85t-73 109.5t-50 135t-18 161.5 v43h-3v72h3v49q0 80 28.5 153t68.5 131t83 102t73 67q6 6 15 10l20 -16q35 25 69 44t69 36l10 71l49 -24l-8 -74q-23 -6 -38.5 -11t-32.5 -14.5t-40.5 -24.5t-62.5 -46z" />
<glyph unicode=")" horiz-adv-x="638" d="M416 805l6 -14l6 -17l4 -16l4 -15l4 -16l4 -16l2 -17l5 -16l2 -16l2 -19v-16l2 -17l2 -18v-17l2 -18v-18l2 -19v-18l2 -21l-2 -18v-19v-18l-2 -18v-17l-2 -18v-19l-2 -16v-19l-2 -16l-2 -18l-2 -17l-2 -18l-3 -17l-4 -16l-4 -16l-4 -19l-4 -16l-4 -16l-6 -17l-8 -16 l-6 -17l-9 -16l-8 -14l-10 -17l-10 -16l-13 -14l-12 -15l-12 -16l-15 -15l-14 -14l-8 -6l14 -14l2 2l13 8l10 10l10 10l10 11l11 10l8 12l10 10l10 13l8 12l11 12l8 13l8 12l8 14l8 14l9 15l6 14l8 15l6 16l6 16l6 15l7 16l4 18l4 17l4 18l4 19l2 18l4 19l2 20v20l2 21v20 v74h2v10h-2v80v19l-2 18l-2 19l-2 18l-4 16l-6 19l-4 16l-6 19l-7 16l-8 16l-6 17l-8 14l-10 17l-9 14l-8 14l-10 15l-10 14l-10 14l-11 12l-10 13l-10 12l-10 12l-9 11l-10 10l-10 10l-10 10l-9 9l-10 8l-8 8l-8 6l-8 8l-7 -6l7 -4l14 -14l16 -15l15 -12l12 -14l12 -15 l13 -14l10 -16l10 -15l8 -14l8 -16l9 -15zM246 971q-39 31 -62.5 46t-42 24.5t-34 14.5t-35.5 11h-2l-7 74l50 24l10 -71q35 -16 68.5 -36t68.5 -44l21 16q8 -4 14 -10q29 -23 73 -67t84 -102t68.5 -131t28.5 -153v-49h2v-72h-2v-43q0 -88 -18.5 -161.5t-50 -135 t-72.5 -109.5t-86 -85q-6 -6 -15 -10l-22 20q-94 -74 -195 -102l2 53q41 14 86 39t88 61q63 51 96 110.5t47.5 123t17.5 132.5t7 142q-4 76 -8 142.5t-21.5 126t-54 114t-104.5 107.5z" />
<glyph unicode="*" horiz-adv-x="776" d="M383 1012v2v2l-2 2l-2 2v2l-2 2l-2 2l-2 2h-2l-2 2l-2 2l-2 2l-3 2h-2l-4 2h-2l-2 2v-249l-252 73l-12 -41l250 -75l-80 -109l33 -21l76 111l163 -225l37 26l-155 213l114 39l-14 41l-125 -43v219v2v3l-2 2v2v2zM369 676l-152 -215l-47 33l80 114l-35 23l72 100l-238 72 l31 100l242 -72v246q37 -2 66.5 -22.5t29.5 -55.5v-176l112 39l15 -43l127 37l18 -53l-227 -76l147 -205l-86 -61z" />
<glyph unicode="+" horiz-adv-x="1116" d="M782 469l-2 4l-2 4v6l-2 4h-186v37v189h-98v80h-41v-306h-359v-51h260v-76h99v-258h88v-71h51v71v4v197v57h424l2 39h-148h-6h-6l-6 2h-4l-6 2l-4 3l-7 2l-4 4l-4 2l-6 4l-2 4l-4 2l-4 4l-4 4l-2 4l-4 4l-2 4l-2 5l-5 6l-2 4v4zM63 518h357v305h102v-80h99v-225h184 q0 -33 16.5 -60.5t46.5 -27.5l179 -2l-3 -96h-423v-332h-113v72h-88v260h-98v74h-259v112z" />
<glyph unicode="," horiz-adv-x="399" d="M326 231v-57h-72v-297h-96v119q2 18 -9.5 32.5t-25.5 14.5h-60v188h263zM127 74h2l4 -2h4l4 -2h4l2 -2l5 -2l2 -3l4 -2l2 -2l2 -2l4 -2l2 -2l2 -2l2 -4l2 -2l2 -4l2 -2v-2l2 -4l2 -2l2 -4v-2l2 -5v-4l2 -2v-4v-4v-2v-4v-4v-88h37v291h-133v-125h31h4z" />
<glyph unicode="-" horiz-adv-x="1640" d="M1032 442l-2 4l-2 5l-2 4l-2 4l-2 6l-2 4l-2 4l-2 4v6l-2 4v5h-615v-52h236v-75h594v38h-129h-6h-7l-4 3l-6 2h-6l-4 2l-4 4l-4 2l-4 4l-6 2l-2 4l-5 4l-4 4l-2 4zM371 522h671q0 -33 14.5 -60.5t43.5 -27.5l160 -2v-96h-656v74h-233v112z" />
<glyph unicode="." horiz-adv-x="370" d="M92 100h27h2h4l4 -2h4l2 -2h4l4 -2l2 -2h5l2 -2l2 -2l4 -2l2 -4l2 -2l2 -2l2 -2l2 -2l2 -4l2 -2l2 -2v-5l2 -2v-4l2 -2v-4l2 -2v-4l2 -2v-4v-4v-2h94v184h-184v-115zM307 246l-2 -246h-153v27q0 16 -9.5 29.5t-23.5 13.5h-56v176h244z" />
<glyph unicode="/" horiz-adv-x="733" d="M625 1034l-521 -956l66 -37l270 496l-57 28l250 463l-8 6v0zM612 1075l64 -35l-250 -460l55 -31l-299 -549l-119 66l549 1009v0z" />
<glyph unicode="0" horiz-adv-x="2344" d="M1651 944l-15 4l-14 2l-16 4l-15 2l-14 5l-14 2l-17 2l-14 2l-14 4l-17 2h-14l-17 2l-16 2l-16 2l-15 2h-16l-16 2h-17h-16l-41 2l-10 62h-2h-2h-3h-2h-2h-2l-51 -3h-49l-51 -4l-47 -4l-49 -6l-48 -6l-45 -8l-45 -8l-45 -11l-41 -12l-43 -10l-39 -14l-41 -13l-36 -16 l-37 -14l-35 -17l-33 -18l-31 -17l-30 -18l-27 -21l-27 -18l-24 -21l-23 -22l-20 -21l-19 -22l-16 -21l-14 -22l-13 -23l-10 -22l-8 -25l-6 -22l-2 -25v-47l2 -24l6 -23l8 -23l8 -24l13 -23l14 -22l16 -23l19 -20l20 -23l23 -20l24 -21l27 -20l27 -19l30 -18l31 -18l33 -19 l35 -16l37 -15l36 -14l39 -14l41 -15l43 -12l43 -10l43 -10l45 -9l47 -8l48 -6l47 -6l49 -4l49 -4l51 -2h51h11h12h10h10h13h10l12 2h10h11h12l10 2h10h11l12 2h10l10 2h11l10 2h12l10 2h11l10 2l10 2h10l11 2l10 2l10 2h10l11 2l-9 56l52 12l24 6l25 6l22 6l23 9l22 8l23 8 l20 8l21 8l20 11l21 8l18 10l19 10l18 10l16 11l17 12l16 10l17 12l14 11l14 12l13 12l12 13l12 12l12 12l11 14l10 13l8 12l8 14l8 13l7 14l6 12l12 37l25 -2h77l-24 57h-117v-2v-2l-2 -22l-2 -23l-6 -22l-8 -23l-8 -20l-13 -21l-12 -20l-16 -19l-17 -18l-18 -18l-19 -17 l-20 -16l-23 -17l-24 -16l-25 -14l-26 -13l-27 -14l-29 -12l-30 -13l-31 -10l-31 -10l-33 -10l-35 -8l-32 -9l-37 -8l-35 -6l-37 -4l-37 -4l-39 -4l-39 -2l-38 -2h-39h-13h-10h-10h-10h-11h-10h-10l-10 2h-11h-8l-10 2h-10l-10 2h-11h-10l-10 2h-8l-11 2l-10 2h-8l-10 2 l-11 2h-8l-10 2l-10 2l-8 2h-11l-8 2l-10 2l-8 2l-10 2l-68 15l731 649h-2l-2 2h-2h-2l-529 -467l-49 41l-225 -199l-35 15l-16 8l-17 6l-16 8l-16 8l-17 9l-14 8l-14 8l-15 10l-14 8l-12 11l-15 8l-12 10l-12 10l-10 11l-13 10l-10 10l-8 12l-10 11l-9 12l-8 10l-8 12 l-6 13l-6 12l-6 12l-5 13l-4 12l-4 14l-2 12l-2 15l-2 12v14v23l4 22l6 23l7 20l10 23l12 18l12 21l15 20l18 19l16 16l21 19l20 16l23 16l25 15l24 14l27 14l26 15l29 12l31 12l30 11l31 10l33 10l33 8l35 8l36 7l35 6l37 6l37 4l39 4l39 2l39 2h39h16h16h15l16 -2h14h17 l14 -2h17l14 -2l14 -2l15 -2h16l14 -2l15 -2l14 -2l14 -4l15 -2l12 -2l14 -2l15 -5l14 -2l12 -4l15 -2l12 -4l14 -2l12 -4l13 -4l14 -4l12 -4l13 -4l4 -2l28 30l-8 4l-14 4l-12 5l-15 4l-12 4l-14 4l-15 4l-14 4zM1294 0q-209 0 -393 40t-323.5 109.5t-225.5 163t-94 201.5 h-195v53h195q10 106 96 198.5t225.5 162t323.5 109.5t391 40h39l10 -61q272 -10 478 -96l-72 -78q-94 35 -205.5 53t-236.5 18q-158 0 -295.5 -30.5t-240.5 -82.5t-162.5 -122t-59.5 -150q0 -94 82 -174t219 -133l229 201l49 -39l523 461q39 -10 75 -25l-725 -643 q137 -33 306 -33q158 0 296 30t241.5 82t162.5 123t59 150v17q0 8 -4 18h170l54 -119h-125h-4q-41 -123 -182.5 -217t-344.5 -141l8 -55q-160 -31 -344 -31z" />
<glyph unicode="1" horiz-adv-x="741" d="M240 786l2 -6v-6l-2 -649v-8l-2 -6l-2 -9l-3 -6l-4 -6l-6 -6l-2 -2h154v-53h149l2 2v2l2 4l2 2l2 4l3 2l4 2l2 4l2 2l4 2l4 2l2 2l4 2l4 2l4 3h4l2 2v2l-2 2h-4l-4 2l-6 2l-4 2l-4 2l-6 2l-4 4l-5 2l-4 4l-2 4l-4 2l-4 6l-2 5l-2 4l-4 4l-2 4l-2 6v4l-2 4v6l-2 4v7l-2 6 v4v6v6v797l-72 -2v75h-168h-2v-4l-2 -4l-2 -4l-2 -4l-2 -4l-2 -2l-4 -4l-2 -4l-2 -4l-4 -2l-3 -2l-4 -5l-4 -2l-4 -4l-2 -2l-4 -2l-4 -2l-4 -2l-4 -2h-6l-4 -2h-5l-6 -2h-4h-4h-82v-86h10h9h6l8 -2h6l8 -2h6l7 -2l6 -2l6 -2l6 -2l6 -4l6 -2l6 -5l5 -2l6 -4l4 -4l4 -4l4 -4 l4 -6l4 -4l4 -6l2 -4l4 -7l2 -4l2 -6l3 -6l2 -6l2 -6v-6v-7zM233 1075h226v-76l71 2v-827q0 -76 72 -76h70v-59h-76q-29 0 -39 -14.5t-10 -26.5h-203v53h-281v47h115q8 0 19.5 4t11.5 23l2 647q-2 41 -28.5 66.5t-80.5 25.5h-39l-2 148h113q25 0 42 19t17 44z" />
<glyph unicode="2" horiz-adv-x="1757" d="M1602 195l-5 -5l-4 -2l-4 -2l-4 -2l-4 -2l-4 -2l-4 -2l-4 -2h-4l-6 -2h-5h-4h-1202l-96 -57v-15h119v-71h1155l41 59h78v143v-2l-5 -2l-2 -4l-4 -4l-4 -4l-2 -2l-4 -4l-4 -2l-4 -4l-4 -2l-2 -4l-4 -2zM1421 938l-22 10l-21 8l-24 11l-25 8l-26 8l-27 8l-29 6l-28 7l-31 6 l-31 6l-31 6l-32 4l-33 4l-35 4l-35 4l-35 2l-36 2l-37 2l-37 3h-37h-8h-8h-9h-8h-10l-8 -3h-8h-9h-8h-8h-6h-10l-9 -2h-6h-8h-8h-8l-8 -2h-9h-8l-8 -2h-8h-6l-9 -2h-8h-8l-6 -2h-4l6 -26l-51 -9l-19 -4l-18 -2l-17 -4l-18 -4l-16 -4l-17 -4l-16 -4l-14 -4l-17 -4l-14 -7 l-15 -4l-14 -6l-12 -4l-14 -6l-13 -6l-12 -4l-10 -6l-11 -7l-12 -6l-8 -6l-10 -6l-8 -6l-9 -6l-8 -6l-6 -7l-6 -6l-6 -6l-4 -6l-2 -4l18 -31h4l4 12l8 21l13 18l14 17l16 14l19 14l18 13l23 10l20 10l25 10l24 9l25 6l25 6l26 6l27 6l26 4l25 6l27 5l24 2l25 2l24 4l23 2 l20 2h21l18 2h17l16 2h12h11h8h4h29l28 -2l29 -2l27 -2l26 -2l27 -2l26 -2l27 -4l25 -5l24 -2l25 -4l24 -6l23 -4l20 -6l23 -4l20 -6l21 -6l18 -7l19 -8l16 -6l16 -8l15 -8l14 -11l12 -8l13 -10l10 -10l10 -10l8 -13l7 -14l4 -12l4 -17v-12v-4l-2 -4v-2v-2v-4v-2l-2 -5v-2 v-4l-2 -2v-2v-4l-2 -2v-4l-3 -2l-2 -4v-2l-2 -4l-2 -2v-4l-2 -3l-2 -4l-2 -2l-2 -4l-2 -2l-2 -2l-4 -4l-2 -2l-2 -2l-4 -2l-2 -2l-4 -4l-930 -436l8 -3l229 109h172l635 289l6 2l7 4l6 4l6 2l6 4l4 4l4 2l6 4l4 5l5 4l4 4l2 2l4 4l2 4l4 4l2 2l2 4l2 4l2 4l2 2l2 5l2 4l2 4 v2l2 4v2l2 4v2v2v4l2 2v4v37l-2 8l-4 11l-6 8l-8 10l-8 10l-10 13l-13 10l-14 10l-16 10l-17 11l-18 10zM901 766l4 2l2 2h4l2 2l2 2h5l2 2l2 2l2 2h2v2l2 2v13l-2 2l-2 2l-2 2l-2 2h-2l-2 2l-3 2h-2l-4 2l-2 2l-4 2h-2l-4 2l-4 2h-4l-4 2h-4h-4l-5 2h-4l-4 2h-4h-6h-4h-4 l-6 2h-4h-7l-6 -2h-4h-6h-6l-4 -2h-6l-4 -2h-5l-6 -2h-4l-4 -2l-4 -2l-4 -2h-4l-2 -2l-4 -2l-2 -2l-4 -2l-2 -2l-3 -2h-2v-2l-2 -2v-2h-2v-2h-2v-2v-3h2v-2h2v-2l2 -2v-2h2l3 -2l2 -2l4 -2l2 -2l4 -2h2l4 -2l4 -2l4 -2h4l4 -2l6 -2h5l4 -2h6l4 -2h6h6h4h6h7h4h6h4h6h4l4 2h4 h6l5 2h4l4 2h4l4 2h2zM1548 205q8 0 22.5 7t27 17.5t21.5 21.5t9 19l2 41h45v-250h-92l-41 -61h-1202v72h-244v61h125l119 72h1208zM809 1077q154 0 290 -19.5t240.5 -54t170 -80.5t77.5 -98h103v-49h-103q-4 -25 -26.5 -63.5t-83.5 -67.5l-641 -291h-172l-230 -108l-127 14 l1026 481q16 10 23.5 31t9.5 37q2 41 -43 73.5t-122 56.5t-179 37t-215 15q-10 0 -55 -2t-107.5 -8t-133.5 -19.5t-129 -36t-97 -56t-37 -81.5h-146l-39 62h95h2q31 61 137 110.5t260 71.5l-8 29q61 8 126.5 12t133.5 4zM961 805h86v-27h-86q-10 -23 -44 -38t-81 -15 q-53 0 -91 18.5t-38 47.5t37.5 47t91.5 18q45 0 80 -14t45 -37z" />
<glyph unicode="3" horiz-adv-x="1814" d="M745 315l3 -2h2l2 -2l2 -2l4 -2h2l4 -2l4 -2h4l4 -2l4 -2h6l5 -2h6l4 -2h6l6 -2h6h6h6l7 -2h6h6h6h4h6l6 2h5h6h4l4 2h6h4l4 2h4l6 2h5l4 2l2 2h4l4 2h2l4 2h2l2 2l4 2h2l2 2v2h2l-2 2h-2l-2 2l-2 3h-2l-2 2l-4 2h-4l-2 2h-4l-4 2l-4 2h-5l-4 2h-4h-4l-6 2h-4l-6 2h-4h-6 h-5l-6 2h-4h-6h-6h-6h-6h-7l-6 -2h-6h-6l-6 -2h-6l-4 -2h-6l-5 -2h-6l-4 -2l-4 -2h-4l-4 -2l-4 -2l-2 -2h-4l-2 -3l-2 -2h-2zM600 1014h10l8 2h11l10 2h10l8 2h11l10 2h10h10h11l10 2h10h10h11h10h10l10 2h11h12l26 -2h29h29l26 -2l29 -2l25 -4l26 -2l27 -4l24 -4l25 -5 l23 -4l22 -6l23 -6l22 -6l21 -6l20 -6l19 -6l18 -9l16 -8l17 -8l16 -8l14 -8l13 -11l12 -10l12 -8l11 -12l10 -11l6 -12l8 -12l4 -15l2 -14l2 -14v-10l-2 -13l-4 -10l-4 -10l-6 -10l-6 -11l-6 -10l-9 -8l-8 -8l-10 -9l-10 -8l-10 -8l-13 -6l-12 -8l-12 -6l-13 -7l-14 -8 l-14 -4l-15 -6l-16 -6l-16 -6l-17 -4l-16 -7l-19 -4l-18 -4l-18 -4l-19 -4l-20 -4l-19 -2l-20 -4l-21 -2l-22 -4h-2h-2h-4h-2h-3h-2h-2h-2h-2h-2v-35h2h2h4h5h4l4 -2h4h4h4h4l23 -4l22 -4l25 -2l22 -4l21 -5l22 -6l21 -4l20 -4l19 -6l20 -6l19 -6l18 -6l16 -7l17 -6l16 -8 l17 -6l14 -8l14 -6l12 -9l15 -8l10 -10l12 -8l11 -8l10 -11l8 -10l8 -10l6 -10l7 -13l4 -10l4 -12l2 -13v-14v-14l-4 -17l-6 -14l-7 -14l-8 -15l-12 -12l-10 -12l-15 -10l-12 -13l-16 -10l-17 -10l-18 -10l-19 -9l-18 -10l-23 -8l-20 -8l-25 -6l-22 -9l-25 -6l-26 -8l-27 -4 l-27 -6l-26 -6l-29 -4l-31 -4l-28 -5l-31 -2l-31 -2l-33 -2l-32 -2h-33l-33 -2l-16 2h-17h-16h-18h-17l-16 2h-17l-16 2l-16 2h-15l-16 2l-16 2l-15 3l-16 2h-4l-6 -23l8 -2h8l8 -2h8l11 -2h8h8l8 -2h10h9l8 -2h10h8h8l11 -2h8h8h10h9h10l8 -2h10h8h11h8h10h8h10h43l41 2 l41 2l41 2l41 2l39 4l39 6l37 4l39 6l35 7l35 8l32 6l33 8l33 8l31 10l28 11l27 8l27 10l24 12l25 11l20 12l21 12l18 11l16 12l15 12l14 12l10 13l9 12l8 12l6 13l4 12l4 20l-4 21l-2 8l-2 6l-4 8l-4 8l-6 9l-7 8l-6 6l-8 8l-8 8l-8 9l-11 8l-10 8l-12 8l-10 8l-15 7l-12 8 l-14 8l-15 6l-16 8l-16 6l-17 9l-18 6l-19 6l-18 6l-19 6l-20 6l-18 6l-23 7l-20 4l-23 6l-149 33l145 34l16 7l17 4l16 4l16 6l17 4l14 6l15 4l14 6l12 7l14 6l13 6l12 6l12 6l11 6l10 6l10 7l8 6l11 6l8 6l6 6l8 8l6 6l4 7l6 6l5 6l4 6l2 6l2 6l2 6l2 7l2 14l-2 18l-4 11 l-4 10l-9 10l-6 10l-10 11l-12 10l-13 10l-14 10l-14 11l-19 10l-18 10l-21 10l-20 8l-23 9l-24 8l-25 8l-26 8l-27 8l-29 7l-28 6l-31 6l-31 6l-30 6l-33 4l-33 4l-35 2l-33 4l-36 2h-35l-37 3h-37h-25l-24 -3h-25l-22 -2l-23 -2l-22 -2l-23 -2l-20 -2l-21 -2l-20 -4 l-19 -2l-18 -4l-19 -4l-18 -4l-16 -4l-17 -2l-16 -7l-17 -4l-14 -4l-14 -4l-15 -4l-14 -6l-14 -4l-13 -4l-14 -6l-12 -4l-10 -5l-11 -4l58 -45h2l6 2l6 4l4 2l6 3l6 2l7 2l4 2l6 2l4 2l6 2l4 2l6 2l4 2l7 2l4 2l4 2l6 2l4 2l4 2l-6 19l16 22l19 6l8 2l8 2h10l9 2l8 3l10 2 l8 2l8 2h11l10 2zM227 160h-2l-4 2l-4 2l-4 4l-2 2l-4 2l-4 2l-2 4l-4 2l-4 2l-3 2h-67l-4 -8h69l9 -4l4 -2h2l2 -2h4l2 -2l2 -2h2l2 -2h2h4l2 -2h2zM983 303q-10 -18 -47 -30.5t-86 -12.5q-57 0 -97 16.5t-40 38.5q0 23 40 39.5t97 16.5q49 0 87 -13.5t48 -31.5h92v-23h-94 zM1225 582q184 -39 299.5 -105.5t128.5 -148.5h112v-31h-112q-8 -61 -79 -115.5t-187.5 -94.5t-270 -63.5t-328.5 -23.5q-154 0 -288 18l8 31q-66 10 -124 27.5t-110 34.5q-35 10 -52 17t-40 17h-119l43 70h97q27 -25 51.5 -36t64.5 -27q86 -33 204 -51.5t253 -18.5 q131 0 246 17.5t201 48t136 70.5t50 87q0 37 -31.5 71t-89 61.5t-136.5 48t-171 32.5q-29 4 -61.5 6t-65.5 4v50h64v36q14 0 26 1t25 1q82 10 152.5 28t120.5 42.5t79 53t29 61.5q0 39 -43 74.5t-118 62.5t-175.5 42t-212.5 15q-84 0 -160 -8t-139 -24q-2 0 2 -4.5t9 -10.5 t9 -11t2 -5q-31 -10 -68.5 -23.5t-86.5 -36.5l-111 89q41 18 93 38.5t120 37t152 28.5t188 12q150 0 283 -19.5t233 -54t161.5 -82t70.5 -100.5h73v-26h-73q-8 -68 -98.5 -123t-235.5 -90z" />
<glyph unicode="4" horiz-adv-x="1583" d="M1130 545h-731l-69 -74h-150l-41 -39h899l2 -332v-28h13h6h4h4h4l4 -2h4h4h2l5 -2h4l4 -2h2l4 -3h4l2 -2l4 -2l2 -2h2l4 -2l2 -2l2 -2l2 -2l2 -2h3l2 -2l2 -2l2 -2l2 -2l2 -2l2 -2h2l2 -2l2 -2h113l-4 41h73v26l-2 342h166v19h-166v588h-403l-334 -302l-55 19l-113 -94 h127l385 344h192v-469zM168 502h149l70 73h713v408h-150l-387 -344h-221l190 160l60 -21l323 299h447v-588h166v-79h-164v-312h156v-57h-226l4 -41h-159l-13 10q-14 14 -26.5 22.5t-46.5 8.5h-172v57h129l-2 303h-945z" />
<glyph unicode="5" horiz-adv-x="1808" d="M928 344l2 2l2 2l2 2v2l2 2v25l-2 2v2l-2 2l-2 2l-2 2l-2 4l-2 2l-4 2l-2 2l-3 2l-4 2l-4 3l-4 2l-4 2l-4 2l-4 2l-4 2l-4 2h-6l-5 2l-6 2h-4l-6 2l-6 2h-6h-6l-7 2h-6h-8h-6h-6h-6l-8 -2h-7h-6l-6 -2l-6 -2h-6l-6 -2l-6 -2l-7 -2l-4 -2l-6 -2l-4 -2l-6 -2l-4 -2l-4 -5 l-4 -2l-4 -2l-5 -4l-2 -2l-4 -2l-2 -4l-2 -2l-2 -2v-2l-2 -2v-2l-2 -2v-2v-2v-2v-2v-3v-2l2 -2v-2l2 -2v-2l2 -4l2 -2l2 -2l4 -2l2 -4l5 -2l4 -2l4 -4l4 -2l4 -2l6 -2l4 -2l6 -3l4 -2l7 -4h6l6 -2l6 -2h6l6 -2h6l7 -2h8h6h6h6h8h6h7l6 2h6l6 2h4l6 2h6l5 2l4 2l6 2h4l4 2 l4 3l4 2l4 2l2 2l4 2l2 2l5 2l2 2l2 4l2 2zM819 711l-12 -2h-16h-15l-14 -2h-14h-15l-14 -2h-12l-15 -3l-14 -2h-12l-15 -2l-12 -2h-12l-15 -2l-12 -2l-12 -2h-13l-12 -2l-12 -2l-12 -2l-13 -2l-10 -2l-12 -2l-10 -2l-13 -2l-10 -2l-10 -2l-12 -4l-11 -2l-10 -2l-49 -13v252 h223v39h834h4h6h4h4h4l4 -2h4h7l4 -2h4l4 -2h4l4 -2l4 -2l4 -2h2l4 -4l4 -2l5 -2l4 -5l2 -2v88h-582h-2h-4h-2h-4l-2 3h-4h-2h-2h-5l-4 2h-2h-4l-4 2l-2 2l-4 2l-4 2l-4 4l-2 2l-4 4l-2 4l-3 4l-2 4v2l-2 4v2h-614v-438h143l7 2l10 2l12 2l12 2l11 4l12 3l12 2l12 2l11 2 l12 2l12 2l13 2l12 2l12 2l12 2l13 2h12l12 2l15 2l12 2h12l12 2h15l12 2h12h15l12 2h14h13l14 2h12h15h14h31l30 -2l29 -2l29 -2l28 -4l29 -4l29 -4l26 -4l27 -6l25 -6l26 -7l25 -6l22 -8l23 -8l22 -8l21 -9l20 -10l21 -10l18 -10l17 -10l16 -13l16 -10l15 -12l12 -15 l12 -12l10 -14l11 -15l8 -16l6 -14l4 -17l4 -16v-19v-16l-4 -16l-4 -17l-6 -16l-8 -14l-8 -15l-11 -14l-12 -14l-14 -13l-15 -14l-14 -12l-16 -11l-17 -12l-18 -10l-21 -10l-20 -11l-21 -8l-22 -8l-23 -8l-22 -8l-25 -9l-26 -6l-25 -6l-27 -6l-26 -4l-29 -4l-29 -4l-28 -2 l-29 -4h-29l-30 -2h-31h-31l-28 2h-31l-29 4l-28 2l-29 4l-27 4l-28 4l-27 6l-25 6l-24 6l-25 9l-24 8l-23 8l-22 8l-21 8l-20 11l-19 10l-18 10l-19 12l-16 11l-14 12l-15 14l-12 13l-12 14l-11 14l-10 15l-8 14l-6 16l-4 17l-2 16l-2 10h-78l-8 -20h45l22 2l13 -31l4 -8 l6 -8l4 -8l6 -11l6 -8l8 -8l9 -8l8 -8l8 -9l10 -10l8 -8l13 -6l10 -8l12 -9l12 -8l13 -6l12 -8l14 -6l13 -8l16 -7l14 -6l15 -6l16 -6l16 -6l17 -6l16 -4l19 -7l16 -4l18 -4l19 -4l47 -10l-6 -37l8 -2h8l6 -2h9l8 -2h8l8 -2h8h9l6 -2h8l8 -2h8h8h9l8 -2h8h8h8h9l10 -2h8h8h8 h9h8h8h8h39l37 2l37 2l37 2l35 4l34 4l35 6l35 4l33 8l30 7l33 8l29 8l31 10l28 10l27 11l27 10l24 10l23 13l22 12l23 12l20 14l19 13l16 14l16 14l15 15l12 14l10 14l10 15l9 14l6 14l4 15l10 41h144v2h-144l-10 39l-6 16l-6 14l-9 15l-8 14l-12 14l-12 15l-15 14l-16 14 l-16 13l-19 14l-20 12l-21 13l-22 12l-25 12l-25 10l-26 13l-27 8l-28 10l-29 10l-31 9l-31 8l-32 6l-33 6l-33 6l-35 6l-34 4l-37 5l-35 2l-37 2h-37zM965 346q-12 -31 -52.5 -51.5t-101.5 -20.5t-109.5 27t-48.5 66t48.5 65.5t109.5 26.5t102 -21.5t54 -52.5h106v-39h-108 zM225 1075h674q0 -33 9.5 -37t33.5 -6h610v-207h-41l-2 39q0 27 -19.5 36t-53.5 9h-803l-2 -37l-221 -2v-182q86 23 186 36t223 17q154 0 292 -26.5t243.5 -71.5t173 -107.5t80.5 -132.5h151v-63h-149q-12 -72 -80 -133.5t-173.5 -107.5t-243.5 -72.5t-294 -26.5 q-70 0 -135.5 5t-126.5 15l6 39q-156 33 -263 97.5t-138 148.5h-4h-95l39 82h129q0 -6 -1 -12t-1 -13q0 -55 46.5 -103t124 -84t183 -56.5t226.5 -20.5q119 0 225.5 20.5t184 56.5t124 84t46.5 103t-46.5 102.5t-125 82.5t-185 55.5t-225.5 22.5q-111 0 -207 -12.5 t-188 -34.5v-3h-187v500z" />
<glyph unicode="6" horiz-adv-x="1728" d="M346 158l-14 8l-17 10l-14 12l-12 13l-13 12l-12 14l-10 13l-8 14l-6 16l-7 15l-6 16l-2 16v17v35l4 30l7 33l10 29l10 28l14 29l17 27l18 24l21 25l22 22l23 23l24 20l27 21l29 18l26 19l31 18l31 17l30 14l31 14l33 15l33 14l32 12l33 13l33 12l33 12l32 10l33 11l31 8 l31 10l32 8l29 8l-6 25l88 27l2 2l2 2l2 4l4 2v4l2 4l2 2l2 4l2 4l2 4v4l3 3v4l2 4v4l2 4v4v2v4v4v2v4l-29 -4l-57 -12l-56 -10l-53 -13l-55 -14l-53 -16l-54 -17l-51 -16l-49 -18l-49 -19l-47 -20l-45 -23l-45 -22l-41 -23l-39 -25l-39 -24l-35 -27l-33 -26l-31 -27 l-26 -29l-25 -28l-22 -29l-19 -29l-16 -30l-12 -31l-11 -33l-6 -31l-4 -32l2 -35l4 -33l8 -35l7 -16h77l23 2l12 -29l4 -6l4 -8l5 -8l6 -6l6 -9l6 -6l6 -8l8 -6l9 -8l8 -6l10 -7l8 -8l10 -6l13 -6l10 -6zM602 70l-6 -27h4h6l8 -2h9l6 -2h8h6l8 -2h6h9l8 -2h6h8h8l9 -2h6h8h8 h6h8l9 -2h8h8h6h8h8h9h8h35l37 2l34 2l33 2l35 2l33 4l32 6l33 4l31 6l31 7l28 8l29 8l27 6l26 10l27 8l24 11l23 10l23 10l20 10l20 13l17 10l18 12l15 13l14 12l12 12l11 12l10 13l8 12l6 12l4 13l4 12l4 24l-4 25l-4 12l-4 13l-8 12l-8 12l-8 12l-13 13l-12 12l-12 12 l-17 13l-16 12l-19 10l-20 12l-21 11l-22 10l-23 10l-24 10l-25 9l-26 10l-29 6l-29 8l-28 8l-31 6l-31 5l-31 6l-32 4l-33 4l-35 4l-35 2l-35 2l-34 2h-35h-2h-2l-6 -35h28l27 -2l29 -2l26 -2l27 -2l26 -2l25 -4l27 -4l24 -4l23 -6l24 -6l23 -7l20 -6l23 -8l20 -6l19 -8 l18 -8l19 -9l16 -10l16 -10l17 -8l14 -13l12 -10l13 -10l12 -12l8 -13l10 -14l7 -12l6 -15l4 -14l4 -16v-15v-16l-4 -14l-4 -15l-6 -14l-7 -12l-10 -15l-8 -12l-12 -12l-13 -11l-12 -12l-14 -10l-17 -10l-16 -8l-16 -11l-19 -8l-18 -8l-19 -8l-20 -9l-23 -6l-20 -6l-23 -6 l-24 -6l-23 -6l-24 -4l-27 -4l-25 -5l-26 -2l-27 -4l-26 -2h-29l-27 -2h-28h-29l-29 2h-26l-27 4l-27 2l-26 2l-25 5zM721 326h-2l-2 -2l-2 -2v-3l2 -2h2l2 -2l2 -2l2 -2h4l2 -2l4 -2h4l2 -2l4 -2h5l6 -2h4l4 -2h6l4 -2h4h6h7h4l6 -2h6h4h4l6 2h4h4h7h4l4 2h4h4l4 2h4l4 2h2 l4 2h4l3 2l4 2h2l2 2h2l2 2l2 2h2l2 2h2v2v3l-2 2v2h-2l-2 2h-2l-2 2l-4 2h-2l-2 2h-5l-4 2h-2l-4 2l-4 2h-4h-4l-4 2h-4l-4 2h-4h-5h-6l-4 2h-4h-6h-4h-6h-6h-4l-7 -2h-6h-4l-4 -2h-6l-4 -2h-4l-6 -2h-5l-4 -2l-2 -2h-4l-4 -2l-2 -2h-4l-2 -2zM805 0q-129 0 -246 18l8 33 q-145 29 -245.5 84t-128.5 127h-3h-100q-41 104 -22.5 198.5t82 176.5t165 152.5t229.5 126t274.5 95.5t297.5 64q16 -29 5 -70.5t-36 -66.5l-69 -20l6 -25q-76 -20 -163 -47t-172 -60.5t-164 -77.5t-139 -98.5t-96 -123t-34 -152.5q2 -55 45 -100.5t115.5 -79t171 -52 t209.5 -18.5t209 18.5t170.5 49t114.5 71.5t42 88t-42 88t-114.5 72t-171 49.5t-208.5 18.5q-88 0 -167 -11.5t-145 -31.5l-51 47q72 25 157 39t181 16l6 37h29q147 0 277 -23.5t228.5 -64.5t159 -96.5t68.5 -116.5h137v-31h-137q-6 -63 -66.5 -118.5t-160 -96.5 t-229.5 -64.5t-277 -23.5zM928 307q-10 -18 -44 -30.5t-77 -12.5q-53 0 -89 17.5t-36 40.5t36 39t89 16q45 0 78 -13.5t43 -31.5h84v-25h-84z" />
<glyph unicode="7" horiz-adv-x="1677" d="M793 1008h-5h-696v-140l2 2l4 4l2 5l4 4l2 4l5 4l4 2l4 4l4 2l4 4l6 2l4 2l4 4l4 2l7 2l4 3l6 2h4l6 2l4 2h6h6h5l6 2h1204l-881 -856h-82v-13h146v-26h231l29 51h2l-4 4l-2 4l-2 4l-2 4l-2 4l-2 2l-3 5v4l-2 4v4v4v6v4v4v4l2 4v5l3 4l2 4l2 4v4l4 4l2 4l2 4l4 4l745 731 v80h-127v47h-616v-4l-2 -2l-2 -4l-2 -2l-2 -4l-2 -2l-4 -2l-2 -4l-5 -2l-2 -2h-4l-4 -2l-2 -2h-4h-4l-2 -2h-4h-2h-4h-4h-2zM410 98h100l819 797h-1130q-16 0 -32.5 -6t-29 -16.5t-19.5 -21.5t-5 -24v-41h-50v252h725q23 -2 30 6.5t9 28.5h672v-45l127 -2v-123l-754 -739 q-16 -18 -12 -41t21 -25h88v-45h-105l-28 -53h-281v27h-145v71z" />
<glyph unicode="8" horiz-adv-x="1640" d="M305 762l-6 12l-2 12l-4 15v12v14l4 15l2 12l6 12l6 13l8 10l9 10l10 10l10 11l12 10l13 8l14 8l12 8l17 9l14 8l16 6l19 6l16 6l19 6l18 6l21 7l20 4l21 4l20 4l23 4l20 2l23 2l24 2l23 2l24 2h23h24h25h25l22 -2l25 -2l22 -2l23 -2l22 -2l2 10h-6l-6 2h-6h-6l-6 2h-7 h-6h-6l-6 2h-6h-6h-6l-9 2h-6h-6h-6h-6h-8l-7 2h-6h-6h-8h-6h-6h-6h-9h-6h-31l-30 -2h-29l-31 -2l-28 -4l-29 -2l-29 -4l-26 -4l-27 -6l-24 -4l-27 -6l-25 -9l-22 -6l-23 -6l-22 -8l-21 -8l-20 -8l-19 -9l-16 -10l-18 -8l-15 -10l-14 -10l-14 -11l-11 -10l-10 -10l-10 -10 l-8 -11l-7 -8l-4 -10l-4 -10l-4 -11l-2 -8v-20l2 -6l2 -9l2 -6l2 -8l4 -6l5 -8l6 -6l6 -9l6 -6l6 -8l8 -6l8 -8l9 -6l10 -9l10 -6l10 -8l13 -6l12 -6l12 -8l13 -7l14 -6l14 -4l15 -6l14 -6l16 -6l17 -4l16 -7l18 -4l17 -4l18 -4l19 -6l164 -33l-17 -4l27 2l26 2l29 2h29h26 l29 -2l29 -2l26 -2l27 -2l27 -2l24 -4l25 -4l24 -4l25 -6l24 -6l23 -7l20 -6l23 -6l20 -8l19 -6l18 -8l19 -11l18 -8l17 -10l14 -8l14 -11l15 -12l10 -10l12 -12l10 -13l9 -12l8 -12l6 -15l4 -14l2 -14l2 -17l-2 -14l-2 -16l-4 -15l-6 -14l-8 -12l-9 -13l-10 -12l-12 -12 l-10 -10l-15 -13l-14 -10l-14 -10l-17 -8l-18 -9l-19 -10l-18 -8l-19 -6l-20 -8l-23 -6l-20 -7l-23 -6l-24 -6l-25 -6l-24 -4l-25 -4l-24 -4l-27 -2l-27 -2l-26 -2l-29 -3l-29 -2h-26l6 -32h2h37l35 2l34 2l35 2l35 4l33 2l33 6l30 4l33 6l29 6l30 7l29 8l27 8l26 8l27 10 l25 9l22 10l23 10l20 10l21 11l16 12l18 10l15 12l14 13l12 12l13 12l8 13l8 12l6 12l6 10l4 13l5 22l-5 23l-2 10l-4 8l-4 8l-4 11l-6 10l-6 8l-6 10l-11 8l-8 11l-10 8l-12 10l-11 8l-14 11l-12 8l-14 8l-17 8l-16 8l-17 9l-16 8l-18 6l-19 8l-20 6l-21 8l-20 7l-21 6 l-22 6l-23 4l-22 6l-23 4l-24 4l-41 8l-17 39l-6 -2l-8 -2h-8l-9 -2l-10 -2h-8l-8 -2h-8l-11 -2h-8l-8 -2h-10l-8 -2h-11h-8l-10 -2h-8h-11h-8h-10l-8 -2h-10h-11l-24 2h-23h-24l-23 2l-24 2l-23 4l-20 2l-23 4l-20 4l-21 4l-20 5l-21 6l-18 6l-19 4l-16 8l-19 6l-16 6 l-14 9l-17 8l-12 8l-14 8l-13 8l-12 11l-10 10l-10 10l-9 10l-8 11zM233 418l-4 -4l-8 -6l-6 -9l-6 -6l-6 -6l-6 -8l-4 -6l-5 -8l-4 -7l-10 -26l-24 2h-35l4 -8h69v6l2 14l7 14l6 15l6 12l8 12l10 13zM678 305l2 -2l2 -2l4 -2h2l2 -2l4 -2h2l4 -2l5 -2h4l4 -2h4l4 -2h6l4 -2 h6h4l7 -2h4h6h6h6h4h4h6h4h5l6 2h4h4l4 2h4l4 2h4h4l4 2h3l4 2l4 2h2l2 2h4l2 2l2 2h2l2 2l2 2v2l-2 2h-2l-2 2l-2 2h-2l-2 2h-2l-4 2l-2 2h-4l-2 3h-5l-4 2h-2l-4 2h-4h-4l-4 2h-6h-4l-4 2h-5h-4h-6h-4h-4h-6h-6h-6h-4l-7 -2h-4h-6l-4 -2h-6l-4 -2h-4l-4 -2h-4l-5 -3l-4 -2 h-2l-4 -2l-2 -2l-2 -2h-4l-2 -2v-2h-2l-2 -2h2zM1028 600q100 -16 184 -44t147.5 -63.5t100.5 -78.5t43 -90h88v-31h-90q-8 -61 -68.5 -115.5t-159.5 -94.5t-229.5 -62.5t-277.5 -22.5h-27l-6 37q-96 2 -182 16.5t-158 36.5l51 47q66 -20 146 -31.5t168 -11.5 q111 0 209 17.5t170.5 48t115.5 70.5t43 87q0 45 -43 86t-115.5 72t-171 48.5t-208.5 17.5q-111 0 -209 -17.5t-172 -48.5t-116 -72t-42 -86q0 -14 2 -20h-121l-37 70h89h2q29 68 124 121t234 81q-156 31 -255 91.5t-110 136.5h-65v26h65q6 53 57.5 99.5t136.5 81t196.5 54 t238.5 19.5q55 0 107.5 -4t103.5 -10l-6 -29q123 -23 209 -70t110 -106h3h75l-30 -59h-105q2 6 2 16q0 39 -35.5 75t-99 61.5t-147.5 41t-179 15.5q-96 0 -179 -15.5t-146.5 -41t-99 -61.5t-35.5 -75t35.5 -73.5t99 -60.5t146.5 -41t179 -15q76 0 143.5 10t125.5 26l43 -38 q-16 -6 -34 -11.5t-34 -9.5zM891 319h84v-24h-84q-10 -18 -43 -30.5t-78 -12.5q-53 0 -89 15.5t-36 37.5q0 23 36 39t89 16q43 0 77 -12.5t44 -28.5z" />
<glyph unicode="9" horiz-adv-x="1728" d="M1030 1016l27 -2l26 -2l27 -4l6 -2l6 24l-6 2h-6l-8 2h-8l-7 2h-8h-8l-8 2h-6h-8h-9l-8 2h-8h-6l-8 2h-9h-8h-8h-8h-8l-8 2h-9h-8h-8h-6h-8h-9h-8h-39l-37 -2l-36 -2l-35 -2l-35 -2l-35 -4l-35 -6l-32 -4l-33 -6l-31 -6l-31 -9l-30 -8l-29 -8l-27 -8l-26 -8l-27 -11 l-22 -10l-25 -10l-21 -10l-20 -13l-20 -10l-17 -12l-16 -12l-15 -13l-12 -12l-12 -12l-10 -13l-9 -12l-6 -12l-4 -12l-4 -13l-4 -24l4 -25l4 -12l4 -12l8 -13l9 -12l10 -12l10 -13l14 -12l15 -12l16 -12l17 -13l20 -10l18 -12l23 -10l23 -11l24 -10l27 -10l26 -8l27 -9 l29 -8l28 -8l31 -8l33 -6l31 -6l34 -5l33 -4l35 -4l35 -4l37 -2l34 -2l37 -2h39h2l8 35h-2h-28l-29 2h-29l-28 4l-27 2l-27 2l-26 4l-27 4l-26 4l-25 7l-23 6l-24 6l-23 6l-22 6l-21 8l-20 8l-19 9l-20 8l-16 10l-17 8l-16 11l-14 10l-15 12l-12 10l-12 13l-11 12l-8 12 l-8 15l-6 14l-6 14l-2 17v14v16l2 15l6 14l6 14l8 15l8 12l11 12l12 12l12 11l15 12l14 10l16 11l17 10l16 8l20 8l19 8l20 9l21 8l22 6l23 6l24 6l23 6l25 6l26 5l27 4l26 4l27 2l27 4l28 2h29l29 2h28h31l29 -2h28zM1374 924l4 -4l17 -11l16 -10l14 -12l15 -13l12 -12 l12 -12l11 -14l8 -15l8 -14l6 -16l4 -17l4 -16v-17v-34l-4 -31l-6 -33l-10 -31l-12 -28l-15 -27l-18 -27l-19 -24l-20 -25l-23 -24l-24 -21l-27 -20l-27 -21l-28 -18l-29 -19l-31 -18l-32 -16l-31 -15l-33 -16l-35 -14l-32 -13l-35 -12l-33 -12l-35 -13l-35 -12l-32 -10 l-35 -10l-33 -9l-33 -10l-30 -8l-33 -8l8 -25l-94 -26l-2 -2l-2 -5l-2 -2l-2 -4l-3 -2l-2 -4l-2 -4l-2 -2l-2 -4l-2 -4v-4l-2 -4v-2l-2 -5v-4l-2 -4v-4v-4v-2v-4v-2v-4l33 4l57 10l58 12l57 15l57 12l56 16l53 17l55 16l51 19l51 20l50 21l47 20l45 23l43 22l43 25l39 24 l37 27l32 27l33 26l29 29l26 29l23 28l18 31l17 29l14 32l10 31l6 31l3 33v34l-5 33l-8 35l-6 16h-82l-22 -2l-15 29l-4 6l-4 8l-4 6l-6 9l-6 6l-6 8l-9 6l-8 8l-8 6l-8 9l-10 6l-11 8l-10 6l-10 6l-12 6l-13 7zM991 750l2 2h2l2 2h2v2h-2l-2 2h-2l-2 2l-2 2h-2l-4 2l-2 2 l-4 2h-4l-4 2l-4 2h-4l-5 2h-6l-4 2h-4l-6 2h-6h-4h-6h-7l-6 2h-6h-4h-6l-4 -2h-6h-4h-5h-4l-6 -2h-4h-4l-4 -2h-4l-4 -2h-4l-2 -2h-5l-4 -2l-2 -2h-4l-2 -2l-2 -2h-2l-2 -2h-2l-2 -2l-2 -2v-2v-2h2l2 -2l2 -2h2l4 -3l2 -2h2l4 -2h2l5 -2l4 -2h4l4 -2h4h4l4 -2h4l4 -2h6h5h4 l6 -2h4h6h4h6h6h7l6 2h4h6l6 2h4l4 2h6l5 2h4l4 2l4 2h4l4 2l2 2l4 3h2zM905 1075q133 0 254 -18l-8 -33q150 -29 254 -84t135 -127h2h105q41 -104 22.5 -198.5t-84 -176.5t-172 -152.5t-239 -126t-285 -96t-309.5 -63.5q-16 29 -5 71t37 66l72 21l-6 24q78 20 168 47 t179 61t171 78t144.5 98t99.5 122.5t35 152.5q0 55 -45.5 100.5t-121 79t-177 52t-218.5 18.5q-115 0 -216 -18.5t-177 -49t-120 -71.5t-44 -88t44 -88t120 -72t177.5 -49t215.5 -18q92 0 174 11t152 32l53 -48q-76 -25 -165 -39t-187 -16l-6 -37h-29q-154 0 -289 23.5 t-238.5 64.5t-165.5 96.5t-71 116.5h-78v31h78q6 63 69.5 118.5t166 96.5t238.5 64.5t290 23.5zM776 768q10 18 45 29.5t80 11.5q53 0 91 -16.5t38 -38.5q0 -23 -38 -39.5t-91 -16.5q-47 0 -81 13.5t-44 31.5h-88v25h88z" />
<glyph unicode=":" horiz-adv-x="362" d="M276 145v-114h-182v184h92l2 -4v-4v-2v-4l2 -2v-4v-2l3 -5v-2l2 -4l2 -2l2 -4v-2l2 -2l2 -2l2 -4l2 -2l4 -2l2 -2l2 -2l2 -2l4 -2l2 -2l4 -2h2l4 -3l3 -2h4h4h4h2h26zM92 557v115h182v-185h-92l-2 2v5v4v2l-2 4v2l-2 4v2l-2 4v2l-2 4l-2 2l-2 2v4l-4 2v3l-2 2l-4 4l-2 2 l-2 2l-2 2l-5 2h-2l-4 2l-2 2l-4 2h-4h-2l-4 2h-4h-4h-25zM63 0h244v174h-55q-14 0 -24.5 13.5t-10.5 29.5v29h-154v-246zM305 700h-244v-174h56q14 0 24.5 -13t10.5 -30v-26h153v243z" />
<glyph unicode=";" horiz-adv-x="376" d="M326 254v-57h-72v-297h-96v118q2 18 -9.5 33t-25.5 15h-60v188h263zM311 711v-246h-153v27q0 16 -10.5 29.5t-24.5 13.5h-55v176h243zM127 96h2l4 -2h4l4 -2h4l2 -2l5 -2l2 -2l4 -2l2 -2l2 -2l4 -2l2 -2l2 -2l2 -4l2 -2l2 -5l2 -2v-2l2 -4l2 -2l2 -4v-2l2 -4v-4l2 -2v-4 v-4v-2v-4v-5v-88h37v291h-133v-125h31h4zM98 565h25h4h4h4l2 -2h4l4 -2l2 -2l5 -2h2l4 -2l2 -2l2 -2l2 -2l4 -4l2 -2v-2l4 -2v-4l2 -3l2 -2l2 -4v-2l2 -4v-2l2 -4v-2l2 -4v-2v-4v-4l2 -2h93v184h-183v-115z" />
<glyph unicode="&#x3c;" horiz-adv-x="849" d="M688 39l45 41l-530 401l530 449l-8 6l-231 -195l-43 37l-340 -295l577 -444v0zM688 0l-625 481l388 338l43 -37l229 195l57 -47l-528 -449l528 -399l-92 -82v0z" />
<glyph unicode="=" d="M725 324l-2 4l-2 4l-2 4l-2 6l-2 4l-2 4l-2 6l-2 4v5l-2 6v4h-615v-53h236v-74h594v37h-129h-7l-6 2h-4l-6 2l-6 2l-4 2l-4 2l-4 4l-4 2l-7 4l-2 2l-4 4l-4 4l-2 4zM291 614l2 -4l2 -4l2 -6l2 -4l2 -4l2 -4l2 -6l2 -4v-5l2 -6v-4h615v53h-359v74h-471v-37h129h6l7 -2h4 l6 -2l6 -2l4 -2l4 -2l6 -4l4 -2l4 -4l2 -4l5 -2l4 -4l2 -5zM63 406h672q0 -35 14.5 -62t43.5 -29h159v-98h-655v74h-234v115zM952 532h-669q0 35 -15.5 62t-44.5 29h-160v98h531v-74h358v-115z" />
<glyph unicode="&#x3e;" horiz-adv-x="841" d="M156 39l577 444l-340 295l-43 -37l-229 195l-10 -6l530 -449l-530 -401l45 -41v0zM156 0l-93 82l529 399l-529 449l58 47l229 -195l43 37l387 -338l-624 -481v0z" />
<glyph unicode="?" horiz-adv-x="1648" d="M803 106l-2 3l-2 2l-2 2l-4 2l-2 2l-5 2l-2 2l-4 2l-4 2l-4 2l-4 2l-4 2h-4l-4 2l-4 2h-4l-7 2h-4l-6 2h-4h-6h-6l-4 2h-6h-7h-6h-6l-6 -2h-6h-6l-6 -2h-7l-4 -2l-6 -2l-6 -2h-4l-6 -2l-4 -2l-4 -2l-5 -2l-4 -2l-4 -2l-2 -4l-4 -2l-2 -2l-2 -2l-4 -3l-2 -2v-2l-2 -4 l-2 -2v-2l-2 -2v-2v-2v-2v-2v-2v-2v-2l2 -2v-2l2 -2l2 -2v-2l2 -2l4 -3l2 -2l2 -2l4 -4l2 -2l4 -2l4 -2l5 -2l4 -2l4 -2l6 -2l4 -2h6l6 -2l4 -2h7l6 -2h6l6 -2h6h6h6h7h6h6l4 2h6h6l4 2h6l5 2h4l6 2l4 2h4l4 2l4 2l4 2l4 2l2 2l4 2l3 2l4 2l2 2l2 2l2 2l4 3v2l2 2l2 2v2 l6 10l-4 12l-2 2l-2 2v2l-2 2zM1407 698l6 13l4 10l4 10l4 12l2 11v24l-2 13l-4 10l-4 12l-6 12l-8 13l-8 12l-11 12l-12 12l-14 13l-15 10l-16 12l-18 11l-19 12l-20 10l-21 10l-22 11l-25 8l-24 10l-27 8l-27 8l-26 7l-29 8l-29 6l-30 6l-31 4l-33 6l-31 2l-34 4l-33 2 l-33 2l-35 3h-35h-8h-8h-8h-6l-8 -3h-9h-6h-8h-8h-6h-8h-7l-8 -2h-8h-6h-8l-7 -2h-8h-6l-8 -2h-6h-8l-7 -2h-8h-6l-8 -2h-6h-4l6 -24l2 2l24 2l27 4l27 2l24 2l27 2h29h26h29h27l26 -2l27 -2l24 -2l27 -4l25 -2l24 -4l23 -7l24 -4l23 -6l22 -6l21 -6l20 -6l21 -8l18 -9 l19 -6l16 -10l18 -8l15 -10l16 -9l12 -12l15 -10l10 -10l12 -13l11 -12l8 -12l6 -15l6 -12l4 -14l4 -17v-14v-14l-4 -15l-4 -14l-6 -14l-6 -15l-8 -12l-11 -12l-12 -12l-10 -11l-15 -10l-12 -10l-16 -10l-15 -11l-18 -8l-16 -8l-19 -8l-18 -8l-21 -9l-20 -6l-21 -6l-22 -6 l-23 -6l-24 -4l-23 -4l-24 -4l-25 -5l-27 -4l-24 -2l-27 -2l-26 -2h-27h-29h-2h-2h-2h-4h-2h-4h-4h-4h-4h-2h-7h-4h-4l-4 2h-6h-4h-6h-4h-7h-4h-6h-4l-6 2h-6h-4h-4v-237h8h8h10l8 2h7h8l8 2h6l6 2h6l7 2h6l6 2l6 2h4l6 2l4 2h4l5 2l4 2l4 2l4 2l4 2l4 2l2 2h2l-2 129h39v41 l59 5l31 2l29 4l28 4l29 4l29 4l28 6l27 6l25 6l26 7l25 8l22 6l25 8l20 8l23 10l20 9l19 10l18 8l17 10l16 11l14 10l15 10l14 12l10 11l11 12l10 10zM221 866h-2l-6 -8l-6 -6l-6 -8l-6 -6l-5 -9l-4 -6l-4 -8l-12 -27l-23 3h-34l4 -9h67v4l2 17l4 14l7 12l6 15l10 12z M700 782l-4 -2h-4l-4 -2h-4l-2 -2l-4 -2h-2l-4 -2l-2 -2h-4l-2 -2v-2h-2l-3 -2h-2h2v-2h3l2 -2v-2h2l4 -2l2 -2l4 -2h2l4 -2h2l4 -2l4 -3h4l4 -2h7l4 -2h4h6h4l6 -2h4h6h7h4h4h6h4l4 2h4h4h6l2 2h7l2 2h4l4 3h4l2 2h4l2 2h4l2 2l2 2h2l2 2h2l2 2l3 2l2 2l-2 2l-3 2h-2l-2 2 h-2l-2 2h-2l-4 2l-2 2h-4l-2 2h-4l-2 2h-4l-4 2h-4l-5 2h-4h-4h-4l-4 2h-4h-4h-6h-4h-4h-7h-6h-4h-6l-4 -2h-6h-4l-4 -2h-7zM840 104h51v-36h-49q-10 -29 -50 -48.5t-94 -19.5q-59 0 -101 25.5t-42 60.5t42 60.5t101 25.5q53 0 92.5 -19.5t49.5 -48.5zM594 256v301 q39 -4 83 -5t58 -1q106 0 201.5 17.5t167.5 47t112.5 69.5t40.5 87q0 45 -40.5 86t-112.5 72t-167 48t-202 17q-109 0 -203 -17t-165.5 -48t-112.5 -72t-41 -86q0 -14 2 -20h-117l-35 69h87h2q29 70 125 124t237 81l-6 33q111 18 237 18q143 0 269.5 -23.5t222.5 -63.5 t155.5 -94t65.5 -116h133v-30h-133q-6 -55 -56 -105.5t-133 -88.5t-193.5 -63.5t-235.5 -33.5v-43h-39l2 -115q-31 -23 -77 -34t-132 -11zM864 776h82v-24h-82q-8 -18 -40.5 -30.5t-75.5 -12.5q-51 0 -86 16t-35 39t34.5 38t86.5 15q43 0 74.5 -12.5t41.5 -28.5z" />
<glyph unicode="@" horiz-adv-x="1771" d="M1092 776l-5 2h-4h-4h-4h-4h-4h-4l-4 2h-4h-4h-4h-5h-4h-4h-14l-16 -2h-17l-16 -2l-17 -2l-16 -4l-16 -2l-17 -4l-16 -4l-17 -6l-16 -4l-16 -7l-17 -8l-14 -6l-14 -8l-15 -8l-14 -8l-14 -11l-13 -8l-10 -10l-12 -12l-10 -11l-9 -12l-8 -12l-8 -13l-6 -12l-6 -14l-4 -15 l-4 -14l-3 -14l-2 -17v-16l2 -12l3 -10l2 -13l4 -12l4 -10l6 -13l6 -10l6 -10l8 -10l9 -11l8 -10l10 -10l10 -10l13 -8l10 -11l12 -8l14 -8l13 -8l14 -6l14 -9l17 -6l14 -6l16 -4l17 -6l16 -4l19 -4l16 -4l18 -2l19 -3l18 -2h19h8l2 25h-2h-14l-17 2l-16 2l-17 2l-14 2 l-14 4l-15 4l-14 4l-14 7l-15 4l-12 6l-12 6l-12 6l-13 8l-12 6l-10 9l-10 8l-11 8l-10 10l-8 9l-8 10l-9 10l-6 10l-6 13l-6 10l-4 12l-4 12l-4 11l-2 12l-2 14v12v13l2 12l2 12l4 13l4 12l4 10l6 12l6 11l6 10l9 10l8 10l8 11l10 8l11 8l10 8l10 8l12 9l13 6l12 8l12 6 l12 4l15 6l14 4l14 7l15 2l14 4l14 4l17 2l16 2h17l14 2h16h17l16 -2h16l17 -2l14 -2l17 -4v14l-5 2h-2h-4l-4 2h-4h-4l-4 2h-4h-4h-4h-4zM1655 545l18 57h-49l-27 -4l-12 41l-4 12l-4 15l-6 14l-6 12l-6 15l-9 12l-6 12l-8 12l-10 13l-8 12l-11 12l-10 13l-10 12l-12 10 l-13 10l-12 13l-12 10l-13 10l-14 10l-14 9l-15 10l-14 8l-14 10l-17 8l-16 7l-16 8l-17 8l-16 6l-19 6l-16 6l-43 15l6 53l-2 2h-8l-8 2l-6 2h-9l-8 2l-6 2h-8l-8 2l-9 2h-6l-8 2h-8h-8l-8 2h-9l-6 2h-8h-8l-8 2h-9h-8h-8h-8h-8l-9 3h-8h-8h-6l-39 -3h-37l-37 -4l-35 -4 l-34 -6l-35 -6l-35 -8l-33 -8l-32 -11l-31 -10l-31 -12l-29 -12l-30 -15l-27 -14l-27 -16l-24 -17l-25 -16l-24 -19l-21 -18l-20 -19l-21 -20l-18 -21l-17 -20l-14 -20l-14 -23l-13 -23l-10 -22l-8 -23l-8 -24l-4 -23l-6 -24l-2 -25v-47l4 -27l4 -24l6 -23l6 -22l10 -25 l11 -22l12 -21l14 -22l14 -21l17 -22l18 -19l21 -20l18 -19l23 -18l24 -19l23 -16l26 -16l27 -15l27 -16l28 -12l31 -13l31 -12l31 -10l32 -10l33 -9l33 -8l35 -6l34 -6l37 -4l35 -4l37 -2h39l8 59l37 2l12 2h13l12 2h12l10 2h13l10 2l12 2l12 2l11 2l10 3l12 2l11 4l12 2 l10 2l10 4l11 2l10 4l10 4l12 2l11 4l8 4l10 4l10 5l10 4l11 4l8 4l8 4l-20 29l-5 -2l-8 -5l-10 -4l-10 -4l-8 -4l-11 -2l-10 -4l-10 -2l-10 -4l-11 -2l-10 -4l-10 -2l-12 -2l-11 -4l-10 -2l-10 -3l-12 -2l-11 -2l-12 -2l-10 -2h-12l-11 -2l-12 -2h-10h-12l-13 -2h-10h-12 h-13h-12h-29l-30 2l-29 2l-29 4l-28 4l-27 5l-29 8l-26 6l-27 8l-24 8l-25 10l-25 11l-22 12l-23 12l-22 13l-21 12l-18 14l-21 17l-16 14l-18 16l-15 17l-14 18l-14 19l-13 18l-10 18l-10 21l-8 20l-8 21l-7 20l-2 21l-4 22v23v22l4 21l2 22l7 21l8 20l8 21l10 18l10 21 l13 18l14 19l14 16l15 16l18 17l16 16l21 14l18 15l21 14l22 12l23 13l22 10l25 12l25 8l24 11l27 8l26 6l29 6l27 6l28 4l29 5l29 2l30 2h29h29l28 -2l29 -2l27 -5l28 -4l27 -4l27 -6l24 -6l25 -8l24 -8l25 -9l23 -10l22 -10l23 -10l20 -13l21 -12l20 -14l18 -13l19 -14 l16 -16l17 -15l14 -16l14 -16l15 -19l10 -16l12 -19l8 -18l9 -21l8 -18l6 -20l4 -21l6 -55h70zM977 1077q68 0 132.5 -8t125.5 -22l-8 -58q152 -47 257 -140t136 -216h2h92l-39 -119h-340q2 6 2 18q0 41 -23.5 78t-64.5 64.5t-95 44t-116 16.5q-61 0 -115.5 -16.5t-94.5 -44 t-63.5 -64.5t-23.5 -78q0 -43 23.5 -79.5t63.5 -64.5t94.5 -44t115.5 -16q31 0 59.5 5t55.5 11q43 10 93 44t85 87l62 2q-12 -35 -41 -65.5t-63 -54t-65.5 -39t-49.5 -21.5q-23 -6 -51.5 -12t-69.5 -11l-4 -30q-4 -2 -15 -2q-82 0 -153.5 21.5t-127 58t-89 86t-37.5 104.5 q-4 78 35.5 134t101 93t134.5 54.5t136 17.5q66 0 135 -16l-4 -31q80 -23 135.5 -73t71.5 -116h2h176q-8 76 -55 141.5t-122 114t-174 76t-212 27.5q-117 0 -219 -31t-179 -83t-121 -121.5t-44 -149.5t44 -150.5t121 -123t179 -82t219 -29.5q92 0 175 18.5t153 53.5l53 -80 q-74 -41 -164 -65.5t-190 -29.5l-6 -61h-31q-154 0 -290 40t-240.5 108.5t-168 161.5t-71.5 200h-144v53h144q8 106 71.5 200.5t167 164t240.5 109.5t291 40z" />
<glyph unicode="A" horiz-adv-x="2265" d="M63 98v-98h351l37 53h356v45h-180q-45 16 -11 66l242 276h457l307 -342h-98v-57h131q27 0 36 -8t21 -23l8 -10h246l-4 41h244v57h-191l-919 979l-168 -184l-21 8l-145 -160h139l68 72l194 -209q18 -14 -6 -20h-424l-53 -74h-125l-367 -412h-125zM1202 592l-2 8l-2 6l-2 6 l-2 4l-4 5l-2 2l-2 2l-217 233l-82 -86h-56l82 92l21 -10l162 178l889 -944v-16h-56l2 -41h-196l-2 2l-2 2v2h-2l-3 2v2l-2 2l-2 2l-2 2l-2 2l-2 2l-2 2l-2 2h-2l-2 2l-4 2l-2 2l-2 2h-4l-2 3h-4l-2 2h-5l-2 2h-4h-4h-4l-2 2h-4h-4h-4h-2v39l-326 360h-481l-254 -289l-4 -6 l-2 -4l-2 -4l-2 -4l-2 -2l-2 -4v-4l-3 -4v-5l-2 -4v-2l-2 -4v-4v-6v-4l2 -4v-4l2 -4l3 -5l2 -4l2 -4l2 -4l2 -2l4 -4l2 -2l2 -2h-158l-37 -51h-307v39h111l366 409h127l54 74h411l8 2l5 2l4 2l4 2l6 2l4 6l4 6l4 9z" />
<glyph unicode="B" horiz-adv-x="2308" d="M694 111l8 -2l11 -3l8 -4l8 -2l8 -2l8 -2l9 -2l8 -2l8 -2l8 -2l8 -2l9 -2h8l10 -2l10 -2l11 -2h10l10 -2l12 -2h13l12 -2h14l15 -2h16h16h19l18 -2h21h20h25h24h25h26l29 2l29 2l29 4l28 2l29 4l31 4l28 4l31 6l31 6l28 7l29 6l29 6l28 8l29 8l27 8l26 9l25 10l24 10 l23 10l23 11l20 10l18 12l19 12l16 13l15 14l12 14l10 15l8 16l6 18l2 19v8l-2 8v8l-2 9l-2 6l-2 8l-2 6l-4 8l-2 7l-4 6l-4 6l-4 6l-4 6l-4 4l-4 6l-5 4l-4 5l-4 6l-6 4l-4 4l-4 2l-6 4l-4 4l-4 4l-7 2l-4 4l-4 2l-4 2l-4 2l-4 5l-4 2l-4 2l-6 2l-7 2l-4 2l-4 2l-4 2l-4 2 l-4 2l-4 2h-2l-4 2l-2 2h-4l-2 2l-5 2h-2l-2 2h-4l-2 2h-4l-2 2l-2 2h-4l-2 2l-4 3h-4l-2 2l-9 2l-4 2l-4 2l-6 2l-10 4h-21h-16h-18h-21h-22h-23h-27h-26h-29h-29h-30h-33h-31h-33h-32h-35h-33h-33h-34h-33l-33 -2h-33h-30h-31h-29h-29h-26h-27h-24h-23h-20h-50v-428z M1892 487l6 -4l9 -4l6 -4l8 -4l6 -6l6 -4l6 -4l7 -4l6 -4l4 -7l6 -4l4 -4l4 -6l6 -4l4 -4l5 -4l4 -4l2 -6l4 -5l2 -4l4 -4l2 -4l2 -6l2 -4l2 -4l2 -4l2 -4v-5l2 -4v-2v-41l-4 -12l-4 -12l-8 -15l-10 -14l-13 -12l-14 -14l-16 -15l-21 -14l-20 -12l-23 -15l-27 -12l-26 -12 l-27 -13l-30 -10l-31 -12l-33 -10l-35 -11l-35 -8l-34 -10l-37 -8l-39 -6l-37 -9l-39 -6l-39 -4l-41 -4l-39 -4l-39 -4l-41 -2l-39 -2h-38h-39h-41h-6h-11h-8h-12l-10 2h-15h-12l-14 -2h-17h-16h-17h-18h-18h-21h-20h-21h-22h-23h-24h-25h-25l-26 -2h-25h-28h-27h-29h-28 h-31h-29h-31h-30h-2v49h-322v6h107h6l4 2h4l6 2l4 2l4 2l2 2l4 2l5 4l4 2l2 2l4 5l2 2l4 4l2 2l4 4l2 4l2 4l4 2l2 4l2 4l2 4l2 5l2 4l3 4l2 4v4l2 4v4l2 4v6v4v756v2v6l-2 4v5l-2 4l-2 2l-3 4l-2 4l-2 2l-2 4l-2 2l-2 4l-2 2l-4 4l-2 2l-2 2l-4 4l-2 3l-4 2l-2 2l-4 2l-4 2 l-3 2l-4 2l-4 2l-4 2l-4 2h-4l-4 2h-4l-6 2h-4h-146v16h803h6h6l6 2h7h6h6h6h6h6h6h7h4h6h6h6h6h6h7h6h6h6h6h6h4h6h7h6h6h6h8h4h6l13 -2h8h12h8h11h10h10h10h11h10l10 -2h10h11h8l10 -2h10h11l8 -2h10h10l10 -2h9h10l10 -2h8l11 -2h8l10 -2h2l-6 -33l-27 4l-35 2l-34 3 l-35 2l-35 2h-35l-37 -2l-37 -2l-34 -3l-19 -2l-18 -2h-17l-16 -2l-16 -2l-17 -2l-16 -2l-17 -2l-16 -2l-14 -2l-17 -2l-14 -2l-16 -2l-15 -4l-14 -2l-14 -4l-17 -4l-14 -2l-14 -5l-15 -4l-14 -4l-14 -6l-13 -4l-14 -4l-14 -6l-15 -6l-14 -7l-12 -6l-15 -6l-14 -8l-12 -8 l-29 -17v-290l1131 -2l8 2l6 2l4 2l4 2h4l4 2l4 2l4 2l5 2l4 2l4 2h2l4 2l4 4h4l2 2l4 4l2 2l4 2l2 2l2 2l5 3l2 4l2 2l4 2l12 -4l-2 -2l-2 -2h-2l-2 -3l-2 -2h-2l-2 -2l-2 -2h-4l-3 -2l-2 -2h-4l-2 -2l-2 -2l-4 -2l-67 -37l73 -20l4 -2h2l5 -2h2l4 -2h4l2 -2h4l2 -2l4 -3h4 l4 -2l2 -2h4l4 -2l5 -2l4 -2l2 -2h4l4 -2l4 -2l4 -2l4 -2l4 -2l4 -2l4 -2l5 -2l4 -2l4 -2l4 -2l4 -2l8 -4zM1559 954h2l18 -6l18 -6l19 -6l18 -6l17 -6l16 -6l16 -7l15 -6l16 -8l15 -6l12 -8l12 -6l12 -9l13 -8l10 -8l10 -6l10 -8l9 -9l8 -8l6 -8l6 -6l6 -8l4 -8l15 -27 l22 2h58l-9 -12h-106l-2 8l-4 16l-6 17l-9 16l-12 14l-12 15l-15 12l-14 12l-18 13l-19 12l-20 10l-21 12l-22 11l-25 8l-24 10l-27 8zM690 516h121t160 1t176 1h174h145h101l32.5 -13t23.5 -9t23.5 -10.5t34.5 -14.5q14 -8 32 -19.5t33 -27.5t25.5 -37.5t10.5 -48.5 q0 -51 -73 -95t-180.5 -76t-229 -50.5t-222.5 -18.5q-98 0 -155.5 3t-94 8.5t-65.5 13.5t-72 18v375zM584 854q106 61 216.5 82.5t252.5 34.5q143 12 277 -3.5t237.5 -48t166 -78.5t62.5 -96q0 -16 -2 -22h156l47 74h-115h-2q-39 78 -168 136t-315 87l8 35q-147 18 -318 18 q-49 0 -96 1t-96 -1h-832v-78h175q20 0 40.5 -19.5t18.5 -33.5v-754q0 -23 -20.5 -47t-38.5 -24h-136v-68h322v-49q129 0 238.5 1t196.5 2t147 1q61 0 90 -2q104 -4 212.5 5t212 27.5t195.5 46.5t163 63.5t115 77.5t52 89h178v49h-178q-10 41 -48 84t-108 78q-76 39 -123 53 q23 10 43.5 22.5t30.5 39.5l-72 29q-23 -37 -88 -58h-1097v246z" />
<glyph unicode="C" horiz-adv-x="2351" d="M1167 575l4 3l3 2l4 2l4 2l6 4l4 2l4 2l6 2h4l6 2l7 2l6 2l6 2h6l6 2h6l6 2h9h6l6 2h8h6h8h9l8 -2h8h6l8 -2l9 -2h6l6 -2l8 -2l6 -2l6 -2l6 -2l5 -2l6 -4l4 -2l6 -2l4 -2l4 -5l4 -2l2 -4l4 -2l2 -2l2 -4l3 -2l2 -2v-2l2 -2v-2l2 -2v-2v-2v-2v-2l-2 -2v-2l-2 -2v-3l-2 -4 l-3 -2l-2 -2l-2 -4l-4 -2l-2 -2l-4 -4l-4 -2l-4 -2l-6 -4l-4 -2l-6 -2l-5 -2l-6 -4h-6l-6 -2l-8 -3l-6 -2l-6 -2l-9 -2h-8l-6 -2h-8h-8h-9h-8h-6h-8h-6h-6l-7 2h-8h-6l-6 2l-6 2h-6l-4 2l-7 3l-6 2l-6 2l-4 2l-4 2h-6l-4 4l-4 2l-4 2l-5 2l-2 2l-4 2l-2 4l-4 2l-2 2l-2 2 l-2 2l-2 2v2l-2 2v25l2 2l2 2v2l4 2l2 2l2 2l2 4zM623 901l39 17l36 14l41 16l41 13l43 14l45 10l45 12l48 11l47 8l49 8l49 6l51 6l51 4l54 4h53l53 3h2h2h2h2h2h2h2h2l11 -62h41l16 -2h14l17 -2h14l16 -2h17l14 -2l15 -2l16 -2h14l15 -2l14 -2l14 -2l17 -2l14 -4l14 -3 l15 -2l12 -4l14 -2l15 -2l14 -4l12 -4l15 -2l14 -4l12 -4l12 -2l15 -4l12 -4l12 -5l13 -4l12 -4l6 -2l6 -4l6 -2l9 -2l6 -2l6 -2l6 -4l6 -2l8 -4l7 -2l6 -4l8 -3l6 -4l8 -4l8 -4l7 -4l8 -2l8 -6l8 -4l8 -4l8 -4l11 -4l8 -7l8 -4l10 -6l11 -4l8 -6l10 -6l10 -6l-33 -33l-8 4 l-10 6l-10 6l-8 4l-9 6l-10 5l-8 6l-8 4l-8 4l-9 6l-10 4l-6 4l-8 4l-8 4l-9 5l-8 4l-6 4l-8 2l-6 4l-8 4l-7 2l-8 4l-6 2l-6 4l-8 2l-6 2l-7 4l-6 2l-6 3l-6 2l-12 4l-15 4l-12 4l-12 4l-12 4l-15 2l-12 4l-14 2l-13 4l-14 2l-12 2l-15 5l-14 2l-14 2l-15 2l-12 2l-14 2 l-17 2l-14 2l-14 2h-15l-14 2h-14l-17 2l-14 2h-16h-15h-14l-16 2h-15h-16h-17h-41l-41 -2l-40 -2l-41 -4l-39 -4l-41 -6l-37 -6l-37 -7l-37 -8l-35 -8l-35 -10l-34 -10l-33 -11l-31 -12l-31 -12l-28 -15l-27 -14l-26 -14l-27 -15l-23 -16l-22 -16l-21 -17l-18 -18l-19 -19 l-16 -20l-12 -19l-12 -20l-13 -21l-6 -22l-6 -23l-4 -22l-2 -23l2 -22l4 -23l6 -22l6 -23l13 -20l12 -21l12 -20l16 -19l19 -18l18 -18l21 -17l22 -16l23 -17l27 -16l26 -14l27 -15l28 -12l31 -12l31 -13l33 -10l34 -10l35 -10l35 -8l37 -9l37 -8l37 -6l41 -4l39 -4l41 -4 l40 -2l41 -2h41h23h22h21l22 2h21l20 2l21 2l20 2l21 2l20 2l21 2l20 4l21 2l18 4l21 4l18 4l19 5l18 4l18 4l19 4l16 6l19 4l16 6l18 6l17 6l16 5l17 6l14 6l16 8l15 6l16 6l14 9l7 2l6 4l6 4l6 2l6 2l4 4l6 2l7 4l4 2l6 4l4 2l6 2l4 4l4 2l6 5l4 4l5 2l6 4l4 4l4 2l4 4 l6 4l4 4l4 4l4 4l4 5l5 4l4 6l6 4l2 4h90l27 -57h-111l-14 -9l-4 -4l-5 -4l-4 -2l-4 -2l-2 -2h-2l-2 -2h-2l-2 -2h-2l-4 -2h-2l-4 -2l-6 -2l-4 -2l-7 -4l-6 -2l-8 -4l-8 -5l-10 -6l-11 -4l-12 -6l-8 -4l-8 -4l-8 -4l-7 -4l-8 -4l-8 -4l-8 -3l-8 -4l-11 -4l-8 -4l-8 -2l-8 -4 l-10 -2l-9 -4l-8 -4l-10 -2l-8 -4l-11 -2l-8 -4l-10 -3l-10 -2l-8 -4l-11 -2l-10 -4l-8 -2l-10 -2l-11 -2l-10 -4l-10 -2l-10 -2l-10 -2l-39 -8l10 -56h-2l-10 -2h-11l-12 -2l-10 -2l-10 -2h-13l-10 -2l-12 -2h-11l-10 -2h-12l-10 -2h-13l-10 -2h-12l-10 -2h-13h-12l-10 -2 h-12h-13h-10l-12 -2h-13h-10h-12h-12h-13h-12h-53l-53 2l-54 4l-51 4l-51 6l-51 6l-49 8l-48 9l-47 10l-45 10l-45 12l-43 15l-41 14l-41 14l-39 17l-36 16l-35 17l-33 18l-33 18l-28 19l-29 20l-27 21l-22 22l-23 21l-18 22l-19 21l-14 22l-12 25l-11 22l-8 23l-6 23l-4 24 v47l4 25l6 22l8 23l11 22l14 23l14 22l19 23l18 22l23 21l24 20l25 21l29 20l28 19l33 18l33 19zM1120 522q14 -31 61.5 -51t108.5 -20q72 0 124 26.5t52 67.5q0 39 -52 66.5t-124 27.5q-63 0 -111.5 -21.5t-58.5 -54.5h-119v-41h119zM1368 0q195 0 367 31l-11 55 q168 37 299 102q49 27 65.5 33t19.5 8t6.5 4.5t27.5 18.5h150l-56 119h-122q-33 -41 -65 -61.5t-83 -47.5q-111 -55 -260.5 -87t-323.5 -32q-166 0 -312 30t-255.5 82t-173 123t-63.5 150q0 80 63.5 150t173 122t256 82.5t311.5 30.5q123 0 236 -15t209 -48 q47 -16 106.5 -48t141.5 -79l75 80q-92 53 -151.5 84t-112.5 49q-203 70 -465 80l-10 61h-43q-219 0 -413.5 -40t-343 -109.5t-238.5 -161.5t-103 -199h-207v-53h207q10 -109 100.5 -202t239 -162.5t343 -109.5t415.5 -40z" />
<glyph unicode="D" horiz-adv-x="2191" d="M1184 438h12q66 0 114 28t48 66q0 41 -48 68t-114 27h-12v-189zM63 1077v-71h113q29 0 62.5 -26t33.5 -67v-784q0 -18 -12 -22.5t-20 -4.5h-129v-47h311v-51h426h217q33 -4 65 -4h68q10 2 18.5 1t18.5 1l8 59q125 4 236.5 30t203.5 67l-65 78q-86 -35 -189.5 -53.5 t-218.5 -18.5h-505v459h-119v311h614h10q145 0 272.5 -31t222.5 -83t150.5 -121.5t55.5 -149.5v-19q0 -8 -2 -16h155l50 119h-117h-2q-39 123 -169 216t-319 140l11 55q-76 16 -155 25.5t-165 7.5h-1135zM1274 584l6 -4l4 -2l6 -3l4 -2l4 -2l5 -4l4 -2l2 -2l4 -2l2 -4l2 -2 l2 -4l2 -2l2 -2v-2l2 -2v-2v-4l2 -2v-3v-2l-2 -2v-2v-2l-2 -2v-2l-2 -4l-2 -2l-2 -2l-2 -4l-2 -2l-4 -2l-2 -4l-4 -2l-5 -2l-4 -2l-4 -5l-6 -2l-4 -2l-6 -2l-4 -2l-6 -2l-7 -2l-6 -2h-6l-6 -2l-8 -2h-6h-8h-3v125h3h8l6 -2h8l6 -2l6 -2h6l7 -2l6 -2zM1583 190l12 5l11 4h2 l26 -31l-8 -2l-12 -4l-12 -6l-13 -4l-12 -5l-12 -4l-15 -2l-12 -4l-12 -4l-15 -4l-12 -2l-12 -4l-14 -2l-15 -4l-12 -2l-14 -2l-15 -2l-14 -5l-14 -2l-15 -2h-14l-14 -2l-15 -2l-14 -2h-14l-15 -2h-14l-17 -2h-40l-9 -61h-2h-2h-2h-2h-2h-4h-4h-4h-4h-4h-4h-7h-2h-6h-2h-6 h-2h-6h-4h-4h-5h-4h-4h-2h-6h-4h-2h-4l-4 2h-4h-4h-5h-4h-4h-4h-4h-4h-614v53h-168v2l4 2l2 2l2 4l2 2l2 4l2 4v5l2 2l2 4v4v4v4v784v7v8l-2 6l-2 6l-2 8l-2 4l-2 6l-4 7l-2 6l-4 6l-4 4l-5 4l-4 6l-4 4l-4 4l-4 5l-4 2l-6 4l-4 4l-4 2l-7 4l-4 2l-6 2l-4 2l-6 2l-4 2l-6 2 h-4l-6 2h-5l-6 2h-4h-86v11h1108h10h11h10h8h10h11l10 -3h10h10h10l11 -2h10h8l10 -2h11l10 -2h8l10 -2h11l8 -2h10l10 -2l10 -2l9 -2h10l8 -2l10 -2l11 -2h8l-8 -55l49 -13l22 -6l21 -6l22 -8l21 -6l20 -8l21 -9l18 -8l21 -8l18 -10l16 -8l19 -11l16 -10l17 -10l16 -10 l16 -13l15 -10l14 -12l12 -10l15 -13l12 -12l10 -12l12 -13l11 -12l8 -12l10 -15l8 -12l7 -12l8 -14l6 -15l4 -12l12 -39l27 4h67l-22 -59h-102v2v2v2l-3 22l-2 23l-6 20l-6 23l-8 20l-10 21l-13 20l-14 19l-14 18l-19 19l-18 16l-19 16l-20 17l-23 16l-22 15l-25 14l-24 12 l-27 12l-29 13l-28 12l-29 10l-31 8l-30 11l-31 8l-33 6l-35 6l-32 6l-35 4l-35 5l-37 2l-35 2h-37h-2h-2h-2h-2h-2h-2h-31v-2h-612v-371h117v-459h536h17h14h14l15 2h12h14l15 2h14l14 2l15 2h12l14 2l15 2l12 2l14 3l13 2l12 4l14 2l13 2l12 4l12 2l14 4l13 2l12 4l12 2 l11 4l12 4z" />
<glyph unicode="E" horiz-adv-x="2031" d="M864 666h-284v206h1028q10 0 26.5 -7t31.5 -17t25.5 -21.5t10.5 -19.5l2 -39h53v246l-780 -2q-33 2 -44 17t-11 48h-859v-135h160q16 -2 34.5 -24.5t21.5 -40.5v-302v-378q-2 -20 -20.5 -43t-35.5 -25h-121v-59h289v-70h1428l49 59h108v246h-53v-41q0 -8 -11 -19.5 t-26.5 -21.5t-32 -17t-26.5 -7h-1194v307h411l3 112h-132q-18 2 -34.5 13.5t-16.5 34.5zM1939 231l5 5l2 4v2v-152h-93l-49 -59h-1382v69h-168v9l2 2l2 2l4 2l2 2l4 2l4 4l2 2l2 4l5 2l2 4l2 2l4 4l2 4l2 2l2 5l2 4l2 4v2l2 4l2 4l2 4v4l2 4v4v4v5v682v4v4v4l-2 4v4l-2 4 l-2 4l-2 4v4l-2 5l-2 4l-2 2l-2 4l-2 2l-4 4l-2 4l-2 2l-5 4l-2 2l-2 4l-4 2l-4 2l-2 4l-4 3l-2 2l-4 2l-4 2l-4 2l-4 2h-4l-5 2h-6h-133v74h801l2 -5v-4l2 -4l2 -4l2 -4l2 -4l2 -4l2 -4l2 -4l4 -2l2 -4l5 -5l4 -2l4 -2l4 -2l4 -2l4 -2l4 -2l4 -2h4h4l7 -2h4h4l6 -2l749 2 v-154v2l-4 5l-2 4l-4 4l-2 4l-4 4l-4 4l-4 2l-2 4l-4 2l-4 4l-4 2l-7 4l-4 3l-4 4l-4 2l-4 2l-4 2l-6 4l-4 2l-4 2h-5l-6 2l-4 2l-4 2h-6l-4 2h-4h-6h-1059v-268h291l2 -2l2 -4l2 -2l2 -4l2 -2l2 -5l4 -2l2 -2l4 -4l2 -2l2 -2l4 -2l2 -2l5 -2h2l4 -2l4 -2h2l4 -2h4l2 -2h4h4 h4h4h101v-53h-412v-369h1225h4l4 2h6l4 2h4l7 2l4 2l4 2l4 2l6 2l4 2l4 2l4 4l6 3l4 2l5 4l4 2l4 4l4 2l4 4l4 2l4 4l4 4l2 4l4 2z" />
<glyph unicode="F" horiz-adv-x="1871" d="M864 666h-284v206h1089q10 0 26.5 -7t32 -17t26.5 -21.5t11 -19.5v-39h54v246l-1319 -2q-33 2 -44.5 17t-11.5 48h-381v-110h160q16 0 34.5 -22.5t21.5 -43.5v-326v-444q-2 -20 -20.5 -31.5t-35.5 -13.5h-121v-51l177 2v-37h227v59h127v140v307h411l3 112h-132 q-18 2 -34.5 13.5t-16.5 34.5zM305 924l-2 4l-2 4l-2 2v4l-2 4l-2 4l-2 4l-2 2l-2 4l-4 2l-2 5l-2 4l-5 2l-2 4l-2 2l-4 2l-4 4l-2 2l-4 2l-2 2l-4 2l-4 2l-4 2l-4 2h-4l-5 2h-6h-133v50h324l2 -5v-4l2 -4l2 -4v-4l2 -4l2 -4l4 -4l2 -4l4 -2l2 -4l4 -5l4 -2l3 -2l6 -2l2 -2 l6 -2l4 -2l4 -2h4h4l4 -2h6h5l4 -2l1290 2v-154v2l-4 5l-2 4l-2 4l-4 4l-4 4l-5 4l-2 2l-4 4l-4 2l-4 4l-4 2l-4 4l-4 3l-6 4l-4 2l-5 2l-4 2l-4 4l-6 2l-4 2h-4l-6 2l-4 2l-4 2h-4l-7 2h-4h-6h-1120v-268h291l2 -2l2 -4l2 -2l2 -4l2 -2l2 -5l4 -2l2 -2l4 -4l2 -2l2 -2l4 -2 l2 -2l5 -2h2l4 -2l4 -2h2l4 -2h4l2 -2h4h4h4h4h101v-53h-412v-338v-109h-129v-59h-166v37h-45h4l2 2l4 2l2 2l3 2l4 2l2 4l4 2l2 2l2 4l2 2l2 4l2 4l4 4v2l2 7l2 4v4v4v4v772v4v6v4l-2 5v4z" />
<glyph unicode="G" horiz-adv-x="2336" d="M1350 0q193 0 358 33l-8 57q104 23 195.5 61.5t163 87t120.5 104.5t70 122q25 61 26 123h-499v-64h94v-57h266q-31 -70 -101.5 -127t-173 -100t-230.5 -66.5t-269 -23.5q-166 0 -308.5 30.5t-251 86t-170 129t-61.5 155.5q0 84 74 156.5t187.5 127t254 87t275.5 32.5 t227 -13t163 -34.5t127 -46t112 -49.5l73 80q-45 31 -121.5 61.5t-170 55t-191.5 40t-180 13.5l-12 63h-39q-217 0 -409.5 -42t-338 -114.5t-234.5 -169t-102 -206.5h-203v-55h203q8 -113 98.5 -210.5t235.5 -170t338 -114.5t412 -42zM614 940l37 18l39 15l39 16l43 15 l41 14l43 10l43 12l47 13l47 8l47 8l50 6l51 6l49 4l53 5h51l56 2h2h2h2h2h2h2l10 -64h47h21l22 -2l23 -2h22l23 -4l24 -2l21 -2l27 -4l22 -4l25 -4l22 -5l25 -8l20 -4l25 -6l22 -6l25 -4l20 -6l21 -9l22 -6l21 -8l22 -6l19 -6l18 -8l19 -7l16 -8l19 -6l14 -8l12 -8l4 -2 l-33 -35l-8 4l-12 6l-14 6l-13 6l-16 7l-12 6l-15 6l-16 6l-14 8l-15 6l-18 6l-14 5l-17 6l-18 6l-17 4l-18 6l-21 4l-18 8l-23 4l-20 5l-21 2l-24 4l-23 4l-26 2l-25 2l-28 2l-29 2l-29 2l-31 2h-30h-35h-35l-35 -2l-35 -2l-34 -4l-37 -4l-33 -6l-37 -6l-35 -7l-34 -10 l-35 -8l-33 -10l-35 -11l-31 -10l-32 -14l-33 -12l-29 -15l-31 -12l-28 -18l-25 -15l-26 -18l-25 -17l-22 -16l-21 -20l-18 -19l-21 -18l-14 -21l-15 -20l-14 -25l-8 -20l-6 -25l-4 -25l-2 -24v-23l4 -24l6 -23l6 -24l10 -21l15 -20l12 -21l16 -20l19 -21l16 -18l21 -17 l22 -18l23 -16l26 -15l25 -18l28 -12l29 -15l29 -14l33 -12l32 -11l31 -10l35 -12l35 -8l35 -8l38 -9l37 -4l39 -6l37 -4l41 -4l41 -4l41 -2h41h37h35l34 6l37 2l33 2l33 4l35 6l32 4l31 6l33 7l29 8l30 10l31 8l27 10l28 9l27 10l27 14l24 10l25 13l22 12l23 14l20 15 l23 12l18 14l17 19l18 14l16 16l13 19l16 16l10 19l11 18l30 64h-284v57h-95h433v-4l-3 -2v-4v-4l-2 -4v-2v-5l-2 -2v-4v-4l-2 -2v-4l-2 -6v-2l-2 -4v-2l-2 -4v-4l-2 -3v-4l-2 -4v-2l-4 -4l-4 -16l-6 -13l-6 -14l-9 -12l-8 -17l-10 -12l-10 -12l-11 -17l-12 -12l-12 -12 l-14 -12l-13 -15l-14 -12l-16 -10l-17 -13l-16 -12l-19 -12l-16 -10l-18 -11l-21 -10l-18 -12l-23 -8l-20 -11l-21 -8l-22 -8l-23 -10l-24 -8l-23 -9l-25 -6l-24 -6l-27 -6l-53 -14l8 -58l-10 -2h-10l-11 -2l-12 -2l-10 -2h-10l-11 -2l-12 -2h-10l-10 -2h-13l-10 -2h-12 l-10 -2h-11l-12 -2h-12h-10l-11 -2h-12h-12h-10l-13 -2h-10h-14h-11h-10h-12h-10h-56l-53 2l-51 4l-51 4l-49 6l-50 6l-49 8l-47 9l-45 12l-45 10l-45 12l-41 17l-41 14l-39 15l-39 14l-37 18l-32 19l-33 20l-33 19l-27 18l-28 23l-25 20l-24 23l-21 22l-20 23l-17 22 l-14 25l-14 22l-9 27l-8 22l-6 25l-2 25v49l2 26l6 23l8 27l13 22l12 25l14 22l17 23l20 22l21 21l24 24l25 21l28 20l27 21l33 20l33 17z" />
<glyph unicode="H" horiz-adv-x="1857" d="M63 1077v-71h97q23 0 51.5 -26t28.5 -67v-786q0 -18 -10.5 -23.5t-18.5 -5.5h-109v-45h263v-53h358q0 12 5 26.5t40 14.5h72v57h-66q-18 0 -42.5 11.5t-48.5 29t-40 39t-16 39.5v299h735v-418h115v-45h206v45h107v47h-107v680q-23 31 -48 54.5t-60 40t-86 24.5t-127 8 v-331h-844v456h-455zM678 104l6 -4l8 -4l6 -4l7 -2l8 -4l6 -4l6 -2l8 -2l6 -2l4 -2v-4l-4 -2l-4 -2h-6l-4 -3l-4 -2l-2 -2l-4 -4l-4 -2l-2 -4l-2 -2l-5 -4l-2 -4l-2 -2v-4l-2 -2h-301v51h-143l4 4l4 6l4 6l2 6l2 7l2 8v6v788v7l-2 6v8l-2 6l-2 6l-2 6l-2 6l-2 5l-2 6l-2 4 l-4 6l-4 4l-2 6l-4 4l-4 4l-5 4l-4 5l-4 2l-4 4l-4 4l-4 2l-4 2l-4 4l-6 2l-4 2l-5 2l-4 2h-6l-4 2h-6l-4 2h-4h-68v11h397v-457h904v332h4h16l17 -2h14l14 -2l12 -3l13 -2l12 -2l12 -2l11 -2l10 -2l8 -4l10 -2l8 -4l9 -2l8 -4l6 -4l8 -4l6 -4l6 -5l7 -6l6 -4l6 -4l6 -6 l4 -6l6 -4l6 -6l7 -9l4 -6l6 -6v-733h-148v47h-114v418h-797v-330l2 -8v-8l2 -8l4 -9l2 -6l4 -6l4 -8l4 -4l7 -8l4 -5l6 -6l6 -6l4 -6l6 -4l6 -6l9 -4l6 -4z" />
<glyph unicode="I" horiz-adv-x="804" d="M63 1077v-71h97q23 0 51.5 -26t28.5 -67v-786q0 -18 -10.5 -23.5t-18.5 -5.5h-109v-45h263v-53h268q0 12 5 26.5t40 14.5h72v57h-66q-18 0 -43 11.5t-48.5 29t-39.5 39t-16 39.5v404h-66v456h-408zM608 31h-213v51h-143l4 4l4 6l4 6l2 6l2 7l2 8v6v788v7l-2 6v8l-2 6 l-2 6l-2 6l-2 6l-2 5l-2 6l-2 4l-4 6l-4 4l-2 6l-4 4l-4 4l-5 4l-4 5l-4 2l-4 4l-4 4l-4 2l-4 2l-4 4l-6 2l-4 2l-5 2l-4 2h-6l-4 2h-6l-4 2h-4h-68v11h348v-457h68v-373v-8l2 -8l2 -8l2 -9l4 -6l2 -6l4 -8l6 -4l5 -8l6 -5l4 -6l6 -6l6 -6l6 -4l6 -6l6 -4l7 -4l6 -7l8 -4 l6 -4l6 -4l8 -2l7 -4l6 -4l8 -2l6 -2l6 -2l4 -2v-4l-4 -2l-4 -2h-4l-4 -3l-4 -2l-4 -2l-4 -4l-2 -2l-5 -4l-2 -2l-2 -4l-2 -4l-2 -2l-2 -4v-2z" />
<glyph unicode="J" horiz-adv-x="1691" d="M930 0q154 0 292 24.5t253 71.5q6 2 26.5 11.5t46 21.5t49 24.5t33.5 18.5v905q-127 0 -195.5 -21.5t-113.5 -60.5v-204h-55v-615q-76 -25 -164 -38t-184 -13q-137 0 -258 26.5t-211.5 72.5t-142.5 106.5t-52 130.5q0 8 1 15t1 16h-147l-46 -103h109h2 q37 -109 160 -190.5t301 -122.5l-8 -49q72 -12 147.5 -19.5t155.5 -7.5zM1296 154v606h54l2 221l4 4l6 4l6 4l4 4l6 2l6 5l7 4l6 2l8 4l6 2l8 4l6 2l9 2l8 2l8 2l10 2l8 4h11l10 2l10 2l10 2h13l12 2h12l13 2h14h12l14 3v-857l-2 -2l-4 -2l-6 -2l-4 -2l-6 -4l-6 -2l-6 -4 l-6 -2l-7 -4l-6 -2l-6 -4l-6 -2l-6 -4l-6 -2l-6 -5l-7 -2l-6 -4l-4 -2l-6 -2l-4 -2l-6 -2l-4 -2l-4 -2l-2 -2l-5 -2h-2h-2v-2l-14 -4l-14 -6l-15 -4l-14 -7l-14 -4l-17 -4l-14 -6l-16 -4l-15 -4l-16 -4l-17 -4l-16 -4l-16 -2l-17 -5l-16 -2l-16 -4l-17 -2l-18 -4l-17 -2 l-18 -2l-17 -2l-18 -2l-18 -2l-17 -2l-18 -2h-19l-18 -2h-18l-19 -2h-18h-19h-18h-10h-11h-10h-8h-10h-11l-8 2h-10h-10h-8h-11l-8 2h-10h-10l-9 2h-10l-8 2h-10l-8 2h-11h-8l-10 2l-8 2h-8l-11 2h-8l-8 2l-10 2h-4l6 47l-49 13l-21 6l-20 4l-21 6l-20 8l-19 6l-18 6l-19 9 l-18 8l-19 6l-16 8l-16 10l-17 9l-16 8l-14 10l-15 10l-14 8l-12 11l-15 10l-12 10l-10 10l-13 11l-10 12l-8 10l-10 10l-8 13l-9 10l-6 12l-6 10l-6 13l-4 12l-14 35l-25 -4h-61l20 45h94v-2l2 -21l2 -18l6 -21l7 -18l8 -21l10 -16l12 -18l13 -17l14 -16l16 -16l19 -15 l16 -14l21 -14l20 -15l23 -12l22 -12l25 -13l24 -10l27 -10l27 -10l28 -9l29 -10l29 -6l30 -8l31 -6l31 -4l33 -7l32 -4l33 -2l35 -2l35 -2h35h12h12h12h13l10 2h12h12l13 2h12l10 2h13l12 2h10l12 2l13 2l10 3h12l10 2l11 2l12 2l10 2l10 2l13 2l10 4l10 2l10 2l11 2l10 4 l10 2l10 2l11 4z" />
<glyph unicode="K" horiz-adv-x="1959" d="M63 1077v-71h97q23 0 51.5 -26t28.5 -67v-786q0 -18 -10.5 -23.5t-18.5 -5.5h-109v-45h263v-53h358q0 12 5 26.5t40 14.5h72v57h-66q-18 0 -42.5 11.5t-48.5 29t-40 39t-16 39.5v285l854 -422v-33h114v-47h207v47h107v74l-1000 493l439 228h61v28h-80v31h-268l-543 -280 v456h-455zM711 53l-2 -4l-2 -2l-5 -4l-2 -4l-2 -2v-4l-2 -2h-301v51h-143l4 4l4 6l4 6l2 6l2 7l2 8v6v788v7l-2 6v8l-2 6l-2 6l-2 6l-2 6l-2 5l-2 6l-2 4l-4 6l-4 4l-2 6l-4 4l-4 4l-5 4l-4 5l-4 2l-4 4l-4 4l-4 2l-4 2l-4 4l-6 2l-4 2l-5 2l-4 2h-6l-4 2h-6l-4 2h-4h-68v11 h397v-476l578 299h231v-20l-456 -238l1036 -510v-24h-104v-47h-148v47h-115v22l-915 451v-334l2 -8v-8l2 -8l4 -9l2 -6l4 -6l4 -8l4 -4l7 -8l4 -5l6 -6l6 -6l4 -6l6 -4l6 -6l9 -4l6 -4l6 -7l6 -4l8 -4l6 -4l7 -2l8 -4l6 -4l6 -2l8 -2l6 -2l4 -2v-4l-4 -2l-4 -2h-6l-4 -3 l-4 -2l-2 -2l-4 -4z" />
<glyph unicode="L" horiz-adv-x="1777" d="M877 1018h-320v59h-494v-71h177q20 0 40.5 -19.5t18.5 -34.5v-733q0 -23 -20.5 -48.5t-38.5 -25.5h-138v-67h326v-78h1100l55 66h121v274h-59l-3 -45q0 -10 -12 -22.5t-28.5 -23.5t-34 -19.5t-29.5 -8.5h-842v635q4 37 28 64.5t60 31.5h93v66zM776 981h-6l-6 -2h-6l-6 -2 l-4 -2l-7 -2l-6 -4l-4 -2l-4 -2l-6 -4l-4 -5l-4 -4l-4 -2l-4 -6l-5 -2l-4 -6l-2 -4l-4 -4l-2 -4l-4 -6l-2 -5l-2 -6l-2 -4l-2 -6l-2 -4l-2 -6l-2 -6v-4l-2 -7v-6l-2 -6v-668h872h6l4 3h6l5 2l6 2l4 2h6l4 4l6 2l4 2l6 2l4 2l5 4l6 2l4 4l6 2l4 4l4 4l4 2l4 5l4 4l7 4l4 2 l2 4l4 4l4 4l2 4l4 6l2 4l2 7l2 6v6v-197h-104l-56 -65h-1054v78h-326v6h109h4l6 2h4l4 2l4 2l4 2l4 2l4 2l5 4l4 2l2 2l4 4l2 2l4 4l2 5l4 2l2 4l2 4l4 4l2 4l2 2l2 4l2 4l3 4l2 4l2 4v5l2 4l2 6v4v4v4v735v4v5l-2 6v4l-2 2l-2 4l-2 4l-3 4l-2 2l-2 4l-2 2l-2 2l-2 4l-4 2 l-2 5l-2 2l-4 2l-2 4l-4 2l-2 2l-4 2l-4 2l-2 2l-5 2l-4 2l-4 2l-4 2h-4l-4 2h-6l-4 2h-4h-148v11h434v-60h322v-4h-66z" />
<glyph unicode="M" horiz-adv-x="2627" d="M1313 426l-226 223l-49 -49l-381 418h-104v57h-490v-71h175q20 0 40.5 -19.5t18.5 -34.5v-760q0 -23 -20.5 -47t-38.5 -26h-136v-66h162v-51h314l-3 41h115v573l453 -469h254l182 195h96l267 278v-540h-119v-27h119v-51h266v41h321v55h-135q-18 2 -38.5 26.5t-20.5 47.5 v745q0 14 19.5 34t39.5 20h176v71h-491v37h-123zM2363 991l-2 -2l-4 -2l-4 -2l-4 -2l-2 -2l-4 -2l-2 -2l-4 -4l-2 -2l-4 -2l-2 -4l-2 -2l-5 -2l-2 -5l-2 -2l-2 -4l-2 -2l-2 -4l-2 -4l-2 -4v-2l-2 -4l-2 -6v-4v-5v-745v-6v-4l2 -4v-4l2 -5l2 -6l2 -2v-6l2 -2l2 -4l2 -4l2 -4 l4 -4l3 -4l2 -5l4 -2l2 -4l2 -4l4 -2l2 -4l4 -2l4 -4l2 -2l4 -2l4 -2l2 -2v-6h-186v-39h-205v663l-309 -323h-96l-183 -195h-229l-493 514v-618l-115 -2v-39h-252v51h-162v4h107l6 2h4l4 2h6l4 2l4 4l2 2l4 2l5 2l4 2l2 5l4 2l2 4l4 2l2 4l4 4l2 2l2 4l4 4l2 4l2 4l2 4l2 5 l2 4l3 4v4l2 4l2 4v4l2 4v6v4v762v4v5l-2 4v4l-2 4l-2 4l-3 2l-2 4l-2 4l-2 2l-2 4l-2 2l-2 4l-4 2l-2 3l-2 4l-4 2l-2 2l-4 2l-2 4l-4 2l-4 2l-3 2l-4 2l-4 2h-4l-4 2l-4 2l-4 2h-4h-6h-4h-146v10h430v-57h121l395 -430l49 49l226 -223l655 664h80v-37h492v-11h-146h-4 l-4 -2h-4l-6 -2h-4l-5 -2z" />
<glyph unicode="N" horiz-adv-x="1931" d="M1489 1006v-580l-827 594h-160v57h-439v-71h177q20 0 40.5 -19.5t18.5 -34.5v-807q0 -23 -20.5 -47t-38.5 -26h-138v-72h596v41h148v55h-150v518l473 -333l54 59l350 -256v-84h170v41h127v838q-41 47 -80 72.5t-83 37.5t-96 14.5t-122 2.5zM1569 973h12h14h15l12 -2h12 l13 -2h10l12 -2l10 -2l11 -2l10 -5l10 -2l8 -2l11 -4l8 -4l10 -4l8 -4l10 -6l9 -6l8 -6l10 -7l8 -8l10 -8l9 -8l10 -10l8 -9l2 -4v-796h-127v-39h-108v67l-385 283l-54 -59l-499 352v-608h4v-25v-10h-537v10h109h4l6 2h4l4 2l4 2l4 2l4 2l4 2l5 4l4 2l2 2l4 5l2 2l4 4l2 4 l4 2l2 4l2 4l4 4l2 2l2 4l2 4l2 4l3 5l2 4l2 4v4l2 4l2 6v4v4v6v807v4v5l-2 6v4l-2 2l-2 4l-2 4l-3 4l-2 2l-2 4l-2 2l-2 2l-2 4l-4 2l-2 5l-2 2l-4 2l-2 4l-4 2l-2 2l-4 2l-4 2l-2 2l-5 2l-4 2l-4 2l-4 2h-4l-4 2h-6l-4 2h-4h-148v11h379v-58h182l867 -622v608h2h16h14z " />
<glyph unicode="O" horiz-adv-x="2344" d="M1055 1077q-92 0 -178 -8t-168 -22l10 -58q-102 -23 -189.5 -58.5t-156 -81.5t-115.5 -100.5t-68 -115.5h-2h-125l52 -121h170q-2 10 -2 18v19q0 80 59 149.5t162.5 121.5t241 83t294.5 31q156 0 295.5 -31t241.5 -83t162.5 -121.5t60.5 -149.5t-60.5 -150.5t-162.5 -123 t-241.5 -82t-295.5 -29.5q-123 0 -234.5 18.5t-205.5 53.5l-72 -80q102 -41 222 -65.5t256 -29.5l10 -61h39q207 0 391 40t323.5 108.5t225.5 161.5t96 200h195v53h-195q-10 106 -95 200.5t-224.5 164t-323.5 109.5t-393 40zM1229 553q-14 33 -61.5 53.5t-110.5 20.5 q-72 0 -123 -28t-51 -67t51 -66.5t123 -27.5q66 0 113 21.5t59 54.5h119v39h-119zM1204 37l-49 -4l-49 -2h-51h-2h-2h-2h-2h-3h-2l-10 61h-41h-18l-15 2l-16 2h-16l-17 2h-16l-14 2l-17 2l-14 2l-17 2l-14 3l-16 2l-15 4l-14 2l-16 2l-15 4l-14 4l-14 2l-15 4l-14 2l-14 4 l-13 4l-14 4l-14 5l-13 4l-12 6l-14 4l-10 2l28 31h6l13 -4l12 -5l12 -4l13 -4l14 -4l12 -2l15 -4l12 -4l14 -2l12 -4l15 -2l14 -2l14 -4l15 -2l14 -2l14 -3l15 -2l14 -2l14 -2l15 -2h16l15 -2h16l14 -2h15l16 -2h14h17h14h16h41l39 2l39 2l37 4l39 4l37 5l35 6l34 8l35 8 l35 8l33 10l31 11l30 10l31 12l29 13l26 14l27 12l24 17l23 14l23 16l22 17l19 16l18 18l16 19l15 18l14 21l10 20l10 21l9 22l6 23l2 22l2 23l-2 22l-2 23l-6 22l-9 21l-10 20l-10 21l-14 20l-15 21l-16 18l-18 17l-19 18l-22 16l-23 17l-23 14l-24 15l-27 14l-26 14 l-29 12l-31 11l-30 12l-31 10l-33 11l-35 8l-35 8l-34 6l-35 6l-37 6l-39 4l-37 5l-39 2l-39 2h-41h-39l-38 -2l-39 -2l-39 -5l-37 -4l-37 -6l-37 -6l-35 -6l-34 -8l-33 -8l-33 -11l-33 -10l-31 -12l-28 -11l-29 -12l-26 -14l-27 -14l-25 -15l-24 -14l-23 -17l-20 -16 l-21 -18l-18 -17l-17 -18l-14 -21l-12 -20l-12 -21l-11 -20l-6 -21l-6 -22l-4 -23v-22v-2v-2v-2h-117l-26 59h77l25 -2l14 35l6 14l7 15l8 12l8 14l8 12l10 13l11 12l10 14l12 13l12 12l15 12l14 13l14 10l15 12l16 10l17 11l18 12l16 10l21 10l18 8l19 11l20 8l21 10l22 8 l23 9l20 8l23 6l24 8l23 6l24 6l54 13l-11 55h2h11l10 2l10 2l10 2h11l10 2l10 2h10l11 2l10 2h10l10 2h13h10l10 2h10l11 2h12h10l10 2h13h10h10h12l11 3h12h10h10h13l51 -3h49l51 -4l47 -4l50 -6l47 -6l45 -8l45 -8l45 -11l43 -12l41 -12l41 -12l39 -15l39 -14l34 -17 l35 -16l33 -16l33 -19l28 -18l29 -19l27 -20l24 -21l23 -22l20 -21l19 -22l16 -21l12 -22l13 -25l10 -22l8 -23l4 -24l4 -23v-47l-4 -25l-6 -24l-8 -23l-8 -22l-13 -23l-14 -22l-16 -23l-19 -20l-20 -23l-23 -20l-24 -21l-27 -20l-29 -19l-28 -18l-33 -18l-33 -17l-35 -16 l-37 -17l-36 -14l-39 -14l-41 -13l-41 -12l-43 -10l-43 -10l-45 -9l-47 -8l-48 -6l-47 -6zM1182 502l-4 -2l-4 -2l-5 -4l-4 -2l-4 -3l-4 -2l-6 -2l-4 -2l-6 -2l-4 -2l-7 -2h-6l-6 -2l-6 -2h-6l-6 -2h-8l-7 -2h-6h-8h-6h-6h-8h-9h-8l-8 2h-8l-6 2h-8l-7 2l-8 2l-6 2l-6 2 l-6 2l-6 2l-7 2l-4 2l-6 3l-4 4l-4 2l-4 2l-4 4l-4 2l-2 4l-2 2l-2 2l-2 4l-2 2l-3 2v2l-2 2v2v2v2v3v2v2l2 2v2l3 2l2 2l2 4l2 2l2 2l2 4l4 2l4 2l4 4l4 2l4 2l6 4l4 3l7 2l6 2l6 2l6 2l6 2l8 2l7 2h8l6 2h8l8 2h8h9h8h6h6h8l6 -2h7h6l6 -2h6l6 -2l6 -2h6l7 -2l4 -2l6 -2 l6 -2l4 -2l4 -3l4 -2l4 -2l4 -2l5 -2l4 -2l2 -4l4 -2l2 -2l4 -2l2 -2v-2l2 -2l2 -2v-2v-25v-2l-2 -2l-2 -2l-2 -2l-2 -4l-2 -2l-4 -2z" />
<glyph unicode="P" horiz-adv-x="2228" d="M1376 735q-12 27 -53 44.5t-94 17.5q-61 0 -105.5 -22.5t-44.5 -57.5t44 -57.5t106 -22.5q55 0 96 17.5t51 45.5h103v35h-103zM317 1040h-254v-34h115q27 0 61.5 -26t34.5 -67v-786q0 -18 -12 -23.5t-22 -5.5h-129v-45h313v-53h229v41h119v37h-119v543h-63v358h155 q84 0 169 1t167 1h160v-2q117 0 218.5 -20.5t178 -56.5t120.5 -84t44 -103t-44 -103.5t-120.5 -84t-178 -56t-218.5 -20.5q-182 0 -326 51l-53 -56q76 -29 165 -45t187 -18l9 -43h28q154 0 289 27.5t238.5 74.5t166 110.5t70.5 135.5h146v37h-144q-8 74 -69.5 137.5 t-164 110.5t-236.5 74.5t-285 29.5h-11h-934v-37zM1327 690l-4 -2l-2 -2l-4 -2l-4 -2l-4 -2h-4l-5 -2l-6 -2l-4 -2h-4l-6 -2h-4l-6 -2h-6l-4 -2h-7h-6h-6l-6 -2h-6h-6l-6 2h-7h-8l-6 2h-6l-6 2h-6l-4 2l-7 2l-6 2h-4l-6 2l-4 2l-4 2l-4 2l-4 2l-5 2l-2 4l-4 2l-2 2l-2 2 l-2 2l-2 3l-2 2v2l-2 2l-2 2v2v2v2v2l2 2l2 2v2l2 2l2 2l2 2l2 2l2 2l4 4l2 2l5 2l4 3l4 2l4 2l4 2l6 2l4 2h6l7 2l4 2h6l6 2h6l6 2h8h7h6h6h6h6h6h6h4l7 -2h6h4l6 -2l4 -2h4l6 -2l4 -2h5l4 -2l4 -2l4 -2l4 -2h4l2 -5h4l2 -2l2 -2l4 -2l2 -2v-2l2 -2l2 -2l3 -2v-20l-3 -2 l-2 -3l-2 -2l-2 -2l-2 -2l-2 -2l-4 -2zM979 442l-8 4l-13 3l-8 2l-10 4l-10 2l-10 2l-2 2l6 6l10 -4l8 -2l10 -2l11 -4l8 -2l10 -2l10 -2l10 -3l11 -2l10 -2l10 -2l10 -2l11 -2l10 -2l10 -2h10l13 -2l10 -2h10l12 -2h11l12 -2h10h10l13 -2h12h10h13h10h12h31h28l29 2l29 2 l26 4l27 4l29 4l24 4l27 7l25 6l24 6l23 6l24 8l21 8l22 9l21 10l18 10l19 10l18 10l16 11l17 12l14 12l14 13l13 12l12 14l10 15l8 14l9 14l6 17l4 16l2 16l2 17l-2 18l-2 17l-4 14l-6 16l-9 15l-8 16l-10 14l-12 13l-13 14l-14 12l-14 13l-17 10l-16 12l-18 10l-19 11 l-18 10l-21 8l-22 10l-21 6l-24 9l-23 8l-24 6l-25 6l-27 4l-24 6l-29 4l-27 4l-26 3l-29 2l-29 2l-24 2h-53h-21h-18h-21h-20h-21h-20h-21h-20h-21h-20h-21h-22h-21h-22h-21h-20h-23h-20h-21h-20h-23h-20h-21h-20h-18h-21h-20h-19h-20h-19h-49l-2 -420h66v-512v-8v-39h-168 v51h-170l2 2l2 4l2 2l2 2l4 4v2l2 4l2 4l2 5v4v4v4v2v788v7v8l-2 6v6l-2 8l-2 4l-4 6l-2 7l-4 6l-4 6l-2 4l-5 4l-4 6l-4 4l-6 4l-4 5l-4 4l-4 2h98v37h909l41 -3h37l37 -2l35 -4l35 -4l35 -4l32 -6l33 -6l33 -6l31 -8l30 -9l29 -8l29 -10l26 -10l27 -11l25 -12l24 -10 l23 -12l20 -13l21 -14l18 -12l16 -15l17 -14l14 -14l14 -15l11 -14l10 -14l8 -15l6 -14l6 -16l5 -15l2 -14v-31l-5 -14l-2 -16l-6 -15l-8 -14l-8 -15l-10 -16l-11 -14l-14 -15l-14 -14l-17 -12l-18 -15l-19 -14l-20 -12l-23 -12l-22 -13l-25 -12l-24 -10l-27 -10l-26 -11 l-29 -10l-31 -8l-31 -8l-30 -9l-33 -6l-33 -6l-35 -6l-32 -4l-37 -4l-35 -2l-37 -2l-37 -2h-37h-2l-8 41l-37 2h-12h-12h-13l-10 2h-12l-10 2h-13l-12 2l-10 2h-13l-10 2l-12 2l-10 2l-11 2l-12 2l-10 2l-10 2l-11 2l-10 2z" />
<glyph unicode="Q" horiz-adv-x="2344" d="M1229 522h119v41h-119q-12 33 -59.5 54.5t-112.5 21.5q-72 0 -123 -27.5t-51 -66.5q0 -41 51 -67.5t123 -26.5q63 0 110.5 20t61.5 51zM1055 0q131 0 253 16.5t230 46.5l68 -61h403v55h-88v31h-125l-51 49q152 70 244 167t102 210h195v53h-195q-10 106 -96 198.5 t-225.5 162t-323.5 109.5t-391 40h-39l-10 -61q-272 -10 -478 -96l72 -78q94 35 206 53t234 18q156 0 295.5 -37.5t241.5 -96t162.5 -126t60.5 -125.5q0 -59 -24.5 -103t-57 -77t-67.5 -53.5t-54 -32.5l-65 57h-297v-53h55v-28h51l56 -50q-80 -23 -169 -34t-188 -11 q-158 0 -295 30t-240.5 82t-162.5 123t-59 150v17q0 8 2 18h-170l-52 -119h125h2q20 -61 67.5 -115.5t116 -100.5t155.5 -82.5t190 -59.5l-10 -55q162 -31 346 -31zM1182 575l2 -2l4 -4l2 -2l2 -2l2 -2l2 -2l2 -2v-2v-25v-2l-2 -2l-2 -2v-2l-2 -2l-4 -2l-2 -2l-4 -4l-2 -2 l-4 -2l-5 -2l-4 -2l-4 -2l-4 -4h-4l-4 -2l-6 -2l-6 -2l-4 -2l-7 -3l-6 -2h-6l-6 -2l-6 -2h-6h-6l-7 -2h-6h-8h-6h-6h-8h-9h-8h-8l-8 2h-6l-8 2l-7 2l-8 2l-6 3l-6 2h-6l-6 4l-7 2l-4 2l-6 2l-4 4l-4 2l-4 2l-4 4l-4 2l-2 2l-2 4l-2 2l-2 2l-2 4l-3 3v2l-2 2v2v2v2v2v2v2l2 2 v2l3 2l2 2l2 2l2 4l2 2l2 2l4 4l4 2l4 5l4 2l4 2l6 2l4 4l7 2l6 2l6 2l6 2l6 2l8 2h7l8 2l6 2h8h8l8 2h9h8h6h6l8 -2h6h7l8 -2h6l6 -2h6l6 -2l6 -2l7 -2l4 -2h6l4 -2l6 -2l4 -2l4 -4l4 -2l5 -2l4 -2zM2060 514l-2 -10l-2 -12l-2 -13l-2 -12l-4 -12l-6 -13l-4 -12l-6 -12 l-7 -12l-6 -13l-8 -10l-8 -12l-8 -13l-8 -10l-11 -12l-10 -10l-10 -13l-12 -10l-13 -12l-12 -10l-12 -11l-15 -10l-14 -10l-14 -10l-15 -11l-16 -10l-14 -10l-17 -8l-18 -11l-17 -8l-18 -8l-59 -29l94 -88h106v-24h-272l-72 63l-28 -8l-15 -4l-12 -2l-14 -4l-15 -2l-12 -4 l-14 -2l-15 -4l-14 -3l-14 -4l-15 -2l-14 -2l-14 -2l-17 -2l-14 -2l-14 -2l-17 -2l-14 -2l-14 -2l-17 -2h-14l-17 -2l-16 -2h-14l-17 -2h-14h-16l-17 -2h-16h-15h-16h-16h-13h-10h-10h-12h-11h-12l-10 2h-10h-13h-10l-10 2h-12h-11l-10 2h-10l-10 2h-13l-10 2h-10l-10 2h-11 l-10 2l-10 2h-10l-11 2l-10 2l-10 2h-10l-11 2h-2l11 56l-54 12l-24 6l-23 6l-24 6l-23 9l-20 8l-23 8l-22 8l-21 8l-20 11l-19 8l-18 10l-21 10l-16 10l-18 11l-17 12l-16 10l-15 12l-14 11l-14 12l-15 12l-12 13l-12 12l-10 12l-11 12l-10 15l-8 12l-8 14l-8 13l-7 14 l-6 12l-14 37l-25 -2h-77l26 57h117v-2v-2v-22l4 -23l6 -22l6 -23l11 -20l12 -21l12 -18l14 -21l17 -18l18 -18l21 -17l20 -16l23 -17l24 -14l25 -16l27 -13l26 -14l29 -12l28 -13l31 -10l33 -10l33 -10l33 -8l34 -9l35 -8l37 -4l37 -6l37 -4l39 -4l39 -2l38 -2h39h13h12h12 h13h12l12 2h12h11l12 2h12l13 2h12l10 2h12l13 2l10 2h12l10 2l13 2l10 2l12 2l10 2l11 2l12 2l10 2l10 2l11 2l12 2l10 3l10 4l11 2l65 18l-106 94h-33v21h201l71 -64l25 15l6 2l6 4l6 4l9 4l6 6l8 4l8 6l8 4l11 7l8 8l10 6l8 8l10 6l9 8l8 9l10 10l8 10l8 8l9 11l8 12 l8 10l6 12l6 13l6 12l7 14l4 13l4 14l4 16l2 15l2 16v16l-2 19l-4 18l-6 19l-7 18l-10 19l-12 18l-12 18l-15 17l-16 18l-18 17l-19 18l-22 16l-21 17l-25 16l-24 15l-27 16l-26 14l-29 15l-29 12l-30 12l-33 12l-33 13l-33 10l-35 10l-34 8l-37 9l-37 6l-37 6l-39 4l-39 4 l-39 2h-41h-16h-14h-17l-14 -2h-16h-15l-14 -2l-16 -2h-15l-16 -2l-15 -2h-14l-14 -2l-15 -2l-14 -2l-14 -4l-15 -2l-14 -2l-14 -2l-15 -5l-12 -2l-14 -4l-12 -2l-15 -4l-12 -2l-14 -4l-13 -4l-12 -4l-12 -4l-13 -4l-6 -2l-28 30l10 4l14 4l12 5l13 4l14 4l14 4l13 4l14 4 l14 4l15 4l14 2l14 4l15 2l16 5l14 2l15 2l16 2l14 4l17 2l14 2l17 2h14l16 2l17 2h16l16 2h15l18 2h41l10 62h2h3h2h2h2h2l51 -3h49l49 -4l49 -4l47 -6l48 -6l47 -8l45 -8l43 -11l43 -12l41 -10l41 -14l39 -13l36 -16l37 -14l35 -17l33 -18l33 -17l28 -18l29 -21l27 -18 l24 -21l23 -22l20 -21l19 -22l16 -21l14 -22l13 -23l8 -22l8 -25l6 -22l4 -25v-49z" />
<glyph unicode="R" horiz-adv-x="2185" d="M1290 741q-10 25 -43 41.5t-80 16.5q-53 0 -89 -21.5t-36 -52.5q0 -29 36 -51.5t89 -22.5q47 0 81 17.5t44 42.5h84v30h-86zM299 1040h-236v-34h107q25 0 56.5 -26t31.5 -67v-786q0 -18 -11 -23.5t-20 -5.5h-118v-45h174v-53h243v41h197v37h-111v543h-61l2 358h143 q78 0 157 1t157 1h147v-2q106 0 198.5 -14.5t161 -44t110.5 -73.5t50 -104q4 -29 -9 -57.5t-41 -54t-66.5 -48t-81.5 -40.5q-45 -18 -93.5 -30.5t-92.5 -20t-79.5 -10.5t-56.5 -3q-78 2 -157.5 14.5t-143.5 34.5l-49 -53q70 -29 161 -46t167 -19l6 -41h26q35 0 85.5 6 t104.5 15t105 22.5t90 29.5q39 14 93.5 45t105.5 68t88 79t39 83h133v37h-133q-6 72 -64.5 131t-152.5 101t-218 65.5t-265 25.5h-11h-868v-37zM1710 483q-51 -35 -107.5 -58.5t-111.5 -38.5t-108.5 -24.5t-96.5 -15.5l27 -45q45 4 104.5 13.5t116.5 27.5l141 -213 q14 -10 8 -24.5t-41 -14.5h-81v-53h96v-37h463l-2 61h-129zM1247 702l-4 -2h-2l-2 -2l-4 -2l-4 -2h-2l-4 -2l-4 -2h-4l-3 -2h-6l-2 -2h-6l-4 -2h-4h-4h-6h-4l-4 -2h-7h-4l-6 2h-6h-4h-6l-4 2h-7l-4 2h-4l-6 2l-4 2h-4l-2 2l-4 2l-4 2l-4 2l-2 2l-5 3l-2 2l-2 2h-2l-2 2l-2 2 v2l-2 2v2h-2v2v2v2v2v2v2l2 2v2h2v2l2 2l2 2l2 2l2 2l2 3l5 2l2 2h4l4 2l4 2l2 2l4 2l4 2h6l4 2h4l7 2h4h6l4 2h6h6h4h7h4h4h6l4 -2h4h4l4 -2h4l4 -2h5l4 -2h4l2 -2l4 -2h4l2 -2l2 -2l4 -2h2l2 -2l2 -3l2 -2l2 -2h2l2 -2l3 -2v-2h2v-2v-16l-2 -2l-3 -2v-2l-2 -2h-2l-2 -2 l-2 -2zM1657 530l-12 -8l-13 -8l-14 -6l-12 -6l-11 -6l-12 -7l-12 -4l-10 -6l-11 -4l-8 -4l-10 -2l-10 -4l-11 -4l-10 -4l-12 -2l-10 -4l-13 -5l-12 -2l-12 -4l-12 -4l-13 -2l-14 -2l-12 -4l-13 -2l-14 -4l-12 -2l-15 -2l-12 -2l-14 -2l-13 -2l-12 -2l-12 -2l-12 -2h-13 l-12 -3l-10 -2h-13l-10 -2h-10h-10h-8h-9h-2l-6 41h-35h-8l-10 2h-10h-9l-10 2h-10l-10 2h-10l-11 3l-10 2h-10l-10 2l-13 2l-10 2l-10 2l-10 2l-11 2l-10 2l-10 2l-10 4l-11 2l-10 2l-10 4l-10 2l-11 2l-8 4h-4l6 7l6 -2l11 -3l8 -4l8 -2l10 -2l8 -2l11 -2l10 -2l8 -2 l10 -2l11 -2l10 -2l10 -2l8 -2l11 -2h10l10 -2l10 -2h10l11 -2h10l10 -2h10h11l10 -2h10h10h11l10 -2h10h6h6h7l8 2h8h6h10l9 2h8l10 2h10l10 2h11l10 2l10 2l12 2l11 2l12 2l12 2l10 2l13 2l12 4l12 2l13 4l12 2l12 4l13 5l12 4l12 4l12 4l13 4l12 4l10 6l12 4l11 4l12 7 l10 6l10 4l11 6l10 6l10 6l8 6l11 6l8 7l8 8l10 6l6 6l9 8l8 8l6 7l8 8l6 8l6 8l5 8l6 9l4 8l4 8l2 8l4 10l2 9v10l2 10v8l-2 11l-4 16l-4 16l-4 17l-8 16l-9 14l-8 15l-10 12l-12 12l-13 13l-12 12l-14 10l-15 10l-16 11l-14 10l-19 8l-18 8l-19 8l-18 7l-21 6l-20 6l-20 6 l-23 4l-23 6l-22 2l-25 4l-24 4l-25 3l-24 2l-27 2h-27l-18 2h-51h-19h-18h-19h-18h-18h-21h-18h-19h-20h-19h-20h-21h-18h-21h-20h-18h-21h-18h-21h-18h-21h-18h-19h-20h-19h-18h-18h-19h-16h-19h-47l-2 -420h62v-512v-8h-84v-39h-187v51h-41l2 4l7 4l4 6l2 8l2 7l2 8v6 v788v7v8l-2 6l-2 6v6l-2 6l-4 6l-3 7l-2 6l-4 4l-4 6l-4 4l-2 4l-4 4l-4 4l-4 4l-6 5l-4 4h94l-2 37h844l36 -3h35l33 -2l33 -4l32 -2l33 -4l31 -4l31 -6l28 -6l29 -6l29 -6l26 -9l27 -8l25 -8l24 -10l23 -11l22 -10l21 -10l20 -12l19 -11l16 -12l16 -12l15 -14l14 -13 l12 -14l11 -12l8 -15l8 -14l6 -14l4 -15l4 -14l2 -14v-31l-2 -8v-8l-4 -9l-2 -6l-4 -10l-6 -8l-6 -8l-8 -11l-7 -8l-10 -10l-8 -8l-10 -11l-13 -10l-10 -8l-12 -8l-12 -10l-11 -9l-14 -10l-12 -8l-13 -8l-14 -8zM1714 98v4l2 7v4v4l-2 4v6l-2 4l-2 4l-2 2l-2 4l-2 4l-2 2 l-2 3l-150 223l9 2l14 4l14 6l15 6l14 6l14 6l15 7l14 8l14 6l13 8l14 8h2l268 -409h119h-401v6l-2 31l4 2l4 2l4 4l4 2l2 4l4 4l2 4l2 4z" />
<glyph unicode="S" horiz-adv-x="2308" d="M1206 276h117v31h-117q-10 27 -57 43.5t-111 16.5q-72 0 -122 -21.5t-50 -52.5t50.5 -52.5t121.5 -21.5q61 0 107.5 16t60.5 41zM1036 0q199 0 376 21.5t313.5 58.5t222.5 86t102 106l193 -2v54h-195q-16 57 -102 106t-222.5 86t-312.5 57.5t-375 20.5q-20 0 -64 4 t-99.5 12t-115 22.5t-107.5 35t-79.5 48t-31.5 64.5q0 43 58 81t159.5 66.5t237.5 45t290 16.5q121 0 230.5 -10t201.5 -29l70 41q-98 23 -217 36t-250 15l-10 35h-39q-199 0 -375 -20.5t-312.5 -56t-222.5 -84t-104 -103.5h-193v-53h193q14 -66 60 -110t111 -72.5 t143.5 -44t158.5 -22.5t154.5 -9t134.5 -2q154 -2 291 -18.5t238.5 -44t160.5 -65.5t59 -81t-59 -82t-160.5 -68.5t-236.5 -46t-289 -16.5t-290 16.5t-237.5 46t-160 68.5t-58.5 82q0 4 5 20h-166l-52 -65h123h2q41 -68 180.5 -120t338.5 -79l-11 -31q80 -8 165 -12t175 -4z M1133 324l4 -2l6 -3l4 -2l4 -2l4 -2l4 -2h2l4 -2l2 -2l2 -2l5 -2v-2l2 -2v-12l-2 -2l-3 -2l-2 -2l-2 -2l-4 -3l-2 -2h-4l-4 -2l-4 -2l-4 -2l-4 -2l-4 -2l-7 -2h-4l-6 -2l-4 -2h-6l-6 -2l-6 -2h-6h-7l-6 -2h-6l-6 -2h-8h-6h-6h-9h-8h-8h-8l-6 2h-9l-8 2h-6l-8 2h-6l-6 2l-7 2 l-6 2h-6l-6 2l-6 2l-4 2l-6 2l-4 4l-5 2l-2 3l-4 2l-2 2l-2 2l-2 2l-2 2h-2v2l-2 2v2h2v2l2 2l2 2l2 2l2 2l2 2l4 2l2 2l5 2l4 2l6 2l4 2l6 3l6 2l6 2l6 2h7l6 2l6 2h8l6 2h8l9 2h6h8h8h8h9h6h6h8l6 -2h6h8l7 -2h6l6 -2h4l6 -2l6 -2h6zM442 922l27 10l29 10l28 10l31 11 l33 8l35 8l34 8l37 8l39 6l39 9l41 6l41 4l43 6l43 4l45 4l45 4l45 2l47 2l50 2l47 3h49h2h2h2h2h2h2h2h2l8 -27h-10h-39l-39 -2l-37 -2h-36l-37 -4l-37 -2l-35 -4l-33 -5l-35 -4l-32 -4l-31 -4l-31 -6l-31 -6l-28 -6l-27 -6l-26 -9l-27 -6l-23 -8l-24 -8l-21 -8l-20 -11 l-21 -8l-16 -10l-16 -10l-17 -10l-12 -13l-12 -10l-11 -14l-10 -13l-6 -14l-4 -16l-2 -17l2 -18l4 -19l8 -16l10 -14l13 -15l14 -12l14 -10l17 -12l16 -9l19 -10l20 -8l21 -8l20 -6l21 -9l22 -6l21 -4l22 -6l23 -6l22 -4l21 -4l22 -4l21 -2l20 -3l21 -4l18 -2l16 -2l17 -2 h16l15 -2h12h10h8h49l50 -2l47 -2l47 -2l47 -2l45 -4l45 -4l43 -4l43 -6l41 -7l41 -6l39 -6l39 -8l37 -8l34 -8l35 -9l31 -8l33 -10l28 -10l29 -11l25 -10l24 -10l23 -12l20 -11l19 -12l18 -12l14 -10l13 -13l10 -10l6 -12l6 -10l4 -9v-39l-2 -6l-6 -10l-8 -12l-10 -10 l-13 -13l-14 -10l-16 -12l-19 -13l-20 -10l-23 -10l-22 -12l-27 -11l-29 -10l-28 -10l-31 -10l-33 -8l-35 -9l-34 -8l-37 -8l-39 -8l-39 -6l-41 -7l-41 -6l-43 -6l-45 -4l-43 -4l-47 -4l-45 -4l-47 -2h-49l-48 -2h-49h-12h-10h-13h-10h-10h-10h-13h-10l-10 2h-12h-11h-10 h-10h-10l-13 2h-10h-10h-10l-11 2h-10l-10 2h-10h-10l-11 2h-10h-10l-10 2h-11h-2l6 20l21 -2l35 -4l35 -2l36 -2l37 -2l37 -2h39l39 -2l39 2h39l37 2l37 2l36 2l35 2l35 4l35 5l35 4l30 4l33 6l31 4l29 6l28 8l29 6l26 7l25 8l25 8l24 8l21 10l20 9l19 10l18 8l16 10l17 13 l12 10l12 12l11 14l8 13l8 16l4 14v17v16l-4 17l-8 14l-8 14l-11 13l-12 12l-14 10l-15 10l-16 11l-18 10l-21 8l-20 10l-21 8l-24 9l-23 8l-27 6l-26 8l-29 6l-29 6l-28 7l-31 4l-33 6l-32 4l-33 4l-35 4l-35 4l-37 2l-35 2l-38 2l-37 2l-39 2h-37h-25h-22h-25l-26 2h-27 h-29l-28 3l-29 2h-29l-28 4l-31 2l-29 2l-28 4l-31 4l-29 6l-26 4l-29 6l-27 9l-26 8l-25 8l-25 10l-22 10l-21 11l-20 12l-18 12l-17 15l-14 14l-15 16l-10 17l-10 16l-8 21l-10 40l8 25l6 10l8 11l10 10l13 12l14 10l16 13l19 10l20 12l23 10zM342 170l-6 2l-17 10l-16 13 l-12 10l-12 12l-11 14l-8 13l-8 16l-4 14v7h-119l-4 -7h59l21 2l14 -22l4 -6l6 -6l9 -9l6 -6l8 -6l10 -8l10 -6l11 -8l12 -6l12 -7l12 -6l15 -6z" />
<glyph unicode="T" horiz-adv-x="1669" d="M948 899h508q10 0 24.5 -7t29 -18.5t23.5 -23.5t9 -21v-38h49v251h-717q-23 -2 -29.5 6.5t-6.5 28.5h-664v-47h-111v-129h465v-57h99q23 0 53.5 -21.5t30.5 -56.5v-660q0 -16 -10.5 -19t-18.5 -3h-113v-41h271v-43h276q0 10 5 22.5t40 12.5h74v49h-68q-18 0 -43.5 9 t-49 23.5t-40 32t-16.5 33.5v340l-70 -2v379zM831 1020h5l2 -2l4 -2l4 -2h2h4l4 -2h2h4h2h4h4h2h687v-150l-2 4l-3 4l-4 4l-2 3l-4 4l-4 4l-4 2l-2 4l-4 4l-4 2l-4 4l-4 2l-4 2l-5 4l-4 2l-4 2l-4 2l-4 3l-6 2l-4 2l-4 2l-4 2h-4l-7 2h-4h-4l-540 2v-441l69 3v-312v-6l2 -8 l2 -8l4 -6l2 -7l4 -6l7 -6l4 -6l4 -4l6 -6l6 -4l6 -4l4 -7l9 -4l6 -4l6 -4l6 -4l8 -4l6 -2l6 -4l9 -4l6 -2l6 -2l8 -5l6 -2l6 -2h-2l-4 -2l-2 -2h-4l-4 -2l-4 -4l-2 -2l-4 -2l-2 -4l-2 -2l-2 -4l-2 -2v-2h-222v43h-139l2 4l4 6l2 8v6l2 6v662v6l-2 6v6l-2 7l-2 6l-2 6l-2 4 l-4 6l-2 4l-4 4l-2 6l-4 4l-4 5l-4 2l-2 4l-5 4l-4 2l-4 4l-6 2l-4 4l-4 2l-4 2l-4 2l-4 2l-7 2l-4 2h-4l-4 2h-6h-4l-4 2h-4h-70v56l-465 2l-2 69h113v46h606l2 -3l2 -4v-4l4 -2l2 -4l2 -2l2 -2l4 -4z" />
<glyph unicode="U" horiz-adv-x="1865" d="M1030 446q-55 0 -95 -21.5t-40 -49.5q0 -31 40 -51.5t95 -20.5q57 0 96 20.5t39 51.5q0 29 -39 50t-96 21zM1792 950q-113 0 -173 -18.5t-101 -52.5l2 -181h-50v-452q-78 -61 -206.5 -98t-282.5 -37q-113 0 -212 20.5t-177 54.5v670q4 37 22.5 64.5t49.5 31.5h77v66h-266 v59h-412v-71h148q16 0 33.5 -19.5t15.5 -34.5v-514q0 -88 53.5 -152.5t128 -108.5t154.5 -70.5t135 -38.5l-6 -43q125 -25 266 -25q160 0 302.5 30.5t251 85t174 126t71.5 153.5zM1634 905l8 2l9 2l8 2l8 2h10l11 2h8l12 3h10l11 2h12h12h8v-523l-4 -16l-4 -16l-4 -19 l-8 -16l-8 -19l-13 -16l-12 -16l-12 -17l-17 -16l-16 -17l-18 -16l-21 -14l-20 -15l-23 -14l-25 -14l-26 -13l-27 -12l-26 -12l-29 -13l-31 -10l-31 -10l-32 -8l-33 -10l-33 -7l-35 -8l-36 -6l-35 -4l-37 -4l-39 -4l-37 -2l-39 -2h-39h-8h-10h-8h-9h-8h-8h-8l-8 2h-9h-8h-8 h-8l-10 2h-9h-8l-8 2h-8l-8 2h-6h-11l-6 2h-8l-8 2h-8l-9 2h-8l-8 2l-6 2h-2l6 41l-41 10l-14 4l-17 5l-16 4l-16 4l-19 6l-18 6l-19 6l-18 6l-19 9l-20 8l-19 8l-18 8l-18 10l-19 9l-18 12l-17 10l-18 12l-16 11l-15 12l-14 14l-15 12l-12 15l-12 14l-10 14l-11 17l-8 16 l-6 17l-4 16l-4 16l-4 19v20v512v4v5l-2 4v4l-2 4v2l-2 4l-2 4l-2 2l-2 4l-3 2v4l-2 2l-4 2l-2 5l-2 2l-2 4l-2 2l-4 2l-2 2l-4 4l-2 2l-4 2l-2 2l-4 2l-4 2h-5l-4 2l-4 2h-4l-4 2h-4h-119v11h352v-60h267v-4h-49l-7 -2h-6l-4 -2h-6l-4 -2l-6 -4l-4 -2l-4 -2l-7 -4l-4 -2 l-4 -5l-2 -2l-4 -4l-4 -4l-4 -4l-2 -4l-4 -4l-2 -6l-4 -4l-2 -4l-3 -7l-2 -4l-2 -4l-2 -6l-2 -4v-6l-2 -4l-2 -6v-7v-4l-2 -6v-6v-692l29 -12l10 -4l10 -5l11 -4l12 -6l10 -2l12 -4l11 -4l12 -4l12 -2l10 -4l13 -4l12 -2l12 -3l13 -4l14 -2l12 -2l12 -2l13 -2l14 -2l12 -2 l15 -2l12 -2l14 -2h15l12 -2h14h15l14 -2h14h15h14h18h21l18 2h21l18 2l19 2l18 2l19 2l18 2l18 2l17 4l18 4l17 2l16 5l18 4l17 6l16 4l15 4l16 6l14 4l17 6l14 7l14 6l13 6l14 6l12 8l15 6l12 8l12 7l10 8l13 8l22 16v439h49l-2 196l4 4l4 2l7 4l4 5l4 2l6 4l6 2l4 2l6 4 l6 2l7 2l6 2l8 2l6 2zM1030 416h6h6h7h6l6 -2h4l6 -2h6l4 -2h4l7 -2l4 -2l4 -3h4l4 -2l4 -2l4 -2l2 -2l2 -2l4 -2l2 -2l2 -2l2 -2v-2h3l2 -2v-2v-2v-2v-2v-2v-2l-2 -2l-3 -2l-2 -3l-2 -2l-2 -2l-4 -2l-2 -2l-2 -2l-4 -2l-4 -2l-4 -2h-4l-4 -2l-4 -2l-7 -2h-4l-4 -2l-6 -2h-6 l-4 -2h-6h-6h-7h-6l-6 -2l-6 2h-6h-6h-6h-5l-6 2h-6l-4 2l-6 2h-4l-6 2l-4 2l-4 2h-5l-4 2l-4 2l-2 2l-4 2l-2 2l-4 2l-2 2l-2 2l-2 3l-2 2v2l-2 2v2v2v2v2l2 2v2h2v2l2 2l2 2l2 2l4 2l2 2l4 2l2 2l4 2l4 2h5l4 3l4 2l6 2h4l6 2h4l6 2h6l5 2h6h6h6h6z" />
<glyph unicode="V" horiz-adv-x="2365" d="M1016 494l-377 419q-33 49 12 64h187v47h-371l-39 53h-365v-100h132l380 -410h132l55 -73h254zM1006 262l-70 72h-145l151 -160l23 10l174 -184l958 977h199v59h-254l4 41h-248zM598 926l2 -4l2 -2l2 -5v-4l2 -4l2 -4l4 -2l2 -6l334 -373h-172l-55 76h-133l-381 410h-115 v39h322l39 -54h163l-4 -2l-2 -4l-4 -4l-2 -2l-2 -4l-2 -4l-2 -4l-2 -4v-7l-2 -4v-4v-4v-4l2 -4v-4l2 -4v-4zM924 305l82 -86l804 828h201l-2 -41h57v-17l-927 -946l-168 178l-21 -10l-88 94h62z" />
<glyph unicode="W" horiz-adv-x="2635" d="M844 575l-309 420q-27 51 10 64h153v47h-303l-33 53h-299v-100h107l313 -410h107l47 -74h207zM836 344l-58 74h-119l125 -162l17 10l145 -184l348 434l334 -434l787 977h161v59h-206l2 41h-203l-639 -799l-176 232l155 192h162v58h-207l2 41h-202zM498 1006l2 -2v-5l2 -4 l2 -4l2 -4v-2l4 -6l274 -373h-131l-45 74h-110l-312 410h-94v38h254l31 -53h137l-4 -2l-2 -2l-2 -4l-2 -4l-4 -2v-4l-2 -4l-2 -4v-5l-2 -4v-4v-4v-4v-4v-2l2 -4v-4l2 -4v-4zM723 387h41l74 -90l440 555h156l-2 -39h47v-18l-164 -203l215 -281l653 817h156l-2 -41h47v-16 l-756 -940l-332 434l-350 -434l-137 176l-16 -10z" />
<glyph unicode="X" horiz-adv-x="2076" d="M723 856l-156 121q-27 29 11 39h43v28h-203l-35 33h-320v-61h115l334 -252h2l299 -225l-111 -84h125l64 45l692 -500h217l-2 25h221v36h-172l-669 478l495 352q-37 20 -81 28.5t-89 8.5q-43 0 -83 -6.5t-70 -12.5l-402 -291l-268 201zM899 358h-223l-49 -45h-115 l-334 -252h-115v-61h320l35 33h325v28h-165q-37 10 -11 39zM1593 31l-702 506l-72 -52h-24l69 54l-342 256l-334 252h-96h279l35 -33h122l-2 -4v-4v-7v-4v-4v-4l2 -4v-2l2 -4l2 -2l3 -4v-2l2 -4l2 -2l2 -2l2 -3l4 -4l129 -100l-43 -37l315 -237l414 301l8 2l8 2l8 2l11 2h8 l10 2l8 2h11l10 2h8l12 2h9h10l10 2h10h13h10l10 -2h10l10 -2h11l8 -2l10 -2l10 -2l11 -2l6 -2l-486 -346l676 -484h-39l4 -24h-174zM188 31l334 252h117l49 45h121l-262 -205l-4 -4l-2 -2l-2 -4l-2 -2l-2 -2v-5l-3 -2l-2 -2l-2 -4v-4l-2 -4v-4v-2v-6v-4v-4l2 -5h-122 l-35 -32h-279h96z" />
<glyph unicode="Y" horiz-adv-x="1871" d="M1190 479l627 412q-41 20 -88.5 28.5t-96.5 8.5q-47 0 -91 -6.5t-77 -12.5l-391 -260l-459 328q-33 31 11 39h47v28h-223l-35 33h-351v-61h125l365 -252l287 -197v-516h125v-51h225v51h115v49h-115v379zM1612 897l10 2h12h11h12l10 -2h12l11 -2h12l10 -2l12 -2l11 -2 l10 -2l6 -2l-592 -389v-465h-164v51h-125v502l-307 211h-2l-362 252h-107h309l37 -33h135l-2 -4l-2 -4v-7v-4v-4l2 -4v-4l2 -4l2 -2l3 -4l2 -2l2 -4l2 -2l2 -2l2 -5l2 -2l4 -4l479 -340l404 269h2l8 2l8 2l10 2l11 2h8l12 2l8 2h12l11 2h10l12 2h10h13z" />
<glyph unicode="Z" horiz-adv-x="2068" d="M2011 903v123l-141 2v45h-846q0 -20 -9 -28.5t-38 -6.5h-914v-252h62v41q0 8 13.5 19.5t30.5 23t34.5 18.5t29.5 7l1422 2l-1299 -637h156l266 131h193zM1858 205h-1461l-143 -72h-152v-61h295v-72h1452l52 61h110v250h-55v-41q0 -8 -12.5 -19t-27.5 -21.5t-31.5 -17.5 t-26.5 -7zM1010 1010l4 2h2l4 2l4 2l2 2l4 2l4 2l2 2l2 4l4 2l2 4l3 2l2 4v2h790v-45h141v-75l-1017 -500h-191l-266 -133h-17l1299 639l-1555 -2h-4l-6 -2h-4l-6 -2h-4l-6 -2l-4 -2l-6 -3l-5 -2l-6 -2l-4 -2l-6 -2l-4 -2l-6 -4l-4 -2l-6 -4l-5 -2l-4 -4l-4 -2l-6 -4l-4 -2 l-4 -4l-4 -5l-4 -2l-4 -4l-2 -4l-5 -4l-4 -6l-2 -4l-2 -6l-2 -6l-2 -7v-12h-2v191h885h2h4h4h4h4h4l2 2h5h4zM1976 242l2 4l2 4v-160h-94l-51 -59h-1407v71h-143v13l118 59h1457h4h4l6 2h4l4 2l6 2l4 2l4 2l7 2l4 2l4 2l6 3l4 2l4 4l4 2l4 2l6 4l5 2l4 4l4 4l4 2l4 4l2 4 l4 2l4 4l2 5z" />
<glyph unicode="[" horiz-adv-x="565" d="M463 -53v-31h-164v-66h-205l-2 558h55v727h146l2 -7v-6l2 -4l2 -6v-4l4 -6l2 -4l2 -4l2 -7l4 -4l4 -4l2 -2l5 -4l4 -4l6 -2l4 -2l4 -2l4 -2l4 -2l6 -2h4l7 -2h4h4h6h4h4h74v-31h-250v-1012v-4v-4v-4l2 -4v-4l2 -4v-4l2 -2l2 -5l2 -4l2 -2l2 -4l2 -2l4 -2l3 -2l2 -2l4 -2 l2 -2l2 -2h4l2 -2h2l2 -2h4h2h2h2h2l2 -2h2h2h189zM322 1165h-205v-727h-54v-618h267v65h164v92h-218q-10 0 -21 6.5t-11 28.5v981h250v92h-105q-35 -2 -51 15.5t-16 64.5z" />
<glyph unicode="\" horiz-adv-x="747" d="M113 1034l-9 -6l250 -463l-55 -28l268 -496l66 37l-520 956v0zM127 1075l549 -1009l-121 -66l-299 549l57 31l-250 460l64 35v0z" />
<glyph unicode="]" horiz-adv-x="559" d="M92 1038h189h2h2h2h2l2 -2h2h4h2l2 -2h2h4l2 -2l2 -2l4 -2h2l2 -4l5 -2l2 -2l2 -2l2 -4l2 -2l2 -4l2 -2l2 -5v-4l2 -4v-4l2 -4v-4v-2v-4v-1014h-250v-29h74h4l4 -2h6h4h6l5 -2h4l6 -2h4l4 -2l6 -4l4 -2l4 -2l4 -4l5 -2l4 -4l2 -4l4 -4l2 -4l4 -7l2 -4l2 -4l2 -6v-4l2 -6 v-6l2 -4v-3h146v728h55v557h-207v-66h-164v-31zM233 -180q0 47 -16 64.5t-51 17.5h-103v90h248v981q0 23 -11 29t-19 6h-218v92h162v65h267l2 -618h-56v-727h-205z" />
<glyph unicode="^" horiz-adv-x="972" d="M643 838h152l-88 90l-50 -35l-153 151h-162l-207 -206h101l94 92h63l78 80l172 -172v0zM629 807l-158 158l-65 -66h-64l-92 -92h-187l267 268h188l144 -141l47 33l159 -160h-239v0z" />
<glyph unicode="_" horiz-adv-x="1691" d="M332 -156v-2l2 -4l2 -4l2 -4v-4h917l21 31v8h-963l2 -2l2 -2l5 -4l2 -2l4 -2l2 -5zM78 -104h1554v-48h-325l-35 -53h-961q0 51 -41 51h-192v50z" />
<glyph unicode="`" horiz-adv-x="464" d="M256 1044h-150l39 -102l45 -2h3h4h4h4l2 -2h4l2 -2h4l4 -2h2l4 -2l2 -2l2 -2l5 -2l2 -2h2l4 -2l2 -2l2 -5l2 -2l4 -2l2 -2l2 -2l2 -2l2 -4l2 -2l2 -4l2 -2v-2l2 -4l2 -4l2 -2l31 -86h41zM276 1075l115 -309h-108l-37 104q-6 16 -23.5 27.5t-34.5 11.5h-65l-60 166h213z " />
<glyph unicode="a" horiz-adv-x="1343" d="M61 57v-57h203l21 31h207v26h-105q-25 8 -6 37l141 162h264l179 -199h-58v-32h76q16 0 21.5 -5.5l13.5 -13.5l4 -6h143l-4 25h142v32h-111l-533 568l-96 -107l-12 4l-84 -92h80l39 41l112 -121q12 -8 -4 -12h-245l-31 -43h-72l-213 -238h-72zM721 344v4l-2 4l-2 2v4l-2 2 h-2v2l-127 136l-47 -49h-33l47 53l12 -6l94 102l517 -547v-10h-33l2 -23h-115h-2v2h-2v3v2h-2v2h-2l-2 2v2h-2v2h-2h-2l-2 2l-2 2h-2l-2 2h-2h-3l-2 2h-2h-2h-4h-2h-2h-4v22l-188 209h-281l-147 -166l-2 -4v-2l-3 -2l-2 -4l-2 -2v-2v-4v-2l-2 -2v-2v-2v-2v-4v-2v-2v-2l2 -3 v-2l2 -4v-2l2 -2h3l2 -4l2 -2h-93l-20 -29h-178v23h63l213 238h74l31 43h239h4l3 2h2l2 2l4 2l2 2l2 4l4 4v6z" />
<glyph unicode="b" horiz-adv-x="1372" d="M418 63h4l6 -2l6 -2l4 -2h4l7 -2l4 -2h4l4 -2h6l4 -2h4h6l6 -2l5 -2h6h6l6 -2h8h6l6 -2h9h10h8h10h11l10 -2h12h12h15h12h14h17l16 2h16l17 2l16 2l17 2l18 2l16 2l19 4l16 4l17 4l16 3l16 4l17 4l16 6l17 4l14 4l14 6l15 6l14 6l12 7l12 6l11 6l10 8l10 6l8 8l7 9l6 8 l4 10l4 10l2 11v4l-2 6v4v4l-2 4l-2 4v4l-2 4l-2 4l-2 5l-2 4l-2 2l-5 4l-2 2l-2 4l-2 2l-2 2l-2 4l-4 2l-2 2l-2 2l-4 2l-2 2l-2 2l-4 2l-2 3l-2 2h-4l-3 2l-2 2h-2l-2 2l-4 2h-4l-2 2h-2l-2 2h-2l-2 2l-4 2h-2l-2 2h-2h-2l-2 2h-2h-3l-2 2h-2v2h-2h-2l-2 2h-2h-2l-2 2h-4 l-2 2l-2 2h-4l-6 2h-11h-10h-10h-12h-13h-14h-14h-17h-16h-16h-17h-20h-17h-20h-19h-20h-19h-18h-20h-19h-18h-19h-18h-19h-16h-16h-15h-16h-14h-13h-12h-29v-247zM1108 281l4 -2l4 -3l4 -2l4 -4l4 -2l5 -2l2 -4l4 -2l4 -2l2 -4l4 -2l2 -2l2 -4l4 -2l2 -2l2 -2l2 -2l2 -5 l2 -2l2 -2l2 -2v-4l3 -2v-2l2 -4l2 -2v-2v-2l2 -2v-2v-23l-2 -8l-4 -6l-5 -8l-6 -8l-6 -9l-8 -8l-10 -8l-13 -8l-10 -6l-14 -9l-15 -8l-16 -6l-14 -8l-19 -6l-16 -6l-21 -7l-20 -6l-18 -4l-21 -6l-20 -4l-23 -4l-22 -4l-23 -4l-23 -2l-22 -2l-23 -2l-22 -5h-25l-22 -2h-21 h-22h-25h-4h-6h-4h-6l-6 2h-9h-8l-8 -2h-8h-10h-11h-10h-10h-12h-11h-12h-14h-13h-14h-14h-15h-14h-14h-17h-16h-16h-17h-16h-17h-18h-18v27h-187v4h62h4l2 2h2h4l2 2h2l2 2l2 2l2 2h2l2 2l2 2l2 3l2 2l5 4v2l2 2h2v4l2 2l2 2v2l2 2v2l2 4v2v2v2l2 2v4v3v436v4l-2 2v2v2 l-2 2v2l-2 2v2l-2 2h-2v4h-2l-2 2v2l-3 2l-2 3h-2l-2 2l-4 2l-2 2l-2 2h-4l-2 2h-2h-2l-2 2h-2l-4 2h-2h-84v8h463h2h4l4 2h4h2h4h4h2h4h4h4h2h5h2h4h4h2h4h4h4h2h4h4h2h5h2h4h4h4h4h2h4l6 -2h6h7h4h6h6h6h6h6h7h4h6h6h6l4 -2h6h6l5 -2h6h6h6h4h6l6 -2h4h7h6l6 -2l-4 -19 l-15 2l-20 3h-21l-18 2h-20h-21h-20l-23 -2h-20l-11 -3h-10h-10l-8 -2l-11 -2h-8l-10 -2h-10l-8 -2l-9 -2h-10l-8 -2h-10l-8 -2l-9 -2l-8 -2l-8 -2l-8 -2l-8 -2l-9 -2l-8 -2l-8 -4l-8 -2l-8 -2l-9 -4l-8 -5l-8 -4l-6 -2l-8 -4l-9 -4l-8 -6l-16 -8v-168l651 -2l4 2l4 2h2l2 2 h3h4l2 2h2l2 2l2 2h2h2l2 2l2 2h2h2l2 4h2l2 2l2 2l2 2l2 2l2 2l9 -2l-2 -2h-2v-2l-3 -2h-2l-2 -2h-2l-2 -2h-2l-2 -2l-2 -2l-39 -20l41 -13h2h2l2 -2h2l2 -2h2h3h2v-2h2h4l2 -2h4l2 -2l2 -2h2l2 -2h2h2l2 -2h2l2 -2l2 -2h4l2 -2h3l2 -2h2l2 -2l4 -2l4 -2zM915 549h3l10 -2 l10 -4l10 -4l13 -2l8 -5l10 -4l8 -4l8 -2l11 -6l8 -2l8 -6l6 -2l6 -6l8 -4l7 -4l6 -5l6 -4l4 -6l4 -4l4 -4l4 -4l2 -4l2 -6l9 -15h14h33l-4 -6h-62l-2 4l-2 11l-4 8l-4 10l-8 8l-7 8l-8 9l-8 6l-10 8l-10 6l-13 6l-12 6l-12 6l-15 7l-14 4l-16 6zM416 297h112q74 0 151 1 t144 1h99q23 -10 32 -14t33 -15q16 -8 36.5 -26.5t20.5 -48.5q0 -31 -41.5 -55.5t-103 -43t-132.5 -29t-128 -10.5t-90 1t-54.5 4.5t-38 8.5t-40.5 11v215zM354 492q61 35 125 47t146 20q82 6 158.5 -2t137 -26.5t96.5 -45t36 -55.5q0 -10 -2 -14h90l28 43h-67 q-23 45 -97.5 78.5t-181.5 50.5l4 20q-43 4 -89 7t-93 3h-110h-480v-45h101q10 0 22 -11t10 -19v-434q0 -12 -11 -26.5t-21 -14.5h-78v-39h184v-29q147 0 250.5 2t136.5 0q90 -4 184.5 8.5t173 37t131 58t58.5 74.5h102v27h-102q-10 53 -88 94q-23 10 -39 18.5t-33 12.5 q12 6 24.5 12t18.5 23l-41 16q-16 -23 -51 -33h-633v142z" />
<glyph unicode="c" horiz-adv-x="1400" d="M694 332h2l2 2l2 2h2l5 2l2 2h2l4 2h2l4 2h2l4 2h4h4l2 2h4h4h5h4l2 2h6h2h6h4l4 -2h6h2h7l4 -2h4h2l6 -2h4l2 -2l4 -2h2l4 -2l2 -2h4l3 -2l2 -2l2 -2l2 -2h2v-2l2 -2l2 -2v-3h2v-2v-2v-2v-2v-2l-2 -2v-2l-2 -2l-2 -2v-2h-2l-2 -2l-2 -2l-2 -2h-3l-4 -2l-2 -2h-4l-2 -2 l-4 -2h-2l-4 -2h-6l-2 -2h-4l-4 -2h-7l-2 -3h-6h-4h-4h-6h-2h-6h-2h-4l-5 3h-4h-4l-2 2h-4h-4l-2 2h-4l-4 2h-2l-2 2l-4 2h-2l-2 2h-5l-2 2h-2l-2 2l-2 2v2h-2l-2 2h-2v2l-2 2v2v15l2 2l2 2l2 2l2 2zM381 518l22 10l21 9l25 10l22 6l25 8l26 6l25 8l28 5l27 6l29 4l28 4 l29 2l29 4l31 2h30h31h2h2h2h2h2l6 -35h23l10 -2h8h11h8l8 -2h10h8l9 -2h10h8l8 -2l8 -2h9l8 -2l8 -2h8l8 -2l9 -2l8 -2h8l8 -2l6 -4h8l9 -2l8 -2l6 -2l8 -3l8 -2l6 -4l9 -2l6 -2h4l4 -4h2l6 -2h2l4 -2l4 -2l5 -2l4 -2h4l2 -2l6 -2l2 -2l6 -2l4 -4l4 -2h4l5 -5l6 -2l4 -2 l4 -2l6 -4l4 -2l6 -2l6 -4l7 -2l4 -4l6 -4l6 -4l-21 -19l-4 2l-6 4l-6 5l-4 2l-4 4l-6 2l-4 4l-7 2l-4 2l-4 4l-6 2l-4 2l-4 2l-6 2l-4 2l-4 4l-5 2h-4l-4 2l-4 5h-4l-4 2l-4 2l-4 2l-4 2h-4l-4 2l-3 2l-4 2h-4l-6 2l-8 2l-8 4l-6 2l-9 2h-8l-6 4h-8l-8 2l-8 2h-7l-8 4h-8 l-8 2h-8l-9 3l-8 2h-8l-8 2h-8h-9l-8 2h-8h-10l-8 2h-11h-8h-8l-8 2h-8h-11h-10h-22l-25 -2l-22 -2l-25 -2l-23 -2l-22 -5l-23 -2l-20 -4l-21 -4l-20 -6l-21 -6l-20 -4l-18 -6l-17 -8l-18 -7l-17 -8l-16 -8l-14 -8l-17 -8l-12 -11l-12 -10l-13 -8l-10 -10l-10 -13l-10 -10 l-9 -12l-6 -10l-6 -13l-4 -12l-4 -14l-2 -13l-2 -12l2 -14l2 -12l4 -13l4 -14l6 -10l6 -13l9 -12l10 -10l10 -10l10 -13l13 -8l12 -10l12 -8l17 -11l14 -8l16 -8l17 -8l18 -6l17 -6l18 -7l20 -6l21 -6l20 -4l21 -6l20 -4l23 -4l22 -2l23 -2l25 -2l22 -2h25h22h14h13h12h12 h13l12 2h10l12 2l13 2h12l10 2l13 2h12l10 4l12 2l11 2l10 2l12 2l10 2l11 4l8 2l12 2l8 4l11 4l10 5l10 2l8 2l8 4l11 4l8 4l10 4l8 4l2 2l4 2l5 2l4 2h2l2 2l4 2l4 3l2 2l4 2h2l4 2l2 2l2 2l4 2l2 2l2 2l5 2l2 2l2 2l2 2l4 2l2 2l2 2l2 2l2 2l4 4l2 2l2 3l2 4h51l17 -35 h-64l-8 -4l-2 -2l-4 -2l-2 -2h-2v-2h-2h-2l-2 -3l-2 -2h-2h-2l-4 -2h-3l-4 -2l-4 -2l-4 -2l-4 -2l-6 -4l-6 -2l-6 -4l-6 -2l-5 -2l-4 -2l-4 -4l-4 -2l-6 -2h-4l-4 -5l-6 -2l-4 -2h-7l-4 -4h-6l-4 -2l-4 -2l-6 -2l-6 -2l-6 -2l-5 -2l-6 -2h-6l-4 -2l-6 -2l-6 -2l-4 -2h-6 l-7 -2l-6 -2h-4l-6 -2l-6 -2l-23 -5l6 -30h-2l-6 -2h-6l-6 -2h-6l-6 -2h-6h-7l-8 -2h-6h-4h-8l-6 -2h-6l-7 -3h-8h-4h-8h-6l-6 -2h-9h-6h-6h-6h-8h-6h-7h-8h-6h-8h-31h-30l-31 2l-29 5l-29 2l-30 4l-29 4l-27 6l-26 4l-27 6l-24 8l-27 9l-23 8l-24 8l-23 10l-20 8l-21 11 l-18 10l-18 10l-17 10l-16 13l-17 12l-12 12l-12 13l-12 12l-11 12l-8 12l-6 15l-6 14l-4 12l-4 13l-2 14v27l2 14l4 14l4 13l6 12l8 14l8 12l11 13l10 14l14 10l12 13l15 12l16 12l17 10l20 11l18 10zM668 301q8 -18 34.5 -29.5t61.5 -11.5q43 0 72.5 15.5t29.5 37.5 q0 23 -29.5 39.5t-72.5 16.5q-35 0 -62.5 -13.5t-33.5 -31.5h-70v-23h70zM809 0q113 0 211 18l-4 31q92 20 172 60q29 14 38 18t11 5t3 2t15 11h86l-30 68h-72q-18 -23 -36.5 -34t-47.5 -27q-66 -33 -151.5 -51.5t-186.5 -18.5q-96 0 -180 17.5t-146.5 48t-99.5 70.5t-37 87 q0 45 37 86t99.5 71t146.5 47t180 17q72 0 137.5 -9t118.5 -28q29 -10 62.5 -27.5t81.5 -45.5l43 47q-53 29 -87 47t-65 29q-121 41 -268 47l-6 35h-25q-127 0 -238.5 -23t-196.5 -62.5t-137.5 -93t-58.5 -114.5h-121v-31h121q6 -61 57.5 -115.5t136.5 -94.5t197.5 -63.5 t239.5 -23.5z" />
<glyph unicode="d" horiz-adv-x="1284" d="M705 252h6q39 0 65.5 16.5t26.5 38.5q0 23 -26.5 38t-65.5 15h-6v-108zM57 621v-41h66q16 0 35.5 -15.5t19.5 -38.5v-452q0 -10 -7 -12.5t-11 -2.5h-74v-26h178v-31h246h125q18 -2 37 -2h41q4 2 9 1t11 1l4 33q72 4 136.5 18.5t117.5 36.5l-37 45q-51 -18 -110.5 -29.5 t-124.5 -11.5h-291v264h-70v181h355h6q84 0 157.5 -17.5t128 -48.5t86 -72t31.5 -86q0 -14 -2 -18h90l29 68h-68q-23 70 -97.5 124t-182.5 80l4 33q-43 10 -89 15.5t-93 3.5h-656zM756 336l4 -2l2 -2h2l4 -2h2l2 -2l2 -2l2 -2h2v-2l2 -3l2 -2v-2h2v-2v-2v-2l2 -2v-2h-2v-2 v-2v-2l-2 -2l-2 -2l-2 -2v-2h-2l-2 -2l-2 -2l-2 -2h-2l-4 -2l-2 -2h-2l-4 -2l-2 -3h-4l-5 -2h-2h-4l-4 -2l-4 -2h-4h-4h-2v74h2h4l4 -2h4l4 -2h4h2l5 -2h4zM934 111l6 2l6 2h2l15 -19h-5l-8 -2l-6 -4l-6 -2l-8 -4l-6 -2h-9l-8 -2l-6 -4l-8 -2h-8l-6 -2l-9 -2l-8 -2l-8 -2h-8 l-8 -3l-9 -2l-8 -2h-8h-8l-8 -2h-9l-8 -2h-8l-8 -2h-8h-11h-22l-6 -35h-2h-2h-4h-2h-2h-3h-2h-2h-4h-2h-2h-2h-4h-4h-2h-2h-2h-4h-2h-4h-2h-3h-2h-2h-2h-2h-4h-2h-2h-2h-2h-2h-354v31h-97v2h2v2l2 2l3 2v2l2 2v2v3l2 2v2v2v2v452v4v5l-2 4v2l-2 6v2l-3 4l-2 2l-2 4l-2 4 l-2 2l-2 2l-2 4l-4 2l-2 2l-2 3l-2 2l-4 2l-2 2l-2 2l-4 2h-2l-4 2l-3 2h-2l-4 2h-2h-4l-2 2h-2h-4h-2h-49v6h637h6h6h6h4h6h7h6h6h4h6l6 -2h6h4h7h6l6 -2h4l6 -2h6h4h6l7 -2h6l4 -2h6h6l4 -2l6 -2h7l-7 -31l29 -8l12 -2l13 -4l14 -4l10 -4l13 -5l12 -6l10 -4l12 -4l11 -6 l10 -4l10 -6l8 -6l10 -7l11 -6l8 -6l8 -6l8 -8l8 -6l9 -6l6 -9l6 -6l8 -6l4 -8l6 -6l7 -8l4 -9l4 -6l4 -8l4 -8l2 -8l6 -23l17 2h38l-14 -33h-57v2l-2 15l-2 12l-2 12l-5 13l-4 12l-6 12l-8 10l-8 13l-8 10l-11 10l-10 10l-10 9l-12 10l-13 8l-14 8l-14 8l-13 9l-16 6l-16 8 l-17 6l-16 6l-19 4l-16 6l-18 7l-19 2l-20 4l-19 4l-20 2l-21 2l-20 2h-21h-20h-2h-2h-2h-2h-19h-352v-215h68v-264h309h10h8h8l9 2h6h8l8 2h8h9l8 2h8h8l8 2h6l9 2l8 2l6 2h8l8 2l7 2l8 2l8 2h6l8 4h6l7 2l6 2z" />
<glyph unicode="e" horiz-adv-x="1212" d="M522 383h-164v119h592q12 0 34 -13.5t22 -23.5v-23h30v142h-448q-33 0 -33 37h-494v-78h93q10 -2 20 -14.5t10 -22.5v-174v-219q0 -10 -10 -23.5t-20 -15.5h-70v-33h166v-41h821l29 35h63v141h-30v-24q-2 -10 -22.5 -23.5t-33.5 -13.5h-688v176h238v65h-76 q-10 2 -19.5 8.5t-9.5 18.5zM1141 133l2 2l2 2v2v-88h-53l-29 -33h-795v39h-98v6h2v3h4v2h2l2 4h2l2 2l2 2v2l2 2l2 2l3 2l2 4v2l2 2v2l2 2v2l2 2v2v2v2v5v2v393v2v2v2v2v2l-2 2v4l-2 2v2l-2 2v2l-2 2v3l-3 2l-2 2l-2 2l-2 4h-2l-2 2l-2 2h-2v4h-4v2h-2l-2 2h-4l-2 2h-2 l-2 2h-4h-76v41h461l2 -2v-2v-2l2 -2v-2l2 -4v-2l2 -2l2 -2l2 -2v-2l2 -3h4l2 -2l2 -2h2l2 -2h2l4 -2h2h2l5 -2h2h2h4h430v-88v2l-2 2v2l-2 2l-2 2l-2 5l-2 2h-2l-2 2l-3 2l-2 2l-4 2l-2 2l-2 2l-4 2h-2l-2 2h-2l-4 4h-2l-2 2h-2h-4l-2 2h-2h-5l-2 2h-2h-4h-610v-153h168 l2 -2v-3l2 -2v-2h2v-4h4v-2l2 -2l2 -2h2l2 -2l2 -2h2h2l3 -2h2l2 -2h2h2h2h2h2h2h59v-31h-237v-213h704h2l4 2h2h2h5l2 2l2 2h4l2 2h2l4 2h2l2 5h4l2 2l2 2h2l2 4h2l4 2l3 2l2 2l2 2l2 2l2 2v2z" />
<glyph unicode="f" horiz-adv-x="1124" d="M518 381h-162v119h623q12 0 32.5 -14.5t22.5 -24.5v-21h31v140h-754q-33 0 -32 36h-218v-63h91q10 0 20 -13.5t12 -23.5v-186v-254q-2 -12 -12 -18.5t-20 -8.5h-68v-29h100v-20h129v35h74v78v176h236v65h-74q-10 0 -20.5 7.5t-10.5 19.5zM199 528v2l-2 2l-2 3v2v2l-2 2v2 l-3 2v2l-4 2v2l-2 2l-2 2v2h-2l-2 2l-2 2l-2 2h-2l-2 2h-2l-2 2h-2l-2 2h-2l-2 2h-4h-76v27h184l2 -2v-2v-2l2 -2v-2v-4l2 -2l2 -2l2 -2l2 -3v-2l5 -2h2v-2l4 -2h2l2 -2h2l4 -2h2h2h2h4h2l2 -2l738 2v-88l-3 2v4l-2 2l-2 2l-2 2l-2 2l-2 3l-2 2h-2l-2 4h-4l-2 2l-2 2l-4 2 l-2 2h-2l-2 2l-2 2h-4l-3 2h-2l-4 2h-2l-2 2h-2h-4h-2h-4h-641v-154h168l2 -2v-2l2 -2v-2l2 -2h2l2 -2l2 -2v-2h2l2 -2h2l2 -2l4 -2h2l3 -2h4h2h2h4h2h57v-31h-235v-194v-62h-74v-33h-96v21h-25h2l4 2v2h2l2 2v2h4v2l3 2v2l2 2v2l4 2v2v2l2 5v2v2v2v442v2v4v2l-2 2v2z" />
<glyph unicode="g" horiz-adv-x="1368" d="M801 0q113 0 207 18l-7 33q121 29 207 85.5t113 129.5q12 33 12 70h-286v-37h55v-33h153q-18 -39 -59 -72.5t-99.5 -56t-133 -37t-154.5 -14.5q-96 0 -178 18.5t-144.5 48t-98.5 72.5t-36 90t43 89t108.5 74t147.5 49.5t158 17.5t130 -7.5t94 -18.5t73 -26.5t63 -29.5 l45 47q-27 16 -70.5 32.5t-98 32t-110.5 23.5t-106 8l-6 37h-22q-125 0 -234.5 -24.5t-194.5 -65.5t-136.5 -96.5t-57.5 -116.5h-117v-33h117q6 -66 57.5 -121t135.5 -96t194.5 -65.5t235.5 -24.5zM379 537l20 10l23 8l22 12l25 6l25 9l24 6l25 6l26 6l27 6l29 4l26 4l31 2 l27 5l32 2h29h31h2h2h2h2l6 -35h27h12l12 -2h13h12l16 -2l13 -2h12l14 -4l15 -3l14 -2l12 -2l12 -4l13 -2l14 -6l14 -4l13 -2l12 -2l14 -6l13 -2l10 -4l12 -4l10 -5l13 -4l10 -4l10 -4l10 -4l9 -4l6 -4h2l-19 -23l-4 2l-6 7l-8 2l-8 4l-11 4l-6 4l-8 2l-8 4l-8 4l-11 4l-8 2 l-10 2l-10 4l-10 4l-9 3l-10 4l-12 2l-12 4l-13 2l-10 2l-12 2l-17 2l-12 2h-14l-15 2l-14 2h-18l-17 2h-16h-21h-18h-18h-23l-20 -2l-19 -2l-22 -2l-19 -4l-20 -4l-21 -2l-18 -6l-21 -4l-20 -7l-19 -6l-18 -6l-21 -6l-16 -8l-18 -8l-19 -9l-14 -10l-14 -8l-15 -8l-16 -10 l-12 -11l-13 -10l-10 -10l-10 -12l-11 -13l-8 -10l-8 -14l-4 -13l-4 -12l-2 -16v-13v-14l2 -12l2 -13l4 -16l6 -12l8 -10l7 -13l12 -10l8 -12l10 -10l13 -13l12 -8l14 -10l15 -8l14 -11l14 -6l19 -8l16 -8l18 -6l19 -9l18 -6l19 -6l22 -4l21 -4l20 -6l23 -2l20 -4l23 -2 l24 -2l23 -2h24h23h20h23l18 2l21 2h20l19 2l18 4l21 2l16 4l19 4l18 4l16 4l17 6l16 7l16 6l17 6l14 6l17 6l12 8l14 6l10 9l13 8l14 6l10 8l11 12l10 9l8 10l8 8l10 10l7 11l6 10l16 37h-164v32h-55h250v-2v-2v-2v-2l-2 -2v-2v-2l-4 -2v-2v-2v-2v-2l-2 -2v-2v-2l-2 -2v-4 v-2l-2 -3v-2l-3 -2l-2 -10l-4 -8l-2 -8l-6 -6l-4 -9l-6 -8l-4 -6l-6 -8l-6 -8l-11 -6l-6 -11l-8 -6l-8 -8l-8 -6l-11 -6l-8 -6l-12 -9l-10 -4l-11 -6l-10 -6l-10 -6l-12 -4l-15 -8l-12 -7l-10 -4l-15 -4l-14 -6l-14 -4l-13 -4l-14 -2l-16 -4l-29 -8l4 -33l-6 -2h-6h-6l-6 -2 l-9 -2h-4h-6l-6 -2h-6h-6h-8l-5 -2h-6l-6 -3h-8h-8h-6h-5l-6 -2h-8h-6h-6h-6h-8h-7h-6h-6h-8h-6h-31h-31l-30 2l-29 5l-29 2l-26 4l-31 4l-25 8l-26 6l-27 6l-24 6l-25 9l-23 8l-24 8l-21 8l-20 10l-21 13l-18 10l-18 12l-17 11l-16 12l-15 10l-12 12l-14 17l-10 10l-11 14 l-8 13l-6 12l-6 16l-4 15l-4 12v14v29v14l4 15l4 14l6 12l8 15l8 14l9 12l10 12l14 13l14 12l15 12l14 13l19 12l16 10l18 10z" />
<glyph unicode="h" horiz-adv-x="1110" d="M61 621v-41h56q12 0 28.5 -15.5t16.5 -38.5v-452q0 -10 -6 -13.5t-11 -3.5h-61v-26h149v-31h207q0 8 3 16.5t24 8.5h41v32h-37q-10 0 -25.5 6.5t-29 16.5t-22.5 22.5t-9 22.5v172h424v-240h65v-26h119v26h62v27h-62v391q-12 18 -26.5 31.5t-35 23t-50 14.5t-72.5 5v-191 h-485v263h-263zM416 59l2 -2l6 -2l2 -2l4 -2l4 -2l4 -2l4 -2h4l5 -2h2v-2l-2 -2l-2 -2h-5h-2l-2 -2h-2l-2 -2l-2 -2l-2 -2v-2l-4 -2v-2l-2 -3v-2h-174v29h-82l2 2l2 4l2 4l2 2v4l2 5v4v454v4l-2 2v7v2l-2 4v4l-2 4l-2 2v2l-2 4l-2 2l-2 2l-2 4l-2 2l-2 4l-2 3l-2 2h-2l-2 4 l-5 2h-2l-2 2l-2 2l-4 2h-2l-2 2h-2h-4l-2 2h-4h-2h-2h-39v6h229v-262h520v190h2h9h10h8l8 -2l6 -2h9l6 -2h8l6 -2h6l4 -4h6l5 -2l4 -2l6 -2l2 -2l6 -2l2 -2l4 -4l4 -2l4 -4l2 -2l4 -2l3 -5l4 -2l4 -4l2 -4l4 -4l2 -4v-422h-84v27h-66v241h-460v-190l2 -4v-6l2 -4l2 -5v-4 l4 -4l2 -4l2 -2l4 -4l2 -4l2 -2l4 -4l2 -4l4 -2l4 -4l5 -2l4 -3z" />
<glyph unicode="i" horiz-adv-x="516" d="M57 621v-41h58q12 0 28.5 -15.5t16.5 -38.5v-452q0 -10 -6.5 -13.5t-10.5 -3.5h-63v-26h151v-31h156q0 8 3 16.5t22 8.5h41v32h-37q-10 0 -24.5 6.5t-28 16.5t-22.5 22.5t-9 22.5v233h-39v263h-236zM373 18h-123v29h-84l4 2l2 4l2 4v2l2 4l2 5v4v454v4l-2 2v7l-2 2v4 l-2 4v4l-2 2v2l-2 4l-2 2l-2 2l-2 4l-2 2l-2 4l-2 3l-2 2h-4l-3 4l-2 2h-2l-2 2l-2 2l-4 2h-2l-2 2h-4h-2l-2 2h-4h-2h-2h-39v6h198v-262h39v-215v-4l2 -6l2 -4v-5l2 -4l3 -4l2 -4l4 -2l2 -4l4 -4l2 -2l4 -4l2 -4l4 -2l4 -4l2 -2l4 -3l4 -4l5 -2l4 -2l4 -2l4 -2l4 -2l2 -2 l6 -2h2l4 -2h2v-2l-2 -2l-2 -2h-2h-2l-2 -2h-4l-2 -2v-2l-2 -2l-2 -2l-2 -2v-2l-2 -3v-2z" />
<glyph unicode="j" horiz-adv-x="1009" d="M559 0q90 0 170 14.5t145 40.5q2 0 14.5 6.5t27 13.5t27.5 13t20 10v523q-72 0 -112 -12.5t-67 -35.5v-118h-30v-353q-86 -31 -201 -30q-80 0 -149.5 15t-122 42t-82 61.5t-29.5 75.5q0 4 1 8.5t1 8.5h-86l-25 -60h62h2q23 -61 92.5 -109t171.5 -71l-4 -29q41 -6 84 -10 t90 -4zM770 88v350h31l2 127l2 2l4 2l4 2l2 4h4l2 3l4 2l4 2l5 2l4 2l4 2h4l4 2l4 2h6l6 2l4 2h7h6l6 2l4 2h8h6h8l7 2h8h8h8v-491l-2 -2l-2 -3h-4l-2 -2l-4 -2h-2l-4 -4h-4l-4 -2l-3 -2l-4 -2l-4 -2l-2 -2h-4l-4 -4h-4l-2 -2l-2 -2h-4l-2 -2l-4 -2h-2l-3 -2h-2l-2 -2h-2 l-8 -4l-8 -2l-8 -3l-8 -4l-9 -2l-10 -4l-8 -2l-10 -2l-8 -4l-9 -2l-10 -2l-10 -2l-8 -2l-11 -2h-8l-10 -2l-10 -2l-10 -2l-9 -2h-12l-8 -2h-10l-13 -2l-8 -3h-10h-12l-11 -2h-10h-10h-10h-11h-12h-6h-4h-6h-6h-5h-6h-6h-6h-4h-6h-6l-4 2h-7h-6h-4h-6l-4 3h-6l-4 2h-6h-5h-6 l-6 2h-4h-6h-4l-4 2h-6h-4l4 28l-29 6l-10 5l-13 2l-12 4l-12 4l-10 4l-11 2l-10 6l-10 4l-12 4l-9 4l-10 7l-8 4l-10 6l-8 4l-9 6l-8 6l-8 6l-8 4l-6 7l-7 6l-6 6l-6 8l-6 4l-4 6l-6 8l-4 7l-4 6l-2 6l-5 6l-2 8l-8 21l-14 -2h-37l12 24h56v-12l2 -10l4 -13l2 -10l6 -12 l4 -10l8 -11l6 -8l9 -10l10 -10l10 -8l10 -9l13 -8l10 -8l14 -6l12 -8l15 -7l14 -6l14 -6l17 -6l16 -4l17 -6l16 -4l18 -4l17 -4l18 -3l19 -4l18 -2h21l18 -2l20 -2h21h6h8h6h9l6 2h6h8l6 2h6h7h8l6 2h6h8l6 2l7 2h6h6l6 3h8l4 2h6l9 2l6 2l6 2h4l6 2l6 2l6 2h7l6 2z" />
<glyph unicode="k" horiz-adv-x="1183" d="M61 625v-41h56q12 0 29.5 -15.5t17.5 -38.5v-456q0 -10 -6 -13.5t-11 -3.5h-63v-26h152v-31h208q0 8 3.5 16.5t21.5 8.5h43v32h-39q-10 0 -24.5 6.5t-28.5 16.5t-23.5 22.5t-9.5 22.5v166l496 -244v-20h67v-27h119v27h61v43l-579 286l254 131h37v19h-47v16h-156 l-313 -162v265h-265zM436 31l-2 -2v-2l-2 -2l-2 -2v-3v-2h-2h-174v29h-84l2 2l2 4l4 4v4l2 2v7v2v458v2v5v4l-2 4v4l-2 4l-2 2v4l-2 2v4l-2 2l-4 2v4l-2 2l-4 3l-2 4l-2 2h-2l-2 4l-2 2h-3l-4 2l-2 2l-4 2h-2l-2 2h-2h-4l-2 2h-4h-2h-2h-39v6h229v-274l336 174h133v-12 l-264 -140l602 -295v-14h-61v-27h-86v27h-66v12l-530 262v-194v-4v-4l2 -4l2 -7v-4l4 -2l2 -6l2 -2l4 -4l2 -2l4 -4l2 -4l2 -2l4 -4l5 -2l4 -4l4 -3l4 -2l2 -4l6 -2l4 -2h2l6 -4l2 -2h4l5 -2l4 -2h2v-2l-2 -2h-2h-5l-2 -2l-2 -2h-2l-2 -2z" />
<glyph unicode="l" horiz-adv-x="1052" d="M522 578h-180v34h-281v-41h101q10 0 22.5 -11t10.5 -19v-416q0 -12 -11.5 -27.5t-21.5 -15.5h-80v-37h186v-45h625l31 37h69v156h-35v-25q0 -10 -23.5 -26.5t-35.5 -16.5h-479v360q2 23 15.5 38.5t35.5 17.5h51v37zM465 557h-2h-4h-4l-2 -2l-4 -2h-3l-4 -2l-2 -2h-2 l-4 -4l-2 -2l-2 -2h-2l-4 -4l-2 -2l-2 -3v-4l-2 -2l-2 -2l-2 -4l-2 -2v-2l-2 -4v-2l-2 -2l-2 -4v-4v-2l-3 -4v-2v-5v-378h496h2h4h2l2 2l4 2h2h5l2 2l4 2h2l4 2l2 2l2 2h4l2 2l2 2l4 2l2 2l2 2l2 2l2 2l5 2l2 2v2l4 2l2 2v3l2 4l2 2l2 4v4v2v-111h-60l-30 -37h-600v43h-185 v5h62h2h4h2l2 2l2 2h4l2 2h2l2 2l2 2h2l2 4l3 2l2 2l2 2l2 2v2l2 2l2 4h2v2l2 2v4l2 2v3v2l2 2l2 4v2v2v2v418v2v2l-2 4v2l-2 2v2l-2 2v2l-2 2v2h-2l-2 2v2l-2 2l-2 2l-4 2v2l-3 3h-2l-2 2h-2l-2 2l-2 2h-2l-2 2h-2h-2l-2 2h-4h-2h-2h-84v6h246v-33h182v-2h-37z" />
<glyph unicode="m" horiz-adv-x="1552" d="M776 244l-129 127l-29 -27l-217 238h-61v32h-279v-41h99q12 0 23.5 -10t11.5 -20v-434q0 -12 -12.5 -26.5t-22.5 -14.5h-76v-39h92v-29h178v23h66v329l258 -268h145l105 111h55l152 159v-309h-68v-16h68v-29h153v23h182v32h-75q-10 0 -22.5 14.5t-12.5 26.5v428 q0 8 11 19.5t24 11.5h100v41h-281v20h-71zM1376 567v-2h-4l-2 -2h-2l-2 -2l-2 -2l-2 -2l-2 -2h-2l-2 -4l-2 -2l-2 -2h-2v-4h-2v-2l-2 -2v-4l-3 -3l-2 -4v-2v-2v-428v-2v-2l2 -4v-2l3 -2v-4h2v-4l2 -4v-2l2 -2l2 -2l2 -3v-2l2 -2l2 -2l2 -2l2 -2v-2h2l4 -4l2 -2h4v-2v-4h-106 v-21h-117v379l-178 -184h-53l-105 -113h-131l-283 295v-354l-65 -2v-21h-145v29h-93v2h62l4 2h2h2h4l2 2l2 2l4 2l2 2h2v2l4 2v3l3 2l2 2l2 2h2v4l2 2l2 2l2 2v2l2 2v2l2 4v2v2l2 2v2l2 2v4v3v436v2v2l-2 2v4l-2 2v2h-2v4l-2 2l-2 2l-2 2v2l-2 2h-2l-2 2l-2 3v2h-3l-2 2 l-2 2h-2l-2 2l-2 2h-2h-2l-2 2h-4l-2 2h-2h-4h-2h-82v6h246v-33h69l225 -246l29 27l129 -127l375 379h45v-20h281v-7h-82h-2h-4h-3l-2 -2h-4l-2 -2h-2z" />
<glyph unicode="n" horiz-adv-x="1138" d="M870 571v-329l-469 338h-92v32h-248v-41h101q10 0 22.5 -11t10.5 -19v-459q0 -12 -11.5 -26.5t-21.5 -14.5h-80v-41h340v23h84v32h-86v293l268 -188l31 33l199 -146v-47h96v23h73v477q-23 27 -45 41t-46.5 21t-55.5 8t-70 1zM915 553h9h8h8l6 -2h6h9h6l6 -2h6l6 -2l6 -2 l4 -2h6l5 -2l6 -4l6 -2l4 -3l6 -4l4 -2l4 -4l6 -4l5 -4l6 -4l4 -4l6 -6l6 -6v-2v-453h-72v-21h-61v37l-219 162l-31 -35l-283 201v-346h3v-14v-5h-306v5h62h2l4 2h2h2l2 2l4 2h2l2 2l2 2h2l2 2l2 2v2l3 2l2 2l2 2l2 2v2l2 2l2 2l2 2v2l2 2v2l2 2v3v4l2 2l2 2v2v4v2v459v2v2 l-2 4v2l-2 2v2l-2 2v2l-2 2v2h-2l-2 2v2l-2 2l-2 2l-4 2v2l-3 3h-2l-2 2h-2l-2 2l-2 2h-2l-2 2h-2h-2l-2 2h-4h-2h-2h-84v6h215v-33h102l494 -352v344h10h8h8z" />
<glyph unicode="o" horiz-adv-x="1415" d="M643 633q-109 0 -203 -19l6 -32q-121 -29 -203.5 -83.5t-107.5 -125.5h-74l29 -72h100v23q0 47 35 88t95.5 71.5t141.5 48t173 17.5t173 -17.5t142.5 -48t96 -71.5t34.5 -88t-34.5 -89t-96 -73t-142.5 -48.5t-173 -17.5q-72 0 -137.5 11.5t-120.5 31.5l-43 -47 q59 -25 131 -39t149 -16l7 -37h22q123 0 230.5 23.5t190.5 63.5t133 95.5t56 116.5h115v33h-115q-6 61 -55 116.5t-132 96.5t-191.5 64.5t-231.5 23.5zM745 326q-8 18 -35.5 30.5t-64.5 12.5q-41 0 -71.5 -16.5t-30.5 -39.5t30.5 -39t71.5 -16q39 0 66.5 12.5t33.5 32.5h70 v23h-70zM731 23l-29 -5h-28h-31h-2h-2h-2l-6 35h-25h-10l-8 2l-10 2h-11h-8h-10l-8 2h-11l-8 2l-10 2h-8l-10 3l-9 2l-8 2h-8l-10 2l-8 2l-9 2l-8 2l-8 2l-8 2l-8 2l-9 2l-8 4l-6 2l-8 2l-8 4h-6l16 19h4l6 -2l8 -2l9 -2l6 -5l8 -2h8l8 -4l6 -2h9l8 -4h8l8 -2l8 -2h9l10 -2 l8 -2h8l8 -2h9l8 -2h10l8 -2h10h9h8l10 -2h8h8h11h8h24l23 2h23l22 4l23 2l22 2l21 4l20 4l21 4l20 6l18 7l19 6l18 6l19 6l16 8l14 8l17 7l14 10l15 8l12 10l14 8l10 11l11 10l10 12l8 10l8 13l6 12l7 12l4 13l4 14l2 12v15v12l-2 14l-4 12l-4 13l-7 12l-6 12l-8 13l-8 10 l-10 12l-11 8l-10 13l-14 8l-12 10l-15 8l-14 8l-17 9l-14 10l-16 6l-19 6l-18 8l-19 4l-18 7l-20 6l-21 4l-20 4l-21 4l-22 2l-23 4l-22 2h-23l-23 2h-24h-23l-22 -2h-23l-22 -2l-23 -4l-22 -2l-21 -4l-20 -4l-21 -4l-20 -6l-19 -7l-18 -4l-19 -8l-16 -6l-18 -6l-15 -10 l-16 -9l-14 -8l-15 -8l-14 -10l-10 -8l-13 -13l-12 -8l-8 -12l-8 -10l-8 -13l-7 -12l-6 -12l-4 -13l-4 -12l-2 -14v-12v-2v-3h-70l-14 35h45l14 -2l9 21l4 8l4 10l4 6l4 9l6 8l6 6l6 8l7 8l6 6l8 9l8 6l8 8l9 6l8 6l10 6l10 6l10 9l11 6l10 6l12 4l10 6l13 4l12 6l12 7l15 4 l12 4l12 4l15 4l14 4l14 4l31 8l-6 31h2h6l4 2l6 2h6h7l6 2h6h6l6 2l6 2h6h7h6h6l6 2h6h6h8h7l6 2h6h6h6h6h6h9h6h6h6h31h28l31 -2l27 -2l31 -4l26 -4l27 -4l26 -6l27 -6l25 -6l24 -9l25 -6l22 -8l23 -8l20 -10l21 -11l18 -10l21 -10l16 -10l16 -11l17 -12l14 -12l12 -14 l13 -13l12 -12l8 -12l8 -13l7 -14l6 -14l6 -13l2 -14l2 -14v-27l-2 -14l-4 -17l-4 -12l-6 -12l-7 -15l-8 -12l-10 -14l-10 -12l-13 -13l-14 -12l-14 -12l-15 -13l-18 -10l-16 -10l-19 -12l-20 -9l-21 -10l-20 -10l-23 -8l-22 -8l-25 -9l-22 -6l-27 -6l-25 -6l-26 -4l-29 -6 l-27 -2l-28 -4zM719 295l-2 -2h-4l-2 -2l-2 -2h-2l-2 -2l-5 -2h-2l-4 -2h-2l-4 -2h-4l-2 -2h-4h-4l-4 -3h-4h-4h-5h-4h-4h-2h-6h-4h-6h-4h-4l-5 3h-4h-4l-4 2l-4 2h-4l-4 2h-4l-2 2l-2 2h-4l-2 2l-5 2h-2l-2 4h-2l-2 2v2l-2 2v2h-2l-2 2v2v2v2v2v2v2h2l2 3v2l2 2l2 4h2l2 2 l2 2h5l2 2l4 2l2 2h2l4 2l4 2h4l4 2h4l4 2h4l5 2h4h4h6h4h6h2h4h4h5h4h4l2 -2h4l4 -2h4h4l2 -2h2l4 -2l4 -2h2l3 -2h4l2 -2l2 -2h2l2 -2l2 -2h2l2 -2l2 -2v-2h2l2 -2v-3v-14l-2 -2h-2v-2l-2 -2v-2h-4v-2z" />
<glyph unicode="p" horiz-adv-x="1320" d="M817 424q-18 35 -86 35q-35 0 -60.5 -13.5t-25.5 -31.5q0 -20 25.5 -33.5t60.5 -13.5q33 0 56.5 10t29.5 26h60v21h-60zM207 600h-146v-20h66q16 0 35.5 -15.5t19.5 -38.5v-452q0 -10 -7 -13.5t-13 -3.5h-74v-26h180v-31h133v25h68v20h-68v313h-36v205q86 0 186 1t188 1 v-2q68 0 126.5 -12t102.5 -32.5t69.5 -48.5t25.5 -58q0 -31 -25.5 -58.5t-69.5 -48t-102.5 -33t-126.5 -12.5q-106 0 -188 29l-31 -31q45 -16 96.5 -26.5t106.5 -10.5l6 -24h16q88 0 166 15t137.5 43t96.5 63.5t41 78.5h84v21h-84q-4 43 -40 78.5t-94.5 63.5t-135 44.5 t-164.5 16.5h-7h-538v-21zM788 397h-2l-2 -2l-2 -2h-2l-2 -2h-2h-2l-4 -2h-2h-2l-4 -2h-2l-4 -2h-4h-2h-5h-2h-4l-4 -2h-4h-2l-4 2h-4h-4h-4h-2l-4 2h-5l-2 2h-4l-4 2h-2h-2l-4 2h-2l-2 2l-2 2h-2l-2 2l-2 2l-2 2l-2 3l-2 2v2h-2v2v2v2h2v2l2 2v2h2l2 2l2 4h2l2 2h2l2 2h2 l4 2l2 2h2h4l4 2h2h5l4 2h2h4h4h4h4h2h4h4h4h2h5h2h4h2l4 -2h2h2l4 -2h2h2l2 -2l4 -2h2l2 -2h2l2 -2h3l2 -2l2 -2h2v-2l2 -2v-2v-10v-2h-2v-3l-2 -2h-2v-2h-2zM588 254l-4 4h-9l-4 2l-6 2h-6l-6 2v2l4 2l6 -2h4l6 -2l7 -2l4 -2h6l6 -2h6l4 -2l6 -2h6l7 -2h6l6 -2h6h6l6 -2 l7 -2h6h6h6l8 -2h4h6h9h6h6h8h4h8h19h16h17l16 2l14 2l17 2l16 2l14 2l15 4l14 4l14 4l13 2l14 6l12 5l13 4l12 6l10 6l10 6l13 6l8 6l10 6l8 9l8 6l7 6l8 8l6 10l4 9l4 8l4 8l2 10l2 8v11v10l-2 10l-2 8l-4 9l-4 8l-4 10l-6 8l-8 8l-7 9l-8 6l-8 8l-10 4l-8 8l-13 6l-10 6 l-10 7l-12 4l-13 6l-12 2l-14 6l-13 4l-14 4l-14 2l-15 4l-14 2l-16 4l-17 3h-14l-16 2h-17l-14 2h-31h-12h-10h-13h-12h-10h-13h-12h-12h-12h-11h-12h-12h-13h-12h-12h-12h-13h-12h-12h-13h-12h-12h-10h-13h-10h-12h-12h-11h-12h-10h-29v-242h37v-295v-4v-23h-96v29h-99 l2 2v2h3v2l2 2v2l2 2l2 2v2v3v2v4v454v4v5v4v2l-2 6l-2 2l-2 4v2l-3 4l-4 4v2l-2 2l-4 4l-2 2l-2 2l-4 3l-2 2l-2 2h57v20h525h22h21l22 -2l21 -2l18 -2l20 -2l19 -4l20 -4l19 -2l16 -6l19 -5l16 -4l16 -6l17 -6l14 -6l14 -6l15 -6l12 -9l12 -6l13 -8l10 -8l10 -8l8 -8l9 -9 l8 -8l6 -8l6 -8l4 -8l4 -9l4 -10l2 -8l2 -8v-17l-4 -8v-10l-4 -8l-4 -8l-4 -9l-6 -10l-6 -8l-8 -8l-9 -8l-10 -7l-10 -8l-10 -8l-13 -8l-12 -6l-14 -9l-15 -6l-14 -6l-14 -6l-17 -6l-16 -6l-16 -4l-19 -4l-16 -7l-21 -2l-18 -4l-21 -4l-18 -2l-21 -2l-20 -2h-21l-22 -2h-21 h-2l-4 25h-20h-8h-6h-9l-6 2h-6l-6 2h-6h-8l-7 2h-6h-6l-8 2h-4l-6 2l-9 2h-6l-6 2h-4l-6 2h-8z" />
<glyph unicode="q" horiz-adv-x="1415" d="M741 305h70v25h-70q-8 18 -34.5 30.5t-65.5 12.5q-41 0 -71.5 -16.5t-30.5 -39.5t30.5 -39t71.5 -16q37 0 64.5 12.5t35.5 30.5zM639 0q156 0 283 37l41 -35h235v31h-53v18h-72l-31 29q88 41 142.5 98.5t60.5 122.5h113v31h-113q-6 61 -56 115.5t-132 94.5t-189.5 63.5 t-228.5 23.5h-23l-6 -35q-78 -4 -148.5 -17.5t-129.5 -39.5l43 -45q111 41 256 40q92 0 173 -22.5t141.5 -55t95 -72.5t34.5 -73q0 -35 -14 -60.5t-33.5 -45t-39 -31.5t-32.5 -18l-38 32h-173v-30h33v-17h29l33 -28q-47 -12 -99.5 -19.5t-109.5 -7.5q-92 0 -172 17.5 t-140.5 48t-95.5 71.5t-35 88q0 12 2 21h-100l-29 -70h72h2q25 -72 108 -127t201 -82l-6 -33q95 -18 201 -18zM715 336l2 -4h2l2 -2l2 -2v-2v-15v-2l-2 -2v-2l-4 -2l-2 -2l-2 -2l-2 -2h-2l-2 -2h-5l-2 -4h-2h-2l-4 -2h-4l-2 -2h-4l-2 -2h-4l-4 -2h-4h-2h-4l-5 -2h-4h-4h-4 h-2h-6h-4h-4h-6l-5 2h-4h-4l-4 2l-4 2h-4l-4 2h-4l-2 2h-4l-2 2l-4 2l-3 2h-2l-2 2l-4 2l-2 2l-2 4h-2v2l-2 2v2l-2 2v2v2v3l2 2v2h2v2l2 2l2 2l2 4h4l2 2l2 2h3l4 2l2 2l4 2h2l4 2l4 2h4l4 2h4h4l4 2h5h6h4h4h6h2h4h4h4h5l4 -2h4h4h4l2 -2h4l4 -2l2 -2h4h2l4 -2h2l3 -4h2 l2 -2h2zM1227 301v-6l-2 -8l-2 -6v-9l-2 -6l-4 -8l-3 -6l-4 -8l-4 -6l-4 -9l-4 -6l-4 -6l-6 -8l-4 -6l-6 -6l-7 -7l-6 -8l-6 -6l-8 -6l-6 -6l-8 -6l-9 -6l-8 -7l-8 -6l-8 -6l-10 -6l-9 -4l-8 -6l-12 -6l-8 -5l-13 -4l-34 -18l55 -51h63v-15h-159l-41 37l-19 -4l-8 -2l-6 -2 l-8 -2h-8l-9 -4h-8l-8 -2l-8 -2l-8 -2l-9 -2h-8l-8 -2h-10l-8 -2l-9 -2h-10l-8 -2h-8l-10 -2h-9h-10l-8 -3h-8l-10 -2h-9h-10h-8h-10h-9h-10h-10h-6h-6h-6h-7h-6h-8h-6h-6h-6h-7l-6 2h-8h-4l-6 3h-6h-6h-9l-6 2h-6h-4h-6l-6 2h-6h-7l-6 2l-6 2h-6h-6l-6 2l6 33l-33 6l-14 4 l-12 4l-15 2l-12 6l-12 4l-15 4l-12 6l-12 4l-13 7l-10 4l-10 6l-12 6l-11 6l-10 6l-10 6l-8 7l-11 8l-8 6l-8 6l-8 8l-6 6l-8 9l-7 6l-6 8l-6 8l-4 6l-4 8l-6 9l-2 8l-4 8l-9 21l-14 -3h-45l14 35h68v-2v-14l4 -12l2 -15l4 -12l6 -12l9 -13l6 -10l8 -12l10 -10l10 -11 l13 -10l12 -10l12 -8l15 -8l14 -11l16 -8l15 -8l18 -6l16 -8l19 -7l18 -6l19 -4l20 -6l19 -4l20 -4l23 -4l20 -2l23 -4l22 -2h23l22 -2h23h8h6h8h6h9l6 2h8h6h6h8l7 2h8h6h6l8 2l6 2h7h6l8 2h4l8 2l6 2h6l7 2h6l6 2h6l8 2l6 2l4 2h7l39 12l-62 56h-20v10h118l41 -37l15 8 l4 2l4 2l2 2l6 2l2 5l6 2l4 4l4 2l7 4l6 4l6 4l4 4l6 4l4 6l4 4l6 7l7 6l4 4l4 6l6 6l4 6l4 8l4 7l2 8l4 8l2 6l2 10l5 9v8l2 10v10l-2 10l-2 11l-5 10l-4 12l-4 10l-8 11l-6 10l-10 10l-9 10l-10 11l-12 10l-12 10l-13 10l-14 9l-14 8l-17 10l-14 8l-16 8l-19 9l-16 6 l-21 8l-18 6l-19 6l-20 6l-21 4l-22 7l-21 4l-22 2l-23 2l-22 4h-23h-24h-8h-9h-10h-8h-10h-8l-9 -2l-10 -2h-8h-8l-11 -2h-8h-8l-8 -2h-8l-8 -4h-9l-8 -2h-8l-8 -5h-8l-9 -2l-6 -2l-10 -2l-6 -2l-8 -2l-9 -2l-6 -2l-8 -2l-6 -2l-4 -2l-17 18l7 2l8 3l6 2l8 2l8 4l9 2l8 2 l8 2l8 2l8 2l9 2l8 2l8 2l10 2h8l9 2l10 2l8 2h8l10 2l9 2h8h10l10 2h8h11h8l10 2h25l6 35h2h2h2h31h28l29 -2l29 -2l26 -4l29 -4l27 -4l26 -6l25 -6l26 -7l23 -6l25 -8l22 -8l23 -8l20 -8l21 -11l18 -10l20 -10l17 -10l16 -13l17 -10l14 -12l12 -15l13 -10l10 -14l10 -12 l8 -13l8 -14l5 -12l4 -15l4 -12l2 -14v-29z" />
<glyph unicode="r" horiz-adv-x="1306" d="M768 428q-14 33 -72 33q-29 0 -50 -13.5t-21 -29.5t21.5 -29.5t49.5 -13.5q27 0 47.5 10t24.5 25h49v18h-49zM197 600h-136v-20h62q14 0 31.5 -15.5t17.5 -38.5v-452q0 -10 -6 -13.5t-10 -3.5h-70v-26h100v-31h142v25h112v20h-63v313h-35v205q80 0 174 1t174 1v-2 q125 0 208 -33.5t93 -101.5q4 -33 -29.5 -63.5t-84.5 -51.5q-53 -23 -107.5 -30t-79.5 -7q-45 0 -91 7.5t-81 21.5l-29 -31q41 -16 93.5 -26t95.5 -12l4 -23h14q20 0 50 3t61 9t59.5 13.5t51.5 15.5t54.5 26.5t60 40t50 46t23.5 47.5h78v20h-78q-4 41 -37 75t-88 58.5 t-127 39t-152 14.5h-6h-499v-21zM1010 279q-59 -41 -127 -57.5t-117 -22.5l14 -25q27 2 60.5 7t66.5 16l82 -123q8 -4 5 -13.5t-23 -9.5h-47v-31h55v-20h266l-2 35h-74zM743 406l-2 -3h-2l-2 -2h-2l-2 -2h-2h-2l-2 -2h-2h-2h-2l-2 -2h-4l-2 -2h-2h-2h-4h-3h-2h-4h-2h-4h-2 h-4h-2l-2 2h-4l-2 2h-2h-4l-2 2h-4l-3 2h-2l-4 2v3h-2l-2 2h-2l-2 2v2l-2 2v2v2v2v2v2h2v2l2 2h2v2h2l2 2h4l2 2l3 2l4 2h2h4l2 2h2h4h2h2l4 2h2h4h2h4h2h3h4l2 -2h2h2h4h2l2 -2h2h2h2l2 -2h2h2l2 -2v-2h4l2 -2l2 -2h3l2 -2v-2h2v-2v-8l-2 -2v-2l-2 -2h-3zM979 305l-8 -4 l-6 -4l-9 -4l-8 -4l-4 -4l-8 -2l-6 -2l-6 -5l-6 -2l-5 -4h-6l-6 -2l-6 -2l-6 -4h-6l-6 -2l-9 -2l-6 -2l-8 -2l-6 -2l-8 -2h-9l-6 -4h-6l-10 -2l-6 -2h-8l-7 -2l-8 -2h-8l-6 -2h-8l-6 -3h-9l-6 -2h-6h-8l-4 -2h-6h-6h-7h-4l-4 25h-20h-4h-6h-7h-4l-6 2h-6l-6 2h-6h-6l-7 2h-4 h-6l-8 2h-6l-6 2l-4 2h-7l-6 2h-6l-6 2l-6 2l-6 2l-6 2h-5l-6 3l-6 2h-2l4 4l4 -2h6l5 -2l4 -2l6 -3h4l6 -2h6l4 -2l6 -2h7l6 -2h6l4 -2h6h6l6 -2l7 -2h6h6h4l6 -2h6h6h7h6h6h6l4 -2h6h4h4h2l7 2h4h4h6h4h4l6 2h6h7h6l6 2l6 2h6l6 2h6l9 2h6l6 2l8 2l6 2l8 3l7 2l6 2l8 2 l6 2l8 2l6 2l9 2l6 4l6 2l8 2l4 4l8 2l6 4l7 2l6 4l4 5l6 2l6 4l4 4l6 4l4 4l7 4l4 2l4 6l4 4l4 4l4 5l4 4l4 6l2 4l4 4l2 6l3 4l2 4l2 6v5v6l2 6v4l-2 6l-2 10l-2 9l-3 10l-6 10l-4 8l-4 8l-6 7l-6 8l-8 6l-6 8l-9 4l-8 6l-10 6l-8 7l-11 4l-10 6l-12 4l-10 4l-13 2l-10 4 l-12 4l-12 2l-15 4h-12l-14 4l-15 3h-14l-14 2h-15h-16l-10 2h-29h-10h-13h-10h-10h-10h-13h-10h-10h-12h-11h-12h-12h-10h-13h-12h-10h-10h-13h-10h-12h-10h-13h-10h-10h-13h-10h-10h-10h-11h-10h-26l-2 -242h34v-295v-4h-47v-23h-108v29h-23v2l4 2l2 4l2 4l2 4v5v4v454v4 v5v4l-2 2v4l-2 4l-2 4v2l-2 4l-2 2l-2 4l-2 2l-2 2l-2 2l-2 4l-2 3l-4 2l-2 2h53v20h485h21h20l19 -2l20 -2l19 -2l18 -2l19 -2l16 -4l16 -2l17 -4l16 -4l17 -5l14 -4l14 -6l15 -6l14 -4l12 -6l12 -6l11 -9l12 -6l8 -6l10 -6l9 -8l8 -8l6 -9l6 -6l6 -8l4 -8l4 -10l2 -8l2 -9 v-8v-16v-6v-4l-2 -5l-2 -4l-2 -6l-4 -4l-2 -4l-6 -6l-4 -6l-4 -4l-6 -7l-6 -6l-7 -6l-6 -4l-6 -4l-8 -6l-6 -4l-8 -6l-7 -5l-8 -6l-8 -4zM1012 57v2l2 4v3v2l-2 2v4l-2 2v2l-2 2v2l-2 2l-2 2l-86 129h4l8 4l8 2l8 4l8 4l9 2l8 5l8 6l8 2l8 6l9 4h2l153 -236h68h-232v2v19 l2 2h2l2 2l5 2v2l2 2l2 2v2z" />
<glyph unicode="s" horiz-adv-x="1409" d="M737 164h70v18h-70q-6 16 -33.5 25.5t-64.5 9.5q-43 0 -72.5 -13.5t-29.5 -29.5q0 -18 29.5 -31.5t72.5 -13.5q35 0 62.5 9.5t35.5 25.5zM637 0q117 0 222.5 12.5t185 35t131 51t61.5 63.5l115 -2v33h-117q-10 33 -60.5 62.5t-131 51t-185 33.5t-221.5 12q-18 0 -66.5 5 t-98.5 17.5t-90 34t-40 54.5q0 25 35 47t95 39.5t140 27t172 9.5q72 0 136.5 -6.5t119.5 -16.5l41 25q-59 12 -128.5 20t-147.5 8l-6 21h-25q-117 0 -221 -12.5t-185 -33t-132.5 -49t-61.5 -61.5h-113v-30h113q12 -57 65.5 -89t122 -46.5t140 -17.5t125.5 -3q92 0 172 -10.5 t140 -26.5t95 -37.5t35 -48.5t-35 -49.5t-95 -39.5t-140 -27.5t-170 -10.5q-92 0 -172 10.5t-140.5 27.5t-95.5 39.5t-35 49.5q0 4 4 12h-98l-31 -39h72h2q23 -41 106 -70.5t201 -45.5l-6 -19q47 -4 97.5 -7t103.5 -3zM694 193l2 -3l4 -2h2l3 -2h2l2 -2h2l2 -2h2v-2h4v-2v-2 v-6v-2h-2l-2 -2l-2 -2l-2 -2h-2h-2l-2 -2h-5l-2 -2l-2 -2h-4h-2l-4 -2h-2h-4l-2 -2l-4 -2h-4h-4h-4h-3l-4 -3h-6h-2h-4h-4h-6h-4h-6l-2 3h-7h-4h-4l-4 2h-4l-4 2h-4l-2 2h-4h-4l-5 2l-2 2h-4l-2 2l-2 2l-2 2h-2v2h-2l-2 2h-2v2v2v2h2v2l2 2h2v2h2l2 2l2 2h2l4 2h2l5 2l4 3h4 l2 2h4h4l4 2h4h4h4l7 2h2h6h4h6h4h4h2h6l4 -2h3h6h4h2l4 -2h2h4l4 -2h4h2zM285 545l16 6l16 6l19 6l16 6l21 6l20 5l21 4l22 6l23 2l22 6l25 4l24 2l25 4l27 2l26 2l27 2l27 2h26l31 2l26 3h29h2h2h2h2h2l7 -17h-7h-24l-23 -2h-22h-21l-22 -4h-23l-20 -2l-19 -4l-20 -2 l-21 -2l-16 -2l-18 -4l-19 -4l-18 -3l-15 -4l-16 -6l-16 -2l-13 -6l-14 -4l-12 -4l-13 -6l-12 -6l-10 -7l-8 -6l-11 -6l-8 -6l-6 -6l-6 -8l-6 -9l-4 -8l-2 -10l-2 -8l2 -12l2 -11l4 -10l6 -8l8 -8l8 -8l8 -7l11 -6l10 -6l10 -6l13 -4l12 -4l12 -4l12 -4l13 -5l12 -2l14 -4 l13 -4l14 -2l12 -2l12 -2l13 -2l12 -2l12 -2h11l10 -2l10 -2h8h10h7h6h4h31l28 -2h27l29 -2l28 -2l27 -2l26 -2l25 -2l27 -5l22 -4l25 -2l22 -4l25 -6l20 -4l21 -4l22 -6l17 -4l20 -7l17 -6l16 -6l16 -6l15 -6l12 -6l12 -6l11 -9l12 -6l8 -6l6 -8l6 -6l4 -8l5 -4l2 -7v-22 v-4l-5 -6l-6 -7l-6 -6l-6 -8l-8 -6l-10 -6l-11 -8l-12 -7l-14 -6l-13 -6l-16 -6l-16 -6l-19 -6l-16 -6l-21 -7l-20 -4l-21 -4l-22 -6l-23 -4l-22 -4l-25 -4l-24 -2l-25 -4l-27 -2l-26 -4l-27 -2l-26 -3l-29 -2h-29h-28h-29h-8h-6h-7h-6h-6h-6h-8h-4h-6h-9h-6h-6h-6h-6l-6 2 h-6h-7h-6l-6 3h-6h-6h-6h-6l-7 2h-6h-6h-6h-6l2 12h12l21 -2l20 -2l23 -2h22l21 -2h24h23h22h23l22 2h23l20 2l21 2l20 2l21 2l22 2l17 2l20 4l19 2l16 4l16 4l19 4l14 5l14 4l17 6l14 4l12 6l11 4l12 6l10 6l10 7l11 6l6 6l8 8l6 8l4 6l4 11l4 8v10v10l-4 11l-4 8l-4 8 l-6 6l-8 8l-8 6l-9 7l-10 6l-10 6l-12 4l-13 6l-12 4l-14 6l-15 4l-14 4l-16 5l-17 4l-18 4l-16 4l-19 2l-18 4l-21 2l-18 2l-21 2l-20 2l-23 2l-20 2h-23l-22 2h-23h-22h-15h-12h-14l-17 2h-16h-16l-17 2h-18h-17l-16 2l-18 3h-17l-18 4l-19 2l-16 4l-16 2l-17 4l-16 4 l-15 4l-14 6l-16 6l-13 7l-12 6l-12 6l-10 8l-11 8l-8 8l-8 11l-6 8l-6 10l-6 12l-5 25l5 14l4 6l4 7l6 6l8 6l8 6l8 8l13 6l12 6l12 7zM225 100l-2 2l-10 7l-10 6l-8 6l-7 8l-6 8l-4 6l-6 11l-2 8v4h-70l-2 -4h35l12 2l9 -14l2 -3l4 -4l4 -6l4 -2l4 -4l6 -4l6 -4l6 -6l9 -2 l6 -4l8 -5l8 -4z" />
<glyph unicode="t" horiz-adv-x="1001" d="M571 518h291q12 0 31.5 -15.5t19.5 -25.5v-22h27v145h-412q-23 0 -22 21h-381v-27h-64v-76h267v-33h57q14 0 31.5 -12t17.5 -33v-379q0 -10 -6 -11t-10 -1h-66v-24h156v-25h160q0 4 3 12t21 8h43v29h-39q-10 0 -24.5 5t-28.5 13.5t-23.5 17.5t-9.5 19v197l-39 -2v219z M504 588h2v-2h4l2 -2h2h4h2h2h2h2h2h396v-88l-2 4v2l-4 2v2l-3 2l-2 2h-4v4l-2 2h-2l-4 2l-2 2l-2 2l-2 2h-2l-2 2h-2l-4 2l-2 2h-4l-2 2h-3h-2l-4 3h-2h-2l-311 2v-254h41v-179v-4v-4l2 -6l2 -2v-4l4 -4l2 -4l2 -2l4 -2l2 -4l4 -2l5 -3l2 -4l4 -2l4 -4l4 -2l2 -2l6 -2l2 -2 l4 -2l4 -2h4l5 -2l4 -2l4 -2h4h-2l-2 -2h-2h-2l-2 -2l-2 -2l-3 -2h-2v-2l-2 -2l-2 -3v-2h-127v25h-80v2l3 4l2 4v4v2v381v4v5v4l-2 2v4l-3 4v2l-4 4v2l-2 2l-2 4l-2 2l-2 2l-2 2l-2 2l-2 2h-2l-2 5h-4l-2 2l-2 2h-4l-2 2l-2 2h-5l-2 2h-2h-2h-4h-2l-2 2h-2h-41v33h-268v41 h63v24h351h2v-2v-4h2l2 -2v-2h2l2 -4h2z" />
<glyph unicode="u" horiz-adv-x="1095" d="M610 254q-33 0 -55.5 -12.5t-22.5 -28.5t23 -28.5t55 -12.5q33 0 54.5 12.5t21.5 28.5t-21.5 28.5t-54.5 12.5zM1042 541q-63 0 -98 -10.5t-57 -30.5l2 -103h-29v-258q-45 -35 -117.5 -55.5t-160.5 -20.5q-63 0 -119.5 11.5t-102.5 31.5v379q2 23 13.5 38.5t27.5 17.5h45 v37h-151v34h-234v-41h84q8 0 18.5 -11t8.5 -19v-291q0 -49 30.5 -86t72.5 -62.5t88.5 -41t76.5 -21.5l-4 -25q35 -8 73 -11t79 -3q92 0 172 17.5t141.5 48t99 71.5t41.5 88v316zM952 514l6 2h5l4 2h4h6l6 2h4h8h6l5 2h8h6h6v-297l-4 -8l-2 -10l-2 -10l-4 -11l-4 -10l-9 -8 l-6 -10l-8 -8l-8 -11l-10 -8l-11 -10l-10 -8l-12 -9l-12 -8l-15 -8l-16 -6l-14 -8l-15 -6l-16 -7l-19 -6l-16 -6l-18 -4l-21 -6l-18 -4l-19 -4l-22 -4l-19 -2l-20 -2l-23 -3l-20 -2h-23h-22h-4h-6h-5h-6h-4h-4h-4h-6h-4h-4h-6h-5l-6 2h-4h-4h-4h-6l-4 3h-4h-6h-3h-6l-4 2h-4 h-4h-6l-4 2l-4 2l4 22l-25 6l-8 2l-8 2l-10 2l-9 3l-12 4l-10 4l-10 2l-11 4l-10 4l-12 6l-10 4l-11 4l-10 6l-10 5l-10 8l-11 6l-10 6l-8 6l-8 6l-8 9l-9 8l-8 8l-6 8l-6 8l-6 8l-4 11l-4 8l-2 10l-2 8l-3 11v12v291v2v2l-2 4v2v2l-2 4l-2 2l-2 2v2v2l-2 2h-2v2l-2 2l-2 2 v2h-2l-2 3l-2 2h-2l-2 2v2h-2l-4 2h-2h-2l-2 2h-2h-3h-2h-67v6h198v-33h152v-2h-27l-4 -2h-4h-2h-4l-2 -2l-4 -2l-2 -2h-2l-4 -2l-2 -2l-2 -2v-2l-2 -2l-5 -2l-2 -2v-2l-2 -3l-2 -4l-2 -2l-2 -2v-4l-2 -2v-2l-2 -4l-2 -2v-4v-2l-2 -4v-2v-4v-2v-5v-393l16 -6l7 -4l4 -2l6 -2 l8 -4h4l8 -2l6 -2l7 -2l8 -2l4 -2l8 -3l6 -2h8l7 -4h8l6 -2h8l6 -2h8l9 -2l8 -2h6l8 -2h8h6h9h8l8 -2h8h8h9h10h12l10 2h13h10l10 2h10l11 2l10 2h10l10 2l11 2l10 2l8 2l10 2l11 5l8 2l8 2l10 4l8 2l9 4l8 2l8 4l8 4l8 4l6 4l9 4l8 5l6 4l6 4l6 4l13 10v248h28v113l2 2h2 l2 4l4 2h3l2 2l4 2l2 2l4 2h4l2 2h4l4 2h4zM610 236h4h2h5h4h2h2l4 -3h4h2h2l4 -2l2 -2h2h2l2 -2h4l2 -2l3 -2l2 -2l2 -2h2v-2h2v-2v-2v-2v-2h-2v-2h-2l-2 -2v-2h-2l-3 -2l-2 -2h-4l-2 -2h-2l-2 -2h-2l-4 -2h-2h-2l-4 -3h-4h-2h-2h-4h-5h-2l-4 -2l-4 2h-4h-2h-4h-2h-4h-4 l-2 3h-2h-4l-3 2h-2l-4 2h-2l-2 2h-2v2h-4v2h-2l-2 2v2h-2l-2 2v2v2v2v2h2v2h2v2h2l2 2v2h4v2h2l2 2h2h4l2 2l3 2h4h2h2l4 3h4h2h4h2h4h4z" />
<glyph unicode="v" horiz-adv-x="1400" d="M606 283l-217 239q-18 29 8 37h107v27h-213l-21 30h-209v-57h74l219 -235h74l33 -41h145zM600 150l-41 40h-82l86 -90l12 4l101 -104l549 559h112v33h-145l2 24h-141zM367 530l2 -4l2 -2v-2v-4l2 -2h2l2 -4l190 -213h-98l-33 43h-76l-217 233h-65v23h184l21 -31h94h-2 l-2 -2l-2 -2v-2l-2 -2v-2l-2 -2l-2 -4v-2v-2v-4v-2v-2v-2v-2l2 -3v-2zM553 174l47 -49l461 473h115l-2 -23h32v-10l-530 -540l-96 102l-13 -6l-49 53h35z" />
<glyph unicode="w" horiz-adv-x="1495" d="M479 309l-166 223q-12 29 6 35h82v25h-163l-17 29h-160v-54h56l168 -219h57l27 -39h110zM475 184l-31 39h-63l65 -86l11 6l78 -100l186 233l178 -233l422 524h86v33h-111l2 21h-108l-344 -428l-94 124l84 103h86v31h-111l2 22h-108zM293 539h2v-2v-5l2 -2v-2l2 -4 l147 -198h-69l-25 39h-59l-166 219h-51v20h137l16 -29h74h-4v-2l-2 -2v-2h-2v-2l-2 -2v-4v-2l-2 -2v-2v-2v-2v-2v-2l2 -2v-2v-2v-2zM414 207h22l39 -47l236 297h84v-21h24v-10l-88 -109l115 -151l350 438h84v-20h25v-11l-406 -503l-178 233l-186 -233l-74 94l-10 -4z" />
<glyph unicode="x" horiz-adv-x="1241" d="M436 489l-90 70q-14 16 6 23h25v16h-117l-18 18h-185v-34h66l192 -146l172 -129l-63 -47h72l36 27l396 -287h123v14h127v21h-99l-383 272l283 203q-20 12 -46 16t-50 4q-25 0 -48.5 -3t-39.5 -7l-230 -166l-153 115zM537 205h-129l-27 -25h-66l-192 -145h-66v-35h185 l18 18h186v17h-94q-20 6 -6 22zM934 18l-402 289l-40 -28h-15l39 28l-194 148l-193 143h-55h159l21 -18h70v-2v-3v-4v-2v-2v-2v-2v-2l2 -2v-2l2 -2l2 -4l2 -2l2 -2l74 -58l-25 -22l182 -135l236 172l4 2h6l4 2h6h4l6 2h5h6l6 2h4l8 2h4h6h7h6h6h6h6h6l4 -2h7l6 -2h4l6 -2h6 l4 -2l-278 -199l387 -276h-23l2 -13h-98zM129 18l193 144h65l29 26h69l-151 -118l-2 -2l-2 -5l-2 -2v-2h-2v-2l-2 -2v-2v-2v-4v-4v-2v-2v-2h-70l-21 -19h-159h55z" />
<glyph unicode="y" horiz-adv-x="1110" d="M711 276l360 238q-47 25 -106.5 21.5t-96.5 -11.5l-225 -149l-264 188q-20 16 6 23h27v16h-129l-21 19h-201v-35h72l209 -146l166 -112v-299h72v-29h131v29h65v28h-65v219zM952 516l6 2h9h4h8l6 -2h6h6h9l4 -2h8l6 -2l6 -2h2l-340 -225v-267h-94v29h-72v289l-178 121 l-209 145h-61h178l20 -18h78v-2l-2 -2v-5v-2v-2l2 -2v-4v-2h2v-2l2 -2v-2l2 -2h2v-2l3 -2l2 -2l276 -197l231 156h3h4l4 2h6l6 2h4l8 2h4h9l6 2h4h8h6h6z" />
<glyph unicode="z" horiz-adv-x="1218" d="M1184 520v72h-82v26h-488q0 -12 -5 -17t-21 -3h-527v-145h35v24q2 10 25.5 24.5t38.5 14.5h817l-748 -366h90l154 75h111zM1094 119q12 0 33.5 13t23.5 24v24h33v-145h-66l-28 -35h-836v41h-170v35h86l84 43h840zM606 582l2 2h2h2l2 2l4 2h3v2l2 2l2 2l2 2l2 4h454v-25 h82v-45l-585 -286h-111l-154 -78h-8l748 369l-895 -3h-4h-2h-2l-5 -2h-2h-4l-2 -2l-4 -2h-2l-4 -2h-2l-4 -2h-2l-4 -4h-2l-4 -2l-2 -2l-3 -2l-2 -2l-4 -2h-2l-2 -2l-2 -4h-2l-2 -2l-2 -4l-2 -2l-2 -2l-2 -5v-2l-2 -4l-2 -4v-6v109h510h2h4h2h2h2l2 2h2h2zM1163 139l-2 -2 l-2 -2l-2 -2l-2 -2l-2 -2l-2 -2l-2 -2l-2 -2l-4 -2l-2 -2l-2 -2l-4 -2h-2l-3 -2l-2 -2h-4l-2 -2l-2 -3h-4l-2 -2h-2l-4 -2h-2h-2l-4 -2h-2h-2h-840l-68 -34v-7h82v-41h811l29 33h55v92l-2 -2v-2z" />
<glyph unicode="{" horiz-adv-x="776" d="M207 461v-2l2 -2v-2l2 -4v-2v-5l2 -2v-4v-4v-2v-289l4 -12l4 -16l6 -15l6 -14l7 -12l8 -15l6 -12l10 -12l8 -15l11 -10l8 -12l12 -10l10 -13l11 -8l12 -10l10 -10l12 -8l11 -11l12 -8l12 -6l13 -8l10 -6l12 -9l10 -4l13 -6l10 -6l10 -4l10 -4l11 -4l8 -4l6 18l-2 2l-15 4 l-12 4l-12 7l-12 6l-13 6l-12 6l-10 6l-12 6l-11 8l-10 7l-10 8l-10 8l-11 8l-8 8l-10 9l-8 8l-9 10l-8 8l-6 10l-8 9l-6 10l-6 10l-6 10l-5 11l-4 10l-4 10l-4 10l-2 10l-4 11v10l-2 12v236v6v8v8v6v7l-2 6v4v6l-2 4v4v4l-2 4v2l-2 2v3v2l-2 2v2l-2 2v2h-2v2h-2l-2 2h-3 l-2 2h-2l-2 2l-32 14l6 -10l2 -2v-2l2 -2v-2zM180 489h-2l45 33l2 2l2 2l4 2l2 2v2h3l2 3l2 2l2 2v2h2v2l2 2v2v2l2 2v2v2l2 4v4v2l2 6v4v5l2 6v6v6v8v6v9v206l2 13v12l2 10l4 12l4 11l4 12l6 10l7 11l6 10l6 10l8 10l8 8l8 11l9 8l8 8l10 8l10 8l9 9l10 8l10 6l12 6l11 6 l10 8l10 5l12 6l11 6l12 4l10 4l10 4l11 4l8 2l-2 6v-2l-11 -2l-10 -4l-10 -4l-10 -6l-13 -4l-12 -6l-12 -6l-14 -9l-13 -6l-12 -8l-14 -8l-13 -8l-14 -9l-12 -8l-13 -10l-12 -8l-12 -10l-10 -9l-11 -8l-10 -10l-8 -8l-10 -8l-6 -11l-7 -8l-6 -6l-4 -8l-2 -6l-2 -6l-2 -5v-4 l-2 -303v-2v-2v-2v-2v-2v-2v-2l-2 -2v-2v-2v-2l-2 -2v-2l-2 -2v-2v-3h-2v-2v-2l-2 -2l-2 -2v-2l-2 -2v-2l-2 -2v-2l-11 -14h-94v-11h88zM168 530q6 8 11 16.5t5 18.5v303q0 33 38 73t90.5 77t107.5 63.5t86 34.5q12 2 14 4l8 -24q35 8 67 10t60 0l33 59l27 -45l-31 -61v2 q-18 2 -30.5 4t-28.5 2t-40 -3t-61 -13q-39 -10 -81 -32t-77.5 -51.5t-58 -65.5t-22.5 -75v-206q0 -35 -3 -54.5t-8.5 -33t-14.5 -21.5t-21 -16q25 -10 36 -32t11 -89v-234q2 -37 21.5 -72.5t52 -67.5t74.5 -57.5t91 -39.5q92 -25 162 -10l21 -48q-84 -20 -177 4l-8 -30 q-4 2 -8 2q-2 0 -6 2q-35 10 -83 34.5t-97 63.5t-89 93.5t-57 123.5v293q0 10 -8 27h-111v71h105z" />
<glyph unicode="|" horiz-adv-x="376" d="M141 1135v-727h-49l2 -558h174v97h-18h-2h-2l-2 2h-2h-2h-4h-3l-2 2h-2l-2 2h-4l-2 2h-2l-2 2l-4 2l-2 2l-2 2l-2 4l-2 2l-2 4l-2 2l-2 2l-2 5v4l-2 4l-2 2v4v4v4v4v4v1123h-52zM111 1165h110v-1153q0 -23 10.5 -29t18.5 -6h49v-157h-236v618h48v727z" />
<glyph unicode="}" horiz-adv-x="776" d="M565 444l2 5v2l2 4v2l2 2v2l2 2v2l2 2v2l3 2l6 10l-33 -14l-2 -2h-2l-2 -2h-2h-2v-2h-2l-2 -2v-2h-2v-2v-2l-3 -2v-2l-2 -3v-2v-2l-2 -4v-4l-2 -4v-4v-6v-4l-2 -6v-7v-6v-8v-8v-6v-236l-2 -12l-2 -10l-2 -11l-2 -10l-4 -10l-4 -10l-4 -10l-6 -11l-4 -10l-7 -10l-8 -10 l-6 -9l-8 -10l-6 -8l-8 -10l-9 -8l-10 -9l-8 -8l-10 -8l-11 -8l-10 -8l-10 -7l-10 -8l-13 -6l-10 -6l-12 -6l-12 -6l-13 -6l-12 -7l-12 -4l-15 -4l-2 -2l4 -18h3l8 4l10 4l10 4l10 4l11 6l10 6l12 4l12 9l11 6l12 8l12 6l11 8l12 11l12 8l10 10l13 10l10 8l10 13l10 10 l11 12l10 10l8 15l8 12l8 12l9 15l6 12l6 14l6 15l4 16l4 12v289v2v4v4v2zM598 489h86v11h-92l-10 14v2l-2 2v2l-2 2v2l-3 2l-2 2v2v2h-2v3v2l-2 2v2l-2 2v2v2l-2 2v2v2v2v2l-2 2v2v2v2v303v4l-2 5l-2 6l-2 6l-4 8l-6 6l-6 8l-9 11l-8 8l-8 8l-10 10l-10 8l-13 9l-10 10 l-12 8l-12 10l-15 8l-12 9l-12 8l-15 8l-12 8l-14 6l-13 9l-12 6l-12 6l-13 4l-10 6l-10 4l-10 4l-10 2v2l-3 -6l7 -2l12 -4l10 -4l10 -4l13 -4l10 -6l10 -6l12 -5l11 -8l10 -6l10 -6l10 -6l11 -8l10 -9l10 -8l10 -8l9 -8l8 -8l8 -11l8 -8l8 -10l6 -10l7 -10l6 -11l6 -10 l4 -12l4 -11l4 -12l2 -10v-12v-13l2 -206v-9v-6v-8v-6v-6l2 -6v-5v-4v-6l2 -2v-4v-4l2 -2v-2l2 -2v-2v-2l3 -2v-2h2v-2l2 -2l2 -2l2 -3l2 -2l2 -2l2 -2l4 -2l2 -2l45 -33h-2zM608 530h107v-71h-111q-8 -16 -8 -27v-293q-16 -70 -56 -124t-89.5 -93t-98.5 -63.5t-82 -34.5 q-4 -2 -8 -2q-2 0 -6 -2l-8 30q-92 -25 -176 -4l20 48q70 -14 162 10q49 14 91 39.5t75 57.5t51 67.5t23 72.5v234q0 68 11 89t36 32q-12 8 -21.5 16t-14.5 21.5t-8 33t-3 54.5l-2 206q0 39 -23 75t-57.5 65.5t-76.5 51t-81 32.5q-39 10 -61.5 13t-38.5 3t-28.5 -2t-31.5 -4 v-2l-31 61l27 45l33 -59q29 2 60.5 0t66.5 -10l8 24q4 -2 6 -2t6 -2q33 -8 87.5 -34.5t107.5 -63.5t91 -77t38 -73v-303q0 -10 5 -18.5t9 -16.5z" />
<glyph unicode="~" horiz-adv-x="950" d="M252 958h4h6l4 3l-6 53l53 2h19l20 -2l19 -2l18 -2l19 -4l16 -2l10 -3l10 27h-4l-8 2l-8 2l-8 2l-10 2l-9 2h-10l-10 2l-12 2h-11l-12 2h-10h-15h-12h-12l-14 -2h-15l-14 -2l-17 -2l-14 -2l-16 -4l-17 -4l-18 -4l-18 -4l-17 -6l-20 -6l-13 -4l2 -3l2 -6l2 -6v-4l3 -6 l2 -6l2 -6l2 -9l2 -6l2 -4l2 -6l2 -6l2 -6l8 2l6 2l6 2l9 2l6 2l6 2l6 2l6 2h6l6 2l7 2h6l6 2h6l6 2h6l6 2h7l6 2h6zM887 956q-96 -39 -173 -37.5t-144.5 16.5t-133 33.5t-141.5 16.5l4 -53q-47 -2 -90 -10.5t-105 -30.5l-7 21q-7 20 -14 44.5l-13 45.5l-7 20q84 33 151 44 t118 9t89 -11t64 -15l-12 -31q55 -16 103.5 -27.5t96.5 -15.5t96 4t101 33l4 -8q3 -9 5 -20t3 -15z" />
<glyph unicode="&#xa0;" />
<glyph unicode="&#xa2;" horiz-adv-x="1138" d="M670 389h4h6h4h6h4h6h5l6 2h4h6h4h6h4l6 2h4h5h6h4l6 2h4h4l6 2h4h2v4l-6 -2h-10l-8 -2h-10l-9 -2h-10l-10 -2h-8h-10h-11l-10 -2h-8h-10h-2h-2h-3h-2h-2h-2h-2h-20l-10 2l-39 4h-17l-16 2l-14 4l-17 3l-14 4l-15 4l-14 2l-14 4l-15 6l-12 4l-12 4l-14 6l-11 6l-12 5 l-10 6l-13 6l-10 8l-10 6l-8 8l-8 7l-9 8l-8 8l-6 8l-6 8l-6 11l-6 8l-4 10l-2 10l-5 10v11l-2 12l2 10v10l5 11l2 10l4 10l6 8l6 11l6 8l6 8l8 8l9 8l8 9l8 6l10 8l10 6l13 6l10 6l12 6l11 5l14 6l12 4l12 6l15 4l14 4l14 4l15 2l14 4l17 2l14 5l16 2l17 2l49 4h20h2l-2 12 h-26l-45 -4l-21 -2l-20 -2l-21 -2l-18 -4l-21 -4l-18 -2l-19 -7l-18 -4l-18 -4l-17 -6l-16 -6l-17 -6l-14 -6l-14 -7l-15 -8l-14 -6l-12 -8l-11 -8l-12 -6l-10 -9l-8 -8l-10 -8l-9 -8l-6 -8l-6 -9l-4 -8l-6 -8l-2 -8l-4 -8l-2 -9l-2 -18l2 -16l2 -9l2 -8l4 -8l4 -8l6 -8 l6 -11l6 -8l9 -8l8 -8l10 -8l10 -8l10 -7l13 -8l12 -8l12 -6l15 -8l14 -6l16 -7l17 -6l16 -6l17 -6l16 -4l18 -6l21 -4l18 -4l19 -3l20 -4l21 -2l20 -4l21 -2l45 -2h26h2h2h2h2h5h6zM621 1020h30v-178h8h19l4 -29q113 -4 209 -35q23 -10 50.5 -23.5t68.5 -35.5l-35 -37 q-72 43 -111 57q-43 16 -94 22.5t-104 6.5h-15v-346h15q78 0 144.5 14.5t115.5 38.5q25 12 38 21.5t29 27.5h56l24 -53h-67q-14 -10 -23.5 -14t-30.5 -15q-29 -12 -62.5 -24t-70.5 -21l4 -24q-39 -8 -80 -11.5t-84 -3.5h-8v-178h-51v180q-90 6 -167 26t-135 50.5t-93 69.5 t-39 82h-92v24h92q4 43 40 82t94 70t135 50.5t165 25.5v34h21v146zM600 426v340q-63 -6 -117.5 -21.5t-94.5 -38t-62.5 -51t-22.5 -59.5q0 -33 22.5 -61.5t62.5 -51t94.5 -37t117.5 -20.5z" />
<glyph unicode="&#xa6;" horiz-adv-x="356" d="M141 1135v-500h52v500h-52zM92 408l2 -558h174v97h-18h-2h-2l-2 2h-2h-2h-4h-3l-2 2h-2l-2 2h-4l-2 2h-2l-2 2l-4 2l-2 2l-2 2l-2 4l-2 2l-2 4l-2 2l-2 2l-2 5v4l-2 4l-2 2v4v4v4v4v4v396h-101zM111 1165h110v-559h-110v559zM63 438h158v-426q0 -23 10.5 -29t18.5 -6h49 v-157h-236v618z" />
<glyph unicode="&#xa9;" horiz-adv-x="2344" d="M1094 561h-2l-2 2h-5l-2 2h-4l-2 2h-4l-2 2h-4l-4 2h-4h-2h-4h-4h-5h-4h-4h-4h-2h-4h-4h-2l-4 -2h-2h-4h-2l-4 -2h-3l-2 -2h-4l-2 -2h-2l-2 -2h-2h-2l-2 -2l-2 -2l-2 -2h-2v-2v-4v-2h2v-2h2l2 -2l2 -2h2l2 -2h2l2 -2h2h4l2 -2h5l2 -3h2h4h2l4 -2h2h4h4h2h4h4h4h5h4h4h2 l4 2h4h4l2 3h4h2l4 2h2l5 2l2 2h2l2 2h2l2 2v2h2l2 2l2 2l-2 2v2h-2l-2 2l-2 2h-2zM1204 37l49 4l47 6l48 6l47 8l45 9l43 10l43 10l41 12l41 13l39 14l36 14l37 17l35 16l33 17l33 18l28 18l29 19l27 20l24 21l23 20l20 23l19 20l16 23l14 22l13 23l8 22l8 23l6 24l4 25v47 l-4 23l-4 24l-8 23l-10 22l-13 25l-12 20l-18 23l-17 22l-20 21l-23 22l-24 21l-27 18l-29 21l-28 18l-33 19l-33 16l-35 16l-34 17l-39 14l-39 15l-41 12l-41 12l-43 12l-45 11l-45 8l-45 8l-47 6l-50 6l-47 4l-51 2l-49 2l-51 3h-13h-10h-10l-12 -3h-11h-12h-10h-10h-13 l-10 -2h-10h-12l-11 -2h-10l-10 -2h-10l-13 -2h-10l-10 -2h-10l-11 -2h-10l-10 -2l-10 -2h-11l-10 -2l-10 -2l-10 -2h-11h-2l11 -55l-54 -13l-24 -6l-23 -6l-24 -8l-23 -6l-20 -8l-23 -9l-20 -8l-23 -10l-20 -8l-19 -11l-18 -8l-21 -10l-16 -10l-18 -12l-17 -11l-16 -10 l-15 -12l-14 -13l-14 -10l-15 -12l-12 -12l-12 -13l-10 -14l-11 -12l-10 -13l-8 -12l-8 -14l-8 -12l-7 -15l-6 -14l-14 -35l-25 2h-75l24 -59h117v2v2v2v22l4 23l6 22l6 21l11 20l12 21l12 20l14 21l17 18l18 17l21 18l20 16l23 17l24 14l25 15l27 14l26 14l29 12l28 13 l31 10l33 10l33 11l33 8l34 8l35 6l37 6l37 6l37 4l39 5l39 2l38 2h39h41l39 -2l39 -2l37 -5l39 -4l37 -6l35 -6l34 -6l35 -8l35 -8l33 -11l31 -10l30 -10l31 -13l29 -12l26 -14l27 -14l24 -15l23 -14l23 -17l22 -16l19 -18l18 -17l16 -18l15 -21l14 -20l10 -21l10 -20 l9 -21l6 -22l2 -23l2 -22l-2 -23l-2 -22l-6 -23l-9 -22l-10 -21l-10 -20l-14 -21l-15 -18l-16 -19l-18 -18l-19 -16l-22 -17l-23 -16l-23 -17l-24 -14l-27 -14l-26 -12l-29 -13l-31 -12l-30 -10l-31 -11l-33 -10l-35 -8l-35 -8l-34 -8l-35 -6l-37 -5l-39 -4l-37 -4l-39 -2 l-39 -2h-41h-16h-14h-17h-14l-16 2h-15h-14l-16 2l-15 2h-16l-15 2l-14 2l-14 2l-15 2l-14 3l-14 2l-15 2l-14 4l-14 2l-15 2l-12 4l-14 2l-12 4l-15 2l-12 4l-14 4l-13 4l-12 4l-12 3l-13 6h-6l-28 -31l10 -2l14 -4l12 -6l13 -4l14 -5l14 -4l13 -4l14 -2l14 -4l15 -4l14 -2 l14 -4l15 -4l16 -2l14 -2l15 -2l16 -4l14 -3l17 -2l14 -2l17 -2l14 -2h16l17 -2h16l16 -2h15l18 -2h41l10 -61h2h3h2h2h2h2h51l49 2zM1245 311h-2l-12 -2l-10 -2h-13l-10 -2l-12 -2h-10l-13 -2h-12h-12l-11 -2h-12h-12h-12h-25h-23l-22 2l-23 2l-22 2l-23 4l-20 4l-21 4 l-20 5l-21 4l-20 6l-18 4l-19 6l-16 8l-19 6l-16 9l-16 8l-15 8l-14 8l-14 10l-13 9l-12 10l-10 10l-11 10l-10 13l-8 12l-6 12l-6 12l-6 13l-5 14l-2 14v15v14l2 12l5 15l6 12l6 14l6 13l8 10l10 12l11 10l10 11l12 10l13 10l14 8l14 11l15 8l16 8l16 6l19 8l16 6l19 7 l18 6l20 4l21 6l20 4l21 4l20 4l23 2l22 2l23 2l22 2h23h18l-6 29h-26h-29l-29 -2l-26 -2l-29 -4l-27 -4l-26 -4l-27 -4l-24 -7l-25 -6l-25 -6l-22 -6l-23 -8l-22 -8l-21 -9l-20 -8l-19 -10l-18 -8l-16 -10l-17 -11l-14 -10l-14 -12l-13 -10l-12 -13l-10 -10l-8 -12l-9 -11 l-6 -12l-6 -12l-4 -10l-2 -13l-4 -22l2 -25l4 -10l4 -12l4 -13l8 -10l7 -12l10 -10l10 -13l10 -10l13 -12l14 -10l14 -11l17 -10l16 -10l18 -10l19 -11l20 -8l21 -8l22 -8l23 -8l22 -6l25 -9l25 -4l26 -6l25 -4l28 -6l27 -2l27 -4l28 -2l29 -2h29l30 -2h7l6 2h6h6h8h6h6h7h6 h6h6l6 2h6h6h7h6l6 2h6h6l6 2h6h7l6 2h6h6l6 2h4zM1503 420l2 2l2 2h2h33l2 -4h-41zM946 539h-65v22h65q6 18 33 29.5t61 11.5q41 0 69 -14.5t28 -36.5q0 -23 -28 -37t-69 -14q-35 0 -60.5 11.5t-33.5 27.5zM1055 1077q209 0 393 -40t323.5 -109.5t224.5 -163.5t95 -201h195 v-53h-195q-10 -106 -96 -199.5t-225.5 -162t-323.5 -108.5t-391 -40h-39l-10 61q-135 4 -255 29t-223 66l72 80q94 -35 206 -53.5t234 -18.5q156 0 295.5 29.5t241.5 82t162.5 123t60.5 150.5t-60.5 149.5t-162.5 121.5t-241.5 83t-295.5 31q-158 0 -295 -31t-240.5 -83 t-162.5 -121.5t-59 -149.5v-19q0 -8 2 -18h-170l-52 121h125h2q20 61 67.5 115.5t116 100.5t155.5 82t190 58l-10 58q82 14 168 22t178 8zM1083 250q-123 0 -230.5 22.5t-189 60.5t-131 90t-55.5 112h-115v28h115q6 57 56.5 108.5t132.5 90.5t189.5 60.5t227.5 21.5h23 l6 -33q72 -2 136.5 -13.5t119.5 -31.5q29 -10 62.5 -26.5t82.5 -47.5l-40 -43q-90 53 -138 70q-104 37 -243 37q-92 0 -173 -16.5t-141.5 -46t-95.5 -68.5t-35 -82t35 -82t95.5 -69t141 -46t173.5 -16q94 0 177 17.5t144 47.5q29 14 45.5 25.5t36.5 34.5h68l30 -66h-84 q-16 -10 -28.5 -17t-36.5 -18q-37 -16 -77 -30.5t-87 -24.5l6 -31q-97 -18 -203 -18z" />
<glyph unicode="&#xad;" d="M725 438l-2 4l-2 4l-2 5l-2 4l-2 6l-2 4l-2 4l-2 4v6l-2 4v4h-615v-51h236v-76h594v39h-129h-7h-6l-4 2l-6 2h-6l-4 3l-4 4l-4 2l-4 4l-7 2l-2 4l-4 4l-4 4l-2 4zM63 518h672q0 -33 14.5 -60.5t43.5 -27.5l159 -2v-96h-655v74h-234v112z" />
<glyph unicode="&#xae;" horiz-adv-x="2330" d="M1204 37l49 4l47 6l48 6l47 8l45 9l43 10l43 10l41 12l41 13l39 14l36 14l37 17l35 16l33 17l33 18l28 18l29 19l27 20l24 21l23 20l20 23l19 20l16 23l14 22l13 23l8 22l8 23l6 24l4 25v47l-4 23l-4 24l-8 23l-10 22l-13 25l-12 20l-18 23l-17 22l-20 21l-23 22l-24 21 l-27 18l-29 21l-28 18l-33 19l-33 16l-35 16l-34 17l-39 14l-39 15l-41 12l-41 12l-43 12l-45 11l-45 8l-45 8l-47 6l-50 6l-47 4l-51 2l-49 2l-51 3h-13h-10h-10l-12 -3h-11h-12h-10h-10h-13l-10 -2h-10h-12l-11 -2h-10l-10 -2h-10l-13 -2h-10l-10 -2h-10l-11 -2h-10 l-10 -2l-10 -2h-11l-10 -2l-10 -2l-10 -2h-11h-2l11 -55l-54 -13l-24 -6l-23 -6l-24 -8l-23 -6l-20 -8l-23 -9l-20 -8l-23 -10l-20 -8l-19 -11l-18 -8l-21 -10l-16 -10l-18 -12l-17 -11l-16 -10l-15 -12l-14 -13l-14 -10l-15 -12l-12 -12l-12 -13l-10 -14l-11 -12l-10 -13 l-8 -12l-8 -14l-8 -12l-7 -15l-6 -14l-14 -35l-25 2h-75l24 -59h117v2v2v2v22l4 23l6 22l6 21l11 20l12 21l12 20l14 21l17 18l18 17l21 18l20 16l23 17l24 14l25 15l27 14l26 14l29 12l28 13l31 10l33 10l33 11l33 8l34 8l35 6l37 6l37 6l37 4l39 5l39 2l38 2h39h41l39 -2 l39 -2l37 -5l39 -4l37 -6l35 -6l34 -6l35 -8l35 -8l33 -11l31 -10l30 -10l31 -13l29 -12l26 -14l27 -14l24 -15l23 -14l23 -17l22 -16l19 -18l18 -17l16 -18l15 -21l14 -20l10 -21l10 -20l9 -21l6 -22l2 -23l2 -22l-2 -23l-2 -22l-6 -23l-9 -22l-10 -21l-10 -20l-14 -21 l-15 -18l-16 -19l-18 -18l-19 -16l-22 -17l-23 -16l-23 -17l-24 -14l-27 -14l-26 -12l-29 -13l-31 -12l-30 -10l-31 -11l-33 -10l-35 -8l-35 -8l-34 -8l-35 -6l-37 -5l-39 -4l-37 -4l-39 -2l-39 -2h-41h-16h-14h-17h-14l-16 2h-15h-14l-16 2l-15 2h-16l-15 2l-14 2l-14 2 l-15 2l-14 3l-14 2l-15 2l-14 4l-14 2l-15 2l-12 4l-14 2l-12 4l-15 2l-12 4l-14 4l-13 4l-12 4l-12 3l-13 6h-6l-28 -31l10 -2l14 -4l12 -6l13 -4l14 -5l14 -4l13 -4l14 -2l14 -4l15 -4l14 -2l14 -4l15 -4l16 -2l14 -2l15 -2l16 -4l14 -3l17 -2l14 -2l17 -2l14 -2h16l17 -2 h16l16 -2h15l18 -2h41l10 -61h2h3h2h2h2h2h51l49 2zM805 805h-62v-19h-28l2 -2l2 -4v-4l2 -4v-4l2 -4v-4v-4v-385v-4h12v-25h58v18h41v222h-29v223zM1352 768l8 -6l6 -6l8 -6l6 -7l6 -6l7 -8l4 -8l4 -8l4 -8l4 -9l2 -10l2 -8v-6v-6v-7v-6l-2 -6l-2 -4l-2 -6l-2 -6l-2 -4 l-2 -4l-4 -7l-2 -4l-4 -4l-5 -4l-4 -4l-4 -4l-4 -4l-4 -2l-4 -4l-4 -4l-6 -4l-4 -3l6 5l6 2l6 4l6 4l6 4l7 4l6 4l6 4l6 4l4 4l6 4l4 5l4 4l5 4l4 4l4 4l2 4l4 4l2 2v4l2 2v2l2 2v11l-2 10v6l-2 6l-2 6l-4 7l-4 4l-4 6l-7 6l-4 6l-6 4l-8 6l-8 6l-8 5l-9 6l-10 4l-10 6z M1352 487l-6 -4l59 -90l4 -4l4 -6l2 -6l2 -6v-9l-2 -8l-2 -8l-4 -4h88l-108 162h-3l-6 -4l-8 -4l-6 -2l-8 -5zM1151 662h2h2h2l2 2h2h-2l-2 2h-2h-2l-2 2h-2h-2h-2h-2l-2 2h-2h-2h-2h-2h-3l-2 -2h-2h-2h-2h-2h-2l-2 -2h-2h-2l-2 -2h2l2 -2h2h2l2 -3h2h2h2h2h2h3h2h2h2h2h2h2 h2h2zM1055 1077q209 0 393 -40t323.5 -109.5t224.5 -163.5t95 -201h195v-53h-195q-10 -106 -96 -199.5t-225.5 -162t-323.5 -108.5t-391 -40h-39l-10 61q-135 4 -255 29t-223 66l72 80q94 -35 206 -53.5t234 -18.5q156 0 295.5 29.5t241.5 82t162.5 123t60.5 150.5 t-60.5 149.5t-162.5 121.5t-241.5 83t-295.5 31q-158 0 -295 -31t-240.5 -83t-162.5 -121.5t-59 -149.5v-19q0 -8 2 -18h-170l-52 121h125h2q20 61 67.5 115.5t116 100.5t155.5 82t190 58l-10 58q82 14 168 22t178 8zM713 817v19h422h4q70 0 130 -12.5t106 -33t74 -49 t32 -63.5h63v-19h-63q-2 -18 -19.5 -38.5t-42 -39t-52.5 -32.5l-46 -23q-18 -8 -44 -14t-51.5 -11t-50 -8.5t-40.5 -3.5h-13l-4 21q-37 2 -81 10t-79 23l25 26q31 -12 70 -18t77 -6q20 0 65.5 6t90.5 24q41 16 70.5 42t25.5 55q-8 59 -77.5 86.5t-174.5 27.5v2 q-70 0 -149.5 -1t-144.5 -1v-174h28v-264h54v-18h-95v-19h-118v25h-87v24h60q4 0 9 1t5 12v383q0 20 -15 32.5t-28 12.5h-51v16h115zM1399 547l135 -207h63v-29h-153h-72v19h-47v24h41q16 0 19.5 8.5t-3.5 12.5l-69 102q-29 -10 -56.5 -13t-50.5 -7l-14 22q43 6 100.5 19.5 t106.5 48.5zM1194 672h43v-15h-43q-8 -29 -59 -28q-25 0 -43.5 10t-18.5 25q0 16 18.5 26t43.5 10q23 0 39 -8t20 -20z" />
<glyph unicode="&#xb0;" horiz-adv-x="761" d="M590 930l-10 22l-2 4l-3 5l-4 4l-4 4l-4 4l-4 6l-4 4l-6 4l-6 4l-6 4l-7 4l-6 5l-8 4l-8 2l-6 4l-8 4l-11 2l-8 4l-8 2l-10 4l-11 2l-8 2l-10 2l-10 2l-12 2l-11 2h-10h-10l-13 2h-12h-10h-14h-13l-12 -2h-14l-13 -2l-12 -2l-12 -2l-10 -2l-13 -4l-10 -2l-12 -4l-8 -2 l-11 -4l-10 -4l-8 -4l-10 -4l-8 -7l-7 -4l-8 -4l-6 -6l-6 -4l-4 -6l-6 -4l-4 -6l-5 -4l-2 -7l-4 -4l-2 -6v-4l-2 -4v-6l-2 -4l2 -4v-7l2 -4v-4l2 -6l4 -4l2 -6l5 -4l4 -6l6 -4l4 -7l6 -4l6 -4l8 -6l7 -4l8 -4l10 -4l8 -6l10 -2l11 -5l8 -4l12 -4l10 -2l13 -2l10 -4l12 -2 l12 -2l13 -2h14l12 -2h13h14h12h10l13 2h10l12 2l11 2h10l10 2l12 2l9 2l10 4l10 2l8 4l10 2l9 5l8 2l8 4l6 4l8 4l6 4l9 4l6 4l4 4l6 6l4 5l4 4l4 4l4 4l2 4l5 6l2 4l10 23h84v4h-86zM610 961h97v-66h-95q-20 -51 -96 -85t-176 -34q-57 0 -107.5 12.5t-88.5 32t-59.5 47 t-21.5 58.5t21.5 58.5t59.5 47t88.5 31.5t107.5 12q98 0 172.5 -32.5t97.5 -81.5z" />
<glyph unicode="&#xb1;" horiz-adv-x="835" d="M586 121l-4 4l-2 2l-2 4l-3 4l-2 4l-2 2l-2 4l-2 5l-2 4v4l-2 4v4l-2 2h-469v-29h184v-57h453v16h-94h-6h-4l-4 2h-7l-4 2l-4 2l-4 2l-4 3l-4 4l-2 2l-4 4zM569 629v2l-2 4l-2 4v4l-2 4h-135v35v125h-70v57h-12v-217h-254v-20h187v-52h67v-184h64v-51h18v41v2v141v51h303 v9h-96h-4h-4l-6 2h-5l-4 2l-4 2l-4 2l-4 2l-4 2l-4 2l-2 4l-4 2l-2 4l-2 2l-4 4l-3 2l-2 5l-2 4zM63 199h527q0 -27 11 -48.5t34 -21.5h127l-2 -78h-512v60h-185v88zM63 678h252v217h74v-57h70v-160h131q0 -25 11 -44.5t34 -19.5h127v-69h-303v-236h-80v51h-64v185h-67v51 h-185v82z" />
<glyph unicode="&#xb2;" horiz-adv-x="835" d="M721 754l-4 -2h-2h-426l-47 -29h452l19 27h24v10v-2h-2l-2 -2h-4l-2 -2h-2h-4zM698 1030v2v2l2 2v11l-2 6l-2 2l-2 4l-2 2l-4 4l-4 4l-6 4l-6 4l-6 4l-9 4l-8 5l2 -3l4 -8l4 -6l3 -8l2 -10v-8v-5v-2v-4l-2 -4v-2l-3 -4v-4l-2 -2l-2 -4v-4l-4 -2l-2 -4l-2 -5l-4 -2l-4 -4 l-4 -4l-207 -96l242 109l2 2h2l2 2h2l2 2l2 2h2v2h2l2 2v2h2v2h2v2h2v2l2 2v2zM713 782q8 0 21.5 10.5t15.5 20.5v16h18v-108h-39l-18 -27h-527v31h-106v27h53l53 30h529zM389 1165q68 0 127 -8t104.5 -23.5t74 -36t34.5 -42.5h47v-21h-47q0 -12 -9 -28.5t-38 -28.5 l-281 -129h-75l-101 -47l-55 6l448 211q8 4 11.5 13t3.5 18q2 18 -17.5 31.5t-53.5 23.5t-79 16t-94 6q-6 0 -46 -1t-84 -10t-80 -27.5t-36 -49.5h-63l-17 27h41q14 29 61.5 49.5t113.5 30.5l-3 12q27 4 55.5 6t57.5 2zM455 1047h39v-13h-37q-10 -25 -56 -24q-23 0 -39 9 t-16 21q0 10 16.5 19.5t38.5 9.5q46 1 54 -22z" />
<glyph unicode="&#xb3;" horiz-adv-x="878" d="M465 825h43v11h-41q-4 10 -20.5 15t-38.5 5q-25 0 -42.5 -7t-17.5 -18q0 -10 17.5 -17t42.5 -7q23 0 38 5t19 13zM571 948q80 -16 131.5 -46t55.5 -64h49v-15h-49q-4 -27 -35 -50t-81 -40.5t-117.5 -28t-143.5 -10.5q-70 0 -127 6l4 15q-29 4 -54.5 11t-47.5 15 q-16 4 -23.5 7.5t-17.5 9.5h-52l19 28h43q18 -14 49 -26q39 -14 90 -22.5t111 -8.5q57 0 108.5 8t89 21.5t59 31t21.5 37.5q0 33 -53 57.5t-135 35.5q-14 2 -27.5 3t-27.5 1v22h26v17q16 0 23 2q72 8 120 29.5t48 49.5q0 18 -19.5 34t-51.5 27t-76 17t-93 6q-78 0 -133 -14 q-2 0 5 -6t5 -6q-12 -4 -28.5 -10.5t-38.5 -16.5l-50 39q37 16 94.5 32.5t149.5 18.5q66 0 123 -9t102.5 -24.5t72 -36t30.5 -42.5h31v-13h-31q-4 -29 -44.5 -52.5t-103.5 -39.5zM653 1024l-2 -6l-4 -6l-4 -6h2l4 2l6 4l2 2l5 2l4 2l4 2l2 4l4 2l2 2l2 2l2 2l2 2v2l2 2v2 l2 2v5v4l-2 2v2l-2 4l-4 2l-2 4l-4 4l-4 4l-6 4l-7 4l-6 4l-8 2l-6 5l2 -2l4 -7l4 -6l4 -8l4 -8v-8l2 -9v-8l-2 -6zM639 897l6 -4l6 -4l4 -4l7 -6l4 -5l4 -6l4 -6l2 -6l4 -6l2 -8v-6l2 -9l-2 -10l-2 -8l-2 -8l-4 -8l-6 -9l-4 -6l-7 -6l-4 -4h2l11 6l8 4l10 4l8 4l6 7l7 4 l6 4l4 6l4 4l4 4l2 4l2 2v4l2 4l-2 7v2l-2 4v2l-2 2l-2 2l-2 2l-4 4l-2 2l-4 4l-2 2l-7 4l-4 2l-4 4l-6 2l-4 5l-6 2l-6 4l-6 2l-9 4l-6 2l-8 2z" />
<glyph unicode="&#xb4;" horiz-adv-x="456" d="M199 1044l-93 -249h44l30 86v2l2 4l2 4l2 2l2 2l2 4v2l3 4l4 2l2 2l2 2l2 2l2 2l2 5l4 2l2 2h2l4 2l2 2l2 2l4 2l2 2h4l3 2h4l2 2h4l4 2h4h2h4h4l45 2l37 102h-147zM176 1075h215l-61 -166h-66q-16 0 -32.5 -11t-22.5 -28l-39 -104h-107z" />
<glyph unicode="&#xb7;" horiz-adv-x="376" d="M90 530h27h2h4l4 -2h4l2 -2h4l4 -2l2 -2h4l3 -2l2 -2l4 -2l2 -4l2 -2l2 -2l2 -2l2 -2l2 -4l2 -2l2 -2v-4l2 -3v-4l2 -2v-4l2 -2v-4l2 -2v-4v-4v-2h94v184h-184v-115zM305 676l-2 -246h-153v27q0 16 -9.5 29.5t-23.5 13.5h-56v176h244z" />
<glyph unicode="&#xb8;" horiz-adv-x="385" d="M334 217v-57h-72v-297h-96v119q2 18 -9.5 32.5t-25.5 14.5h-59v188h262zM135 59h2l4 -2h4l5 -2h4l2 -2l4 -2l2 -2l4 -2l2 -2l2 -2l4 -2l2 -2l2 -2l2 -4l2 -2l2 -4l2 -2v-2l2 -5l2 -2l3 -4v-2l2 -4v-4l2 -2v-4v-4v-2v-4v-4v-88h36v290h-133v-125h31h4z" />
<glyph unicode="&#xb9;" horiz-adv-x="385" d="M158 1036v-2v-284v-2h59v-23h35l-2 2l-2 4l-2 2v2l-2 4l-2 2v4l-2 3v2l-2 4v2v4v2v4v2v2v332h-33v33h-45l-4 -7l-2 -4l-4 -4l-5 -2l-6 -4l-4 -2l-6 -2l-6 -2l-6 -2h-4h-19v-4h2h4h2l4 -2h5l4 -2l2 -2h4l4 -2l2 -2l4 -2l2 -3l2 -2l4 -4l2 -2l2 -2l2 -4l2 -2l3 -4l2 -2 l2 -4v-4l2 -2v-4l2 -2v-5v-4v-4zM137 1165h99v-32h32v-363q0 -31 31 -33h31v-24h-33q-12 0 -17.5 -7.5t-5.5 -11.5h-88v23h-123v20h52q4 0 8 2t4 11v282q0 41 -47 41h-17v64h48q12 0 19 9t7 19z" />
<glyph unicode="&#xbc;" horiz-adv-x="1226" d="M137 1075h99v-33h32v-360q0 -33 31 -33h31v-26h-33q-12 0 -17.5 -6.5t-5.5 -10.5h-88v23h-123v20h52q4 0 8 1t4 9v285q0 39 -47 39h-17v66h48q26 -1 26 26zM158 948v-4v-285h59v-24h35l-2 2l-2 4l-2 2v4l-2 2l-2 2v4l-2 2v5l-2 2v4v2v2v4v2v4v330h-33v32h-45l-4 -4l-2 -4 l-4 -4l-5 -4l-6 -4l-4 -2l-6 -2l-6 -2h-6h-4h-19v-4l2 -2h4h2l4 -2h5l4 -2h2l4 -2l4 -2l2 -3l4 -2l2 -2l2 -2l4 -2l2 -4l2 -2l2 -2l2 -4l3 -2l2 -4l2 -4v-2l2 -4v-2l2 -5v-4v-4v-2zM922 1075l59 -53l-391 -447l55 -47l-467 -528l-115 102zM924 1032l-818 -928l70 -61 l426 483l-55 47l391 445zM565 219h66l31 31h313v180h-68l-168 -151h-96l82 69l29 -8l139 131l197 -2v-256h71v-35h-71v-135h67v-27h-98l2 -16h-70l-6 4q-6 6 -11 9t-22 3h-73v27h57l-2 131h-414zM979 45l2 -2h2l2 -2h2l2 -2h2l2 -2h2v-2h2l2 -2l2 -2h3h22l-2 16h35v131v35 v227h-53v-219h-332l-12 -16h303v-158h2h2h2l2 -2h2h2h2z" />
<glyph unicode="&#xbd;" horiz-adv-x="1415" d="M1296 61h-2h-4h-426l-45 -28h451l18 26h27v11l-2 -2h-2l-2 -2h-2l-4 -3h-3zM158 948v-4v-285h59v-24h35l-2 2l-2 4l-2 2v4l-2 2l-2 2v4l-2 2v5l-2 2v4v2v2v4v2v4v330h-33v32h-45l-4 -4l-2 -4l-4 -4l-5 -4l-6 -4l-4 -2l-6 -2l-6 -2h-6h-4h-19v-4l2 -2h4h2l4 -2h5l4 -2h2 l4 -2l4 -2l2 -3l4 -2l2 -2l2 -2l4 -2l2 -4l2 -2l2 -2l2 -4l3 -2l2 -4l2 -4v-2l2 -4v-2l2 -5v-4v-4v-2zM924 1032l-818 -928l70 -61l426 483l-55 47l391 445zM1274 340v2h2v2v2l2 10l-4 4v5l-2 2l-4 4l-4 4l-4 4l-7 4l-4 4l-8 4l-6 2l-8 4l-2 2l2 -2l4 -8l4 -6l4 -10v-8v-9 v-4v-4v-2v-4l-2 -2v-4l-2 -4v-2l-2 -4l-2 -4l-2 -3l-2 -4l-4 -4l-2 -4l-4 -2l-7 -4l-204 -96l239 108h2l4 2l2 2l2 2h2l3 3l2 2h2v2h2v2l2 2l2 2l2 2v2l2 2v2zM1290 92q8 0 21.5 10.5t13.5 18.5v18h21v-110h-41l-19 -27h-526v33h-107v26h56l51 31h530zM137 1075h99v-33h32 v-360q0 -33 31 -33h31v-26h-33q-12 0 -17.5 -6.5t-5.5 -10.5h-88v23h-123v20h52q4 0 8 1t4 9v285q0 39 -47 39h-17v66h48q26 -1 26 26zM922 1075l59 -53l-391 -447l55 -47l-467 -528l-115 102zM967 475q68 0 127 -8t104 -23.5t73.5 -36t35.5 -42.5h45v-23h-45 q-2 -10 -11.5 -26.5t-38.5 -30.5l-280 -127h-76l-100 -47l-56 6l451 211q6 4 9 13l5 15q0 18 -19.5 32.5t-53 25t-78.5 16.5t-94 6q-6 0 -46 -2t-84 -10t-80 -26.5t-36 -49.5h-64l-16 27h41h2q14 29 60 49t114 31l-4 12q27 4 55.5 6t59.5 2zM1032 356h39v-12h-39 q-4 -10 -18.5 -17.5t-36.5 -7.5q-23 0 -39 9.5t-16 19.5q0 12 16 21.5t39 9.5q43 0 55 -23z" />
<glyph unicode="&#xbe;" horiz-adv-x="1574" d="M686 952h2v2v4v3l-2 2v2l-2 4l-4 2l-2 4l-4 4l-4 4l-6 4l-7 4l-6 4l-8 4l-6 2l2 -2l4 -6l4 -6l4 -8l4 -8v-8l2 -9v-6l-2 -8l-2 -6l-2 -6l-4 -6l-4 -7h2l4 5l6 2l2 2l5 2l4 4l4 2l2 2l4 2l2 2l2 2l2 2l2 2v2l2 2v2v2zM639 807l6 -4l6 -4l4 -4l7 -4l4 -7l4 -6l4 -6l2 -6 l4 -6l2 -8v-7l2 -8l-2 -8l-2 -10l-2 -8l-4 -9l-6 -8l-4 -6l-7 -6l-4 -4l2 2l11 4l8 4l10 4l8 6l6 4l7 5l6 6l4 4l4 4l4 4l2 4l2 4v2l2 2v6l-2 2v3v2l-2 2v2l-2 2l-2 2l-2 4l-4 2l-2 4l-4 2l-2 4l-7 2l-4 4l-4 2l-6 4l-4 2l-6 5l-6 2l-6 4l-9 2l-6 2l-8 4h-2zM1260 1032 l-820 -928l70 -61l426 483l-53 47l391 445zM1315 45l2 -2h2l2 -2h2l2 -2h2l2 -2l2 -2h2v-2h2l2 -2h25l-2 16h35v131v35v227h-56v-219h-329l-15 -16h305v-158h3h2h2l2 -2h2h2h2zM465 737h43v11h-41q-4 8 -20.5 13t-38.5 5q-25 0 -42.5 -7t-17.5 -18q0 -10 17.5 -16t42.5 -6 q23 0 38 4t19 14zM571 858q80 -16 131.5 -46t55.5 -64h49v-15h-49q-4 -27 -35 -50.5t-81 -40.5t-117.5 -27.5t-143.5 -10.5q-35 0 -66.5 2t-60.5 6l4 15q-55 8 -102 24q-16 4 -23.5 8.5t-17.5 8.5h-52l19 30h43q10 -10 21.5 -15t27.5 -13q80 -29 201 -29q57 0 108.5 7 t89 20.5t59 31t21.5 37.5q0 33 -53 57.5t-135 34.5q-14 4 -29 5q-12 0 -26 2v20h26v16q16 0 23 2q72 8 120 30t48 50q0 18 -19.5 34t-51.5 27t-76 17t-93 6q-76 0 -133 -12q-2 -2 5 -8t5 -6q-12 -4 -28.5 -10.5t-38.5 -16.5l-50 39q37 16 94.5 33.5t149.5 17.5q66 0 123 -8 t102.5 -23.5t72 -36t30.5 -44.5h31v-11h-31q-4 -29 -44.5 -53.5t-103.5 -40.5zM1255 1075l62 -53l-391 -447l55 -47l-467 -528l-117 102zM901 219h66l30 31h312v180h-66l-168 -151h-96l82 69l29 -8l139 131l194 -2l2 -256h72v-35h-72v-135h68v-27h-98l2 -16h-70l-6 4 q-6 6 -11 9t-22 3h-76v27h58v131h-414z" />
<glyph unicode="&#xd7;" d="M899 825l2 6v7v6v6v6v8l-2 6v7l-2 8v6l-2 8l-2 6l-2 8l-2 7l-2 8l-2 6l-4 8l-2 6l-2 6l-5 7l-2 6l-4 6l-4 4v2l-303 -303l-291 295l-37 -37l183 -184l-54 -52l111 -112l-256 -256l61 -64l-51 -51l37 -37l6 6l8 9l7 8l8 6l6 8l6 6l6 6l6 6l7 7l6 4l6 6l6 6l6 6l6 6l6 8 l9 7l8 8l6 8l10 8l8 10l11 11l12 12l12 10l12 15l15 12l14 16l17 17l16 16l20 18l41 43l301 -301l27 27l-104 104l-5 5l-4 4l-2 4l-4 6l-2 4l-2 6l-2 4v6l-2 4v7l-2 6v4v6l2 4v6v4l2 6l2 5l2 6v4l2 4l2 4l2 6l4 4l2 4l3 4l-132 131l25 27l6 6l4 4l6 6l7 7l6 6l6 6l8 6l6 6 l6 8l9 7l8 8l6 8l8 8l8 6l8 8l9 9l16 16l8 8l6 8l17 15l8 8l6 8l8 6l6 8l9 7l6 6l6 6l6 6v2h2v6v4zM268 1014l291 -295l305 303q20 -18 35.5 -47t23 -61.5t8.5 -63.5t-5 -51l-54.5 -54.5l-63.5 -63.5t-60.5 -59.5t-45.5 -46.5l129 -129q-23 -23 -30.5 -54.5t14.5 -53.5 l125 -125l-70 -70l-301 301l-92 -92t-61.5 -62.5t-42 -42t-32.5 -32.5t-33.5 -34.5l-45.5 -45.5l-80 80l51 51l-61 64l256 256l-111 112l54 52l-183 184z" />
<glyph unicode="&#xdc;" horiz-adv-x="1748" d="M887 387v2l-2 2l-2 2l-2 4l-2 2l-2 2l-3 2l-4 3l-2 2l-4 2l-2 2l-4 2h-2l-4 2l-4 2l-4 2h-4l-4 2l-5 2h-4l-4 2h-4h-4l-6 2h-4h-4h-6h-4h-7l-4 -2h-6h-4l-6 -2h-4l-6 -2l-4 -2l-5 -2h-4l-4 -2l-4 -2l-4 -2l-4 -4l-2 -2l-4 -3l-2 -2l-4 -2l-2 -2l-2 -4l-2 -2l-2 -2v-2 l-3 -4l-2 -2v-2l-2 -2v-2v-4v-2v-2v-2v-5v-2v-2l2 -2v-4l2 -2l3 -2v-2l2 -4l2 -2l2 -2l2 -2l4 -2l2 -4l4 -2l2 -2l4 -2l4 -3l4 -2l4 -2l4 -2l5 -2h4l6 -2l4 -2h6h4l6 -2h4h7h4h6h4h4h6l4 2h4h4l4 2l5 2h4l4 2h4l2 2l4 2l4 2l4 3l2 2l2 2l4 2l2 2l2 2l3 2l4 2v2l2 2l2 2l2 2 l2 2v2l2 2v2v27v2v2l-2 2zM922 346q-10 -31 -45 -51.5t-82 -20.5q-53 0 -90 27t-37 66t36.5 65.5t90.5 26.5q47 0 81.5 -21.5t45.5 -52.5h88v-39h-88zM696 705h-12l-14 -3l-13 -2h-12l-14 -2h-13l-12 -2l-12 -2l-12 -2l-13 -2h-12l-10 -2l-12 -2l-13 -2l-10 -2l-12 -2 l-11 -2l-12 -2l-10 -2l-10 -2l-11 -2l-10 -4l-10 -2l-10 -2l-47 -13l-2 86h-41v170h737v31h276l4 2l5 2l6 4l4 2l4 4l4 2l4 4l4 2l4 5l2 2l4 4l2 4l3 4l4 2l2 4l2 4l2 4l2 4l2 6l2 5l2 4l2 6v6l2 4v6l2 6v6h-1053h-104v-438h131h6l10 4l11 2l12 2l10 4l13 3l12 2l10 2l12 2 l11 2l12 2l12 2l12 2l11 2l12 2l12 2h13l12 2l12 2l12 2h13l12 2h12l13 2h12h14l12 2h13h14l12 2h13h14h12h31l29 -2l28 -2l29 -2l27 -4l28 -4l27 -4l25 -4l26 -6l25 -6l24 -7l23 -6l24 -8l23 -8l20 -8l21 -9l20 -10l19 -10l16 -10l19 -10l16 -13l14 -10l15 -12l12 -15 l10 -12l10 -14l11 -15l8 -16l6 -14l4 -17l2 -16v-19v-16l-2 -16l-4 -17l-6 -16l-8 -14l-9 -15l-10 -14l-12 -14l-12 -13l-15 -14l-14 -10l-16 -13l-17 -12l-18 -10l-19 -10l-18 -11l-21 -8l-22 -8l-21 -8l-22 -8l-25 -9l-24 -6l-25 -6l-24 -4l-27 -6l-27 -4l-28 -4l-27 -2 l-29 -4h-28l-29 -2h-31h-28l-29 2h-29l-28 4l-27 2l-29 4l-26 4l-27 6l-24 4l-25 6l-25 6l-24 9l-23 8l-20 8l-23 8l-20 8l-19 11l-20 10l-17 10l-16 12l-16 13l-15 10l-14 14l-12 13l-13 14l-10 14l-8 15l-8 14l-6 16l-4 17l-2 16v10h-74l-10 -20h43l24 2l12 -31l3 -8l6 -8 l4 -10l6 -9l6 -8l8 -8l6 -8l9 -10l8 -9l10 -8l8 -8l10 -8l11 -6l12 -9l12 -8l13 -6l12 -8l12 -6l14 -8l15 -7l14 -6l14 -6l15 -6l16 -6l15 -6l16 -4l18 -7l17 -4l16 -4l19 -4l47 -10l-7 -37l7 -2h6l8 -2h8l6 -2h8l9 -2h8h6l8 -2h8l9 -2h8h6h8l8 -2h9h8h8h8l8 -2h6h9h8h8h8h8 h9h36l37 2l35 2l35 2l35 4l35 4l32 6l33 4l31 8l31 7l30 8l29 8l29 10l26 8l27 13l24 10l25 10l23 13l22 12l21 12l18 14l18 13l17 14l14 12l14 15l13 14l10 14l10 15l6 16l9 14l4 15l8 41h139v2h-139l-8 41l-6 14l-7 14l-8 15l-8 14l-12 14l-13 15l-12 14l-16 14l-17 13 l-16 14l-21 12l-20 13l-23 12l-22 12l-25 10l-24 13l-27 8l-26 10l-29 10l-29 9l-28 8l-31 6l-33 6l-33 6l-32 6l-33 4l-35 5l-35 2l-35 2h-37l-34 2l-15 -2h-14h-14l-15 -2h-14h-12zM225 575v500h1221q0 -72 -25.5 -108.5t-74.5 -61.5h-252v-31h-738v-108h41v-78 q82 23 180.5 36t215.5 17q150 0 282.5 -26.5t235 -71.5t167 -107.5t76.5 -132.5h146v-63h-146q-12 -72 -76.5 -133.5t-167 -107.5t-235.5 -72.5t-282 -26.5q-66 0 -130.5 5t-123.5 15l8 39q-150 33 -254.5 97.5t-134.5 148.5h-2h-93l39 82h125q-4 -16 -4 -25q0 -55 44 -103 t120 -84t178.5 -56.5t216.5 -20.5q117 0 218.5 20.5t178 56.5t120.5 84t44 103t-44 102.5t-120.5 82.5t-179 55.5t-219.5 22.5q-104 0 -198.5 -12.5t-182.5 -34.5v-3h-174z" />
<glyph unicode="&#xdd;" horiz-adv-x="2119" d="M758 39l28 -2l29 -2l27 -2h26l25 -2h22h21h20l-4 67l43 2h15h12h12l13 2h12l12 2h12l13 2h12l12 3l13 2h12l12 2l10 2l13 2l12 2l12 2l13 2l12 2l10 2l12 2l13 4l12 2l12 2l10 4l13 2l12 2l10 5l13 2l12 4l26 8l166 -133h340v16l-237 221l41 23l4 2l4 2l4 2l4 2l4 2l4 2 l4 2l2 2l5 2l4 2l4 2l4 2l4 2l4 2l4 3l2 2l4 2l4 2l4 2l5 2v2l-33 24l-2 -2l-4 -2l-4 -2l-5 -4l-4 -2l-4 -2l-4 -2l-4 -2l-6 -2l-4 -4l-4 -2l-4 -2l-4 -2l-5 -2l-4 -2l-6 -5l-4 -2l-4 -2l-4 -2l-4 -2l-6 -2l-4 -2l-5 -2l-4 -4l-6 -2l-4 -2l-4 -2l-16 -8l-27 10l-12 4l-13 4 l-12 4l-14 2l-12 4l-15 2l-14 2l-12 3l-15 2l-14 2h-14l-15 2h-14h-14h-15h-14l-14 -2h-15l-14 -2l-14 -2l-15 -3l-12 -2l-14 -2l-15 -2l-14 -4l-12 -2l-13 -4l144 -115l-70 -16l-10 -4l-10 -2l-11 -2l-10 -2l-10 -2l-10 -2l-13 -2l-10 -2l-10 -4h-10l-11 -3l-10 -2l-10 -2 l-10 -2l-11 -2h-10l-10 -2l-10 -2h-11l-12 -2h-10l-10 -2h-11l-10 -2h-10l-10 -2h-11h-10h-10h-10h-8h-17h-16h-15h-16l-16 2l-15 2l-16 2h-14l-17 2l-14 4l-14 2l-15 2l-14 4l-14 3l-13 4l-14 4l-12 4l-13 4l-12 4l-10 6l-10 4l-11 6l-10 7l-10 6l-8 6l-9 6l-6 8l-8 6 l-4 11l-6 8l-4 10v10l-2 19l2 16l4 16l6 17l8 14l10 12l13 13l12 10l14 10l15 8l14 9l16 8l17 8l16 6l17 6l18 6l16 4l19 7l18 4l19 4l16 4l19 4l16 2l16 4l15 2l14 2l14 2l15 2l12 2l10 2l8 2h9l38 9l39 6l37 8l35 8l35 8l33 9l30 8l31 8l29 10l26 8l27 9l25 10l24 8l23 10 l20 10l21 9l18 10l19 10l16 10l14 11l15 10l12 10l12 10l10 11l11 10l8 10l6 10l6 11l6 10l4 10l2 12l4 17v39l-2 14l-2 14l-4 15l-6 12l-6 14l-6 13l-10 10l-11 12l-10 10l-12 11l-14 10l-15 8l-16 8l-17 8l-18 9l-20 6l-23 6l-23 6l-24 4l-25 6l-26 2l-29 4l-29 2l-28 2 h-33h-33h-33l-34 -2l-37 -2l-37 -2l-37 -4h-6l8 -26l-45 -13l-16 -4l-15 -6l-14 -6l-14 -6l-13 -4l-12 -6l-10 -7l-13 -6l-10 -6l-10 -6l-8 -8l-8 -6l-9 -6l-8 -7l-6 -6l-6 -6l-6 -8l-6 -6l-4 -6l-7 -7l-4 -6l-4 -8l-4 -6l-2 -4l-4 -6l-2 -6l-4 -7l-2 -6l-2 -6l-2 -4l-9 -29 h-71l4 -4h104l4 19l11 22l12 21l14 20l19 17l18 16l21 14l22 13l25 12l24 10l25 8l27 9l26 6l29 6l26 4l29 2l27 2h28h27l27 -2l24 -2l25 -4l22 -6l23 -9l22 -8l19 -10l18 -12l15 -15l14 -16l10 -20l4 -19l2 -4v-2v-4l2 -4v-6v-7v-6v-6v-6l-2 -8l-4 -8l-2 -6l-4 -9l-6 -8 l-6 -6l-6 -8l-9 -6l-8 -6l-10 -7l-10 -8l-13 -6l-14 -6l-14 -6l-15 -6l-18 -7l-18 -4l-21 -6l-20 -6l-25 -6l-24 -6l-27 -4l-31 -6l-20 -5l-23 -4l-24 -4l-27 -4l-27 -4l-30 -6l-31 -4l-33 -6l-33 -9l-34 -6l-33 -8l-37 -8l-35 -8l-35 -8l-35 -11l-34 -10l-35 -12l-33 -10 l-33 -13l-32 -14l-29 -12l-29 -15l-28 -14l-25 -16l-23 -17l-22 -16l-19 -19l-14 -16l-14 -18l-10 -19l-9 -20l-10 -35h2l6 -47l6 -19l9 -16l10 -16l12 -17l14 -14l19 -14l18 -13l23 -12l24 -12l25 -11l27 -10l28 -8l29 -8l29 -6l30 -7l31 -6l33 -4l31 -6l30 -2l31 -4z M1704 260l217 -199h131l2 -61h-317h-197l-162 129q-195 -57 -393 -59l2 -70q-35 0 -102.5 1t-149.5 8t-168 23.5t-158.5 45t-120.5 74t-52 110.5h-173v53h170q12 63 68.5 114.5t136.5 90.5t176.5 67.5t189.5 49t175 34t133 23.5q119 20 177.5 44t82 45.5t22.5 39t-3 27.5 q-8 41 -53.5 65.5t-110 31.5t-137 -2t-135 -33.5t-103.5 -65.5t-43 -96h-147l-48 65h109q6 25 22.5 53.5t46 58t76.5 56.5t119 47l-8 31q324 37 503 -19.5t191 -203.5h107v-52h-109q-18 -104 -178 -186t-481 -139q-20 -4 -58.5 -10.5t-83.5 -15.5t-91 -22.5t-83 -34 t-59.5 -47t-18.5 -63.5q2 -25 34 -45t80 -35.5t108.5 -22.5t120.5 -7q78 0 159.5 12t163.5 33l-139 112q104 39 229 43t230 -39q37 18 71.5 37t65.5 39l86 -65q-29 -18 -59.5 -36t-63.5 -34z" />
<glyph unicode="&#xde;" horiz-adv-x="1138" d="M821 487l-4 5l-2 4l-2 6l-4 4l-2 4l-2 4l-2 6v4l-2 4l-2 7v4h-705v-52h266v-73h682v37h-151h-4h-6l-7 2l-6 2h-6l-4 2l-6 4l-4 2l-4 2l-4 4l-4 4l-5 2l-4 4l-4 4zM63 569h762q0 -33 17.5 -60.5t50.5 -27.5h180v-98h-743v74h-267v112zM614 33q-59 0 -110 11t-90 31.5 t-63.5 46t-26.5 56.5h-54v15h54q2 31 26.5 56t63.5 44.5t90 31t110 11.5q4 0 5.5 -1t5.5 -1l2 -17q72 0 135 -26l-21 -23q-27 10 -57.5 15.5t-65.5 5.5q-90 0 -151 -31t-61 -76t61 -76.5t151 -31.5q88 0 149.5 31.5t61.5 76.5v8h48l14 -32h-35q-12 -35 -52 -60.5t-95 -40.5 l2 -14q-52 -10 -97 -10zM530 913q57 0 109.5 -11t91.5 -30.5t62.5 -45t27.5 -56.5h53v-14h-53q-4 -31 -27.5 -56.5t-62.5 -45t-91 -31t-110 -11.5h-10l-2 19q-72 0 -135 26l20 21q57 -20 123 -21q88 0 150.5 32t62.5 77t-62.5 76.5t-150.5 31.5t-149.5 -31.5t-61.5 -76.5 v-10h-47l-14 35h35q12 35 52 60.5t95 39.5l-2 14q23 4 47 6t49 2z" />
<glyph unicode="&#xdf;" horiz-adv-x="595" d="M352 119h62q0 -25 -15.5 -46.5t-40 -38t-56.5 -25.5t-64 -9q-68 0 -121.5 30.5t-53.5 73.5q0 20 14.5 40t37 33t49 21.5t51.5 8.5q49 0 86 -26.5t51 -61.5zM537 1077v-71h-95q-23 0 -52.5 -26t-29.5 -67v-632h-297v340h66v456h408zM307 135l-4 4l-2 2l-4 4l-2 2l-4 3 l-2 4l-4 2l-4 2l-5 2l-2 2l-4 2l-4 2l-4 2l-6 2h-4l-4 2l-4 2h-4l-4 2h-7h-4h-4h-6h-4h-6h-4l-6 -2h-7h-4l-6 -2l-6 -2l-4 -2l-6 -2l-6 -2l-6 -2l-5 -2l-4 -2l-6 -4l-4 -2l-4 -5l-6 -2l-4 -4l-2 -2l-4 -4l-5 -2l-2 -4l-2 -2l-2 -4l-2 -2l-2 -4v-2l-2 -2v-4v-3l-2 -2l2 -2v-4 v-2l2 -2v-4l2 -2l2 -2l2 -4l2 -4l2 -2l5 -2l4 -4l4 -4l4 -3l4 -4l4 -2l6 -4l4 -2l6 -2l7 -2l6 -4l6 -2l8 -2h6l6 -2l7 -2l8 -2h6l8 -2h8h6h9h8h6l8 2h6l8 2h7l8 2l6 2l6 2l6 2l6 2l6 4l7 2l6 4l6 2l4 4l6 2l4 5l4 4l4 4l5 4l2 4l4 2l2 2h-41l-8 23l-2 4l-3 4l-2 2l-2 4l-2 2 l-2 4l-2 2zM508 1047h-348v-457h-68v-279h240v602v7v6v8l2 6l2 6l2 6l2 6l2 5l2 6l4 4l2 6l4 4l2 6l4 4l5 4l4 4l4 5l4 2l4 4l4 4l4 2l4 4l4 2l6 2l5 2l4 2l6 2h4l4 2h6l4 2h4h68v11z" />
<glyph unicode="&#xe0;" horiz-adv-x="770" d="M385 911l-10 -10l-10 -10l-11 -10l-8 -11l-10 -12l-10 -10l-9 -12l-8 -13l-8 -12l-8 -12l-8 -15l-6 -12l-7 -14l-6 -15l-6 -14l-4 -14l-4 -15l-4 -14l-2 -16v-17l-2 -16v-6v-8v-9l-2 -6v-8l-2 -6v-6l-2 -8l-2 -7l-3 -6l-2 -6l-2 -4l-2 -6l-4 -6l-2 -4l-4 -6l-2 -5l-4 -4 l-4 -4l-2 -4l-4 -4l-4 -4l-4 -4l-5 -2l-2 -2l80 10v2h2l2 2v2l4 2v4l2 2l3 4l2 5l2 2l2 6l2 4l2 4l2 4l2 4l2 4l2 4v4l2 7v4l2 4v4l2 2v4v4l2 2v4v12l2 15v12l2 14l2 13l2 14l2 12l2 13l5 12l2 14l4 13l4 12l2 12l6 12l4 13l4 12l6 12l6 13l7 12l6 12l8 10l8 13l8 12l9 12 l10 11l10 12l10 10l10 10l13 13l12 10l12 12h2l-4 6l-2 -2l-8 -6l-8 -6l-10 -6l-9 -8l-10 -9l-8 -8l-10 -8l-10 -8l-11 -8zM180 465h2l4 -2l4 -4l5 -4l4 -4l4 -2l4 -7l2 -4l4 -4l4 -6l2 -4l4 -6l2 -4l2 -6l4 -7l2 -6l3 -6v-8l2 -6l2 -6l2 -9v-6l2 -8v-8v-8v-8v-17l2 -16v-17 l2 -16l4 -14l2 -17l4 -14l4 -14l4 -13l4 -14l6 -12l7 -13l6 -12l6 -12l6 -12l8 -13l6 -10l9 -12l8 -11l8 -10l10 -12l8 -10l11 -11l8 -8l10 -10l10 -10l11 -10l10 -9l10 -10l10 -10l11 -8l4 -4l14 16l-4 4l-12 12l-13 11l-10 12l-12 12l-8 12l-11 13l-8 12l-8 12l-8 13 l-8 14l-7 12l-6 13l-4 14l-6 12l-4 15l-4 12l-4 14l-4 14l-4 13l-3 14l-2 14l-2 13l-2 14l-2 14l-2 15l-2 12v14l-2 15v14l-2 14v15v2v2l-2 2v4v2l-2 4v4l-2 2v4l-2 4l-2 5l-2 4l-2 4v4l-2 4l-2 4l-2 2l-2 4l-2 2l-3 4l-2 2l-2 4l-2 2l-2 3h-2l-2 2v2zM516 971 q-53 -41 -86 -83t-53.5 -88t-28.5 -95.5t-12 -102.5q-2 -14 -8 -34.5t-15.5 -39t-19.5 -33t-23 -14.5q10 0 20.5 -12t19.5 -29.5t16.5 -36t7.5 -30.5q2 -57 9 -110.5t23.5 -103.5t47 -96.5t82.5 -89.5q43 -37 88 -61.5t86 -38.5l2 -53q-100 29 -195 102l-22 -20q-4 2 -7.5 4 t-7.5 6q-45 37 -86 78t-72.5 90t-50 108.5t-18.5 133.5q0 59 -22.5 91.5t-45.5 32.5h-82v72h82q27 4 47.5 34t20.5 87q2 72 30.5 132t68.5 107.5t83 83t74 58.5q8 8 12 10l21 -16q35 25 68.5 44t68.5 36l10 71l49 -24l-6 -74h-2q-20 -6 -35.5 -11t-34 -14.5t-42 -24.5 t-62.5 -46z" />
<glyph unicode="&#xe1;" horiz-adv-x="770" d="M387 901l-10 10l-10 11l-11 8l-10 8l-10 8l-8 8l-11 9l-8 8l-10 6l-8 6l-8 6v2l-7 -6h3l12 -12l12 -10l12 -13l11 -10l10 -10l10 -12l10 -11l9 -12l8 -12l8 -13l8 -10l6 -12l6 -12l7 -13l6 -12l4 -12l6 -13l4 -12l4 -12l2 -12l4 -13l2 -14l4 -12l2 -13l3 -12l2 -14l2 -13 l2 -14v-12l2 -15v-12v-4l2 -2v-4v-4l2 -2v-4l2 -4v-4l2 -7l2 -4v-4l2 -4l2 -4l2 -4l2 -4l2 -4l2 -6l2 -2l2 -5l2 -4l2 -2l2 -4l3 -2v-2l2 -2h2v-2h2l77 -10l-2 2l-4 2l-4 4l-4 4l-4 4l-2 4l-4 4l-4 4l-2 5l-4 6l-2 4l-4 6l-3 6l-2 6l-2 4l-2 6l-2 7l-2 8v6l-2 6v8l-2 6v9v8 v6v16l-2 17l-2 16l-4 14l-4 15l-4 14l-6 14l-7 15l-6 14l-6 12l-8 15l-8 12l-8 12l-9 13l-8 12l-10 10l-10 12l-8 11l-11 10zM582 465l-84 -12v-2l-2 -2h-2l-2 -3l-3 -2l-2 -4l-2 -2l-2 -4l-2 -2l-2 -4l-2 -2v-4l-2 -4l-2 -4l-2 -4l-2 -4l-2 -5v-4l-2 -4l-2 -2v-4l-2 -4v-2 v-4v-2l-2 -2v-2v-15l-2 -14v-14l-2 -15v-14l-2 -12l-2 -15l-2 -14v-14l-5 -13l-2 -14l-2 -14l-4 -13l-4 -14l-4 -14l-4 -12l-4 -15l-6 -12l-4 -14l-7 -13l-6 -12l-8 -14l-8 -13l-8 -12l-8 -12l-9 -13l-10 -12l-10 -12l-12 -12l-13 -11l-12 -12l-4 -4l14 -16l4 4l11 8l10 10 l10 10l10 9l11 10l10 10l10 10l8 8l10 11l11 10l8 12l8 10l8 11l8 12l9 10l6 13l6 12l8 12l4 12l6 13l7 12l4 14l4 13l4 14l4 14l4 17l2 14l2 16v17l2 16v17v8v8l2 8v8v6l2 9l2 6l2 6l2 8v6l4 6l3 7l2 6l4 4l2 6l2 4l4 6l4 4l2 4l4 7l4 2l4 4l4 4l4 4l5 2h2zM246 971 q-39 31 -62.5 46t-42 24.5t-34 14.5t-35.5 11h-2l-7 74l50 24l10 -71q35 -16 68.5 -36t68.5 -44l21 16q8 -4 14 -10q29 -23 72 -58.5t82.5 -83t68.5 -107.5t31 -132q0 -57 20.5 -87t46.5 -34h84v-72h-84q-23 0 -45 -32.5t-22 -91.5q0 -74 -18.5 -133.5t-50 -108.5t-72.5 -90 t-86 -78q-6 -6 -15 -10l-22 20q-94 -74 -195 -102l2 53q41 14 86 39t88 61q51 43 82 89.5t47.5 96.5t23.5 103t9 111q0 12 6 30.5t15.5 36t20.5 29.5t22 12q-12 0 -22.5 14.5t-20 33t-15.5 39t-8 34.5q-4 53 -12 102.5t-28.5 95.5t-53.5 88t-86 83z" />
<glyph unicode="&#xe2;" horiz-adv-x="1712" d="M805 862l-6 10l-6 11l-7 10l-6 10l-8 10l-10 11l-8 10l-11 10l-12 8l-10 11l-12 8l-15 8l-12 8l-14 6l-15 8l-16 7l-14 6l-17 6l-16 4l-17 4l-16 4l-16 4l-19 2l-16 4h-17l-18 2h-18h-19l-16 -2h-19l-16 -2l-18 -2l-17 -4l-16 -4l-17 -2l-16 -6l-16 -4l-15 -6l-16 -4 l-14 -7l-15 -6l-12 -8l-12 -6l-13 -8l-12 -8l-10 -9l-10 -8l-11 -8l-8 -8l-8 -8l-8 -9l-6 -10l-4 -8l-5 -10l-4 -8l-4 -9l-2 -10v-8l-2 -10l2 -8v-11l2 -8l4 -8l4 -10l5 -9l4 -8l8 -10l6 -8l8 -8l8 -9l9 -10l10 -6l10 -8l10 -8l13 -8l12 -7l12 -6l12 -6l13 -6l12 -6l14 -6 l15 -4l12 -5l14 -4l15 -4l12 -2l14 -2l13 -2l14 -2h12h12h13h12l12 2l13 2l12 2l10 2l12 4l11 2l12 5l10 4l10 4l11 6l10 4l10 6l8 4l11 6l8 6l8 9l10 6l6 6l9 8l8 6l6 8l6 9l8 8l4 8l6 8l7 8l4 9l4 8l4 8l12 27h121v2l-2 12zM709 809q-14 -39 -43 -75t-69 -62.5t-89 -43 t-105 -16.5q-55 0 -114.5 18.5t-109.5 49.5t-83 73t-33 89q0 49 33 91t87.5 73.5t124 50t145.5 18.5t146.5 -21.5t124.5 -58.5t88 -85t34 -101h-137zM1071 1034l-520 -956l67 -37l269 496l-56 28l250 463zM1059 1075l63 -35l-250 -460l56 -31l-297 -549l-121 66zM1602 213 l4 10l4 13h-123l-12 28l-2 8l-7 9l-4 8l-4 8l-6 8l-6 8l-6 9l-6 8l-9 6l-6 8l-8 8l-8 6l-8 7l-9 8l-8 6l-10 6l-10 4l-8 6l-11 4l-10 7l-12 4l-10 4l-11 4l-10 2l-12 4l-12 2l-11 2l-12 2l-12 2h-13h-12h-14h-12l-13 -2l-14 -2l-12 -2l-15 -4l-14 -2l-12 -4l-15 -4l-14 -4 l-12 -7l-13 -6l-14 -6l-12 -6l-12 -6l-11 -6l-12 -9l-10 -8l-10 -8l-11 -6l-10 -10l-8 -8l-8 -9l-6 -8l-7 -10l-4 -8l-6 -8l-4 -11l-2 -8l-2 -10l-2 -8v-9v-10l2 -8l2 -10l2 -8l4 -9l4 -10l6 -8l7 -10l6 -8l8 -9l10 -8l8 -8l11 -8l12 -8l10 -9l12 -8l13 -6l14 -8l14 -6 l15 -6l14 -5l16 -6l15 -4l16 -6l16 -2l17 -4l18 -4l17 -2l18 -2h16l19 -2h18h17l18 2h19l16 2l18 4l17 4l16 4l17 4l16 4l16 6l15 7l14 6l14 8l15 6l14 8l12 8l13 9l12 10l10 8l10 10l11 11l8 10l8 10l8 10l6 11l6 10zM1507 266h138q0 -53 -34 -101t-88.5 -85t-125 -58.5 t-146.5 -21.5t-146.5 18.5t-124.5 50t-87 73.5t-33 91q0 47 33 89.5t83 73t110.5 49t115.5 18.5t103.5 -16.5t88.5 -43t68.5 -62.5t44.5 -75z" />
<glyph unicode="&#xe3;" horiz-adv-x="1669" d="M776 123l-2 4l-4 2l-2 2l-4 2l-2 2l-4 2l-2 2l-4 2l-4 2l-5 2l-4 2l-2 3h-4l-4 2l-4 2h-4l-6 2h-4h-4h-5l-4 2h-4h-6l-4 -2h-4h-6l-4 -2h-6l-7 -2h-4l-6 -2l-4 -3l-6 -2l-4 -2l-6 -2l-4 -2l-5 -2l-4 -4l-4 -2l-4 -2l-4 -2l-4 -4l-4 -2l-2 -4l-2 -2l-2 -2l-2 -4l-2 -3 l-2 -2v-2v-2l-2 -2v-2v-2v-2v-2l2 -2v-2v-2l2 -2l2 -2l2 -4l2 -2l2 -2l2 -4l4 -2l4 -3l4 -4l4 -2l4 -2l7 -4l4 -2l6 -2l4 -2l6 -2l6 -2l6 -2l6 -2l7 -2h8l6 -2h6l6 -2h8h7h8h6h6h8l6 2h7l8 2l6 2l6 2l6 2l6 2l6 2l7 2l4 2l6 4l4 2l6 2l4 4l4 2l4 5l4 4l5 2l2 4h-33l-10 20v4 l-2 2l-3 2l-2 5l-2 2l-2 2l-2 4l-2 2zM1407 698l6 13l4 10l4 10l4 12l2 11v24l-2 13l-4 10l-4 12l-6 12l-8 13l-8 12l-11 12l-12 12l-14 13l-15 10l-16 12l-18 11l-19 12l-20 10l-21 10l-22 11l-25 8l-24 10l-27 8l-27 8l-26 7l-29 8l-29 6l-30 6l-31 4l-33 6l-31 2l-34 4 l-33 2l-33 2l-35 3h-35h-8h-8h-8h-6l-8 -3h-9h-6h-8h-8h-6h-8h-7l-8 -2h-8h-6h-8l-7 -2h-8h-6l-8 -2h-6h-8l-7 -2h-8h-6l-8 -2h-6h-4l6 -24l2 2l24 2l27 4l27 2l24 2l27 2h29h26h29h27l26 -2l27 -2l24 -2l27 -4l25 -2l24 -4l23 -7l24 -4l23 -6l22 -6l21 -6l20 -6l21 -8 l18 -9l19 -6l16 -10l18 -8l15 -10l16 -9l12 -12l15 -10l10 -10l12 -13l11 -12l8 -12l6 -15l6 -12l4 -14l4 -17v-14v-14l-4 -15l-4 -14l-6 -14l-6 -15l-8 -12l-11 -12l-12 -12l-10 -11l-15 -10l-12 -10l-16 -10l-15 -11l-18 -8l-16 -8l-19 -8l-18 -8l-21 -9l-20 -6l-21 -6 l-22 -6l-23 -6l-24 -4l-23 -4l-24 -4l-25 -5l-27 -4l-24 -2l-27 -2l-26 -2h-27h-29h-2h-2h-2h-4h-2h-4h-4h-4h-4h-2h-7h-4h-4l-4 2h-6h-4h-6h-4h-7h-4h-6h-4l-6 2h-6h-4h-4v-237h8h8h10l8 2h7h8l8 2h6l6 2h6l7 2h6l6 2l6 2h4l6 2l4 2h4l5 2l4 2l4 2l4 2l4 2l4 2l2 2h2 l-2 129h39v41l59 5l31 2l29 4l28 4l29 4l29 4l28 6l27 6l25 6l26 7l25 8l22 6l25 8l20 8l23 10l20 9l19 10l18 8l17 10l16 11l14 10l15 10l14 12l10 11l11 12l10 10zM221 866h-2l-6 -8l-6 -6l-6 -8l-6 -6l-5 -9l-4 -6l-4 -8l-12 -27l-23 3h-34l4 -9h67v4l2 17l4 14l7 12 l6 15l10 12zM700 782l-4 -2h-4l-4 -2h-4l-2 -2l-4 -2h-2l-4 -2l-2 -2h-4l-2 -2v-2h-2l-3 -2h-2h2v-2h3l2 -2v-2h2l4 -2l2 -2l4 -2h2l4 -2h2l4 -2l4 -3h4l4 -2h7l4 -2h4h6h4l6 -2h4h6h7h4h4h6h4l4 2h4h4h6l2 2h7l2 2h4l4 3h4l2 2h4l2 2h4l2 2l2 2h2l2 2h2l2 2l3 2l2 2l-2 2 l-3 2h-2l-2 2h-2l-2 2h-2l-4 2l-2 2h-4l-2 2h-4l-2 2h-4l-4 2h-4l-5 2h-4h-4h-4l-4 2h-4h-4h-6h-4h-4h-7h-6h-4h-6l-4 -2h-6h-4l-4 -2h-7zM823 109h58q0 -45 -51.5 -77t-114.5 -32q-66 0 -116 27.5t-50 66.5q0 18 13 35.5t34.5 31t47.5 20.5t50 7q47 0 81 -24t48 -55z M594 256v301q39 -4 83 -5t58 -1q106 0 201.5 17.5t167.5 47t112.5 69.5t40.5 87q0 45 -40.5 86t-112.5 72t-167 48t-202 17q-109 0 -203 -17t-165.5 -48t-112.5 -72t-41 -86q0 -14 2 -20h-117l-35 69h87h2q29 70 125 124t237 81l-6 33q111 18 237 18q143 0 269.5 -23.5 t222.5 -63.5t155.5 -94t65.5 -116h133v-30h-133q-6 -55 -56 -105.5t-133 -88.5t-193.5 -63.5t-235.5 -33.5v-43h-39l2 -115q-31 -23 -77 -34t-132 -11zM864 776h82v-24h-82q-8 -18 -40.5 -30.5t-75.5 -12.5q-51 0 -86 16t-35 39t34.5 38t86.5 15q43 0 74.5 -12.5t41.5 -28.5 z" />
<glyph unicode="&#xe4;" horiz-adv-x="2177" d="M1276 752l-4 2l-4 2l-4 2h-4l-7 2l-4 2h-6l-4 2l-6 2h-6l-6 2h-7h-6l-8 2h-6h-6h-8h-6h-7h-6h-6h-6h-6l-6 -2h-7h-4l-6 -2h-6l-4 -2h-4l-6 -2h-4l-4 -2l-5 -2h-4l-4 -2l-4 -2l-4 -2h-2l-4 -2l-2 -2h-2l-2 -3l-2 -2v-4l2 -2l4 -2l2 -2h2l2 -2l4 -2l4 -2h2l4 -2l4 -2h5 l4 -2h6l4 -2h4l6 -2l4 -2h6h7l4 -2h6h6h6h6h6h7h6h8h6h6h8l6 2h7l6 2h6l6 2h4l6 2l4 2h7l4 2l4 2l4 2l4 2l4 2h2l4 2l2 2l2 2l2 2h-2v2l-2 2l-2 3h-4l-2 2zM1094 1047h-4h-7h-4h-4h-6h-4h-6h-4h-725l2 -37h-94l4 -4l6 -5l4 -4l4 -4l4 -4l2 -4l4 -4l4 -6l4 -4l2 -6l3 -7l4 -6 l2 -6v-6l2 -6l2 -6v-8v-7v-788v-6l-2 -8l-2 -7l-2 -8l-4 -6l-7 -6l-2 -2h41v-51h187v39h84v8v436l53 -16l14 -4l15 -5l16 -4l14 -4l17 -4l14 -4l16 -4l17 -2l16 -4l17 -2l16 -4l16 -2l19 -4l16 -2l19 -3l16 -4l18 -2l19 -2l18 -2h17l20 -2l19 -2l18 -2h18l19 -2h20l19 -2h18 h21h20h19h10h10h8h10h11h8h10h8l11 2h10h8h10h8l11 2h8h10l8 2h11h8l10 2h8h8l11 2h8l10 2h8l8 2h11l-6 33l-13 -2l-31 -4l-32 -4l-33 -2l-33 -2l-33 -2l-32 -2h-35h-25l-22 2h-23h-24l-23 2l-22 2l-21 2l-22 2l-23 2l-20 4l-21 2l-22 4l-19 2l-20 4l-21 4l-18 5l-19 6 l-18 4l-19 4l-18 6l-16 6l-17 4l-16 6l-17 7l-16 6l-14 6l-15 8l-14 6l-12 8l-13 6l-12 9l-4 2h-82l2 424h45h15h16h14h17h14h16h17h16h17h16h16h17h16h17h16h18h17h16h19h16h16h17h16h16h19h16h17h16h16h17h16h15h16h14h17h14h16h17h14l16 -2h17h14l17 -2h16l14 -2h17 l16 -3h14l17 -2l16 -2l14 -2l17 -2l16 -2l17 -2l14 -2l16 -4l15 -2l16 -2l16 -4l17 -4l14 -4l17 -2l4 2l-11 2l-10 2l-12 4l-12 2l-13 2l-12 2l-12 4l-13 2l-12 2l-12 2l-12 2h-13l-14 2l-12 2l-13 2l-14 2h-12l-15 3l-12 2h-14h-15l-12 2h-14h-14l-15 2h-14h-37l-8 34h-6 h-4h-5h-6h-4h-4h-6h-4h-4h-6h-4h-5h-6h-4h-4h-6h-4h-4zM1708 549l18 8l19 10l18 11l17 12l16 10l14 12l15 13l12 14l10 12l8 17l9 14l4 16l4 17v8h96l8 -14h-53l-20 2l-15 -29l-4 -6l-6 -8l-6 -9l-6 -8l-6 -8l-9 -8l-10 -8l-8 -9l-10 -6l-11 -8l-12 -8l-12 -6l-12 -8l-13 -7 l-14 -8l-14 -6l-15 -8zM1544 379l10 -10l54 -80l92 -139l2 -3l2 -2l2 -4l2 -4l2 -2l2 -4l2 -4v-6l2 -4v-4v-4l-2 -7v-4l-2 -4l-2 -4l-2 -4l-4 -4l-2 -4l-4 -2l-4 -4l-4 -2l-4 -2l2 -31v-6h270v20l-264 398h-2l-6 -5l-7 -2l-8 -2l-6 -2l-8 -2l-6 -4l-9 -2l-8 -2l-6 -2l-8 -2 l-8 -2l-6 -2h-9l-6 -2l-8 -2l-6 -2l-8 -2h-6l-9 -2l-6 -2h-6l-4 -2zM1026 727h-102v27h102q10 20 51 33.5t97 13.5q61 0 105 -17.5t44 -42.5t-44 -42t-105 -17q-53 0 -94.5 12.5t-53.5 32.5zM1176 395q-160 0 -303.5 20.5t-260.5 55.5v-393h111v-37h-197v-41h-243v53h-174 v45h118q8 0 19.5 5.5t11.5 23.5v786q0 41 -31.5 67t-56.5 26h-107v34h236v37h756q41 -2 78 -2t77 -2l9 -33q117 -2 220 -17t191 -42l-63 -51q-123 33 -246 41t-246 10q-129 -2 -268 -2h-254l-2 -363h61q84 -59 236.5 -95t339.5 -36q135 0 254 19.5t208 53.5t140 78t51 95 q0 14 -2 23h146l47 -76h-109h-2q-35 -78 -158 -138.5t-297 -88.5l7 -37q-139 -19 -297 -19zM1706 485l283 -424h129l2 -61h-318h-145v37h-96v53h81q35 0 41.5 14.5t-8.5 24.5l-94 141l-51 80q-51 -16 -104.5 -21t-112.5 -3l-41 49q78 -2 134 5t101 17l-8 33q18 2 44 7 t54.5 12.5t57 16.5t51.5 19z" />
<glyph unicode="&#xe5;" horiz-adv-x="2170" d="M1657 530l12 7l14 8l13 8l12 10l14 8l11 9l12 10l12 8l10 10l13 8l10 11l8 8l10 10l7 8l8 11l6 8l6 8l4 10l2 6l4 9v8l2 8v31l-2 14l-4 14l-4 15l-6 14l-8 14l-8 15l-13 12l-10 14l-14 13l-15 14l-16 12l-16 12l-19 11l-20 12l-21 10l-22 10l-23 11l-24 8l-25 10l-27 8 l-26 6l-29 9l-29 6l-28 6l-31 6l-31 4l-33 4l-32 2l-33 4l-33 2h-35l-36 3h-844l2 -37h-94l4 -4l6 -5l4 -4l4 -4l4 -4l2 -4l4 -4l4 -6l4 -4l2 -6l3 -7l4 -6l2 -6v-6l2 -6l2 -6v-8v-7v-788v-6l-2 -8l-2 -7l-2 -8l-4 -6l-7 -6l-2 -2h41v-51h187v39h84v8v512h-62l2 420h47h19 h16h19h18h18h19h20h19h18h21h18h21h18h21h18h20h21h18h21h20h19h20h19h18h21h18h18h19h18h19h51l18 -2h27l27 -2l24 -2l25 -3l24 -4l25 -2l22 -4l23 -6l23 -4l20 -6l20 -6l21 -6l18 -7l19 -8l18 -8l19 -8l16 -10l14 -9l15 -12l14 -10l14 -12l13 -13l10 -12l10 -12l8 -15 l9 -14l8 -16l4 -17l6 -16l2 -16l2 -11v-8l-2 -10v-10l-2 -9l-4 -10l-2 -8l-4 -8l-4 -8l-6 -11l-5 -6l-6 -8l-6 -8l-8 -8l-6 -9l-8 -6l-9 -8l-6 -6l-10 -6l-8 -8l-8 -7l-11 -6l-8 -6l-10 -6l-10 -6l-11 -6l-10 -4l-10 -6l-12 -7l-11 -4l-12 -4l-10 -6l-12 -4l-13 -4l-12 -4 l-12 -4l-12 -4l-13 -5l-12 -4l-12 -2l-13 -4l-12 -2l-12 -4l-13 -2l-10 -2l-12 -2l-12 -2l-11 -2l-12 -2l-10 -2l-10 -2h-11l-10 -2h-10l-10 -2h-8l-9 -2h-10h-6h-8l-8 -2h-7h-6h-6h-10l-10 2h-11h-10h-10h-10l-11 2h-10l-10 2h-10l-11 2h-10l-10 2l-10 2h-10l-11 2l-8 2 l-10 2l-10 2l-11 2l-10 2l-8 2l-10 2l-11 2l-8 2l-10 2l-8 2l-8 4l-11 3l-6 2l-4 -7h2l8 -2l11 -4l10 -2l10 -4l10 -2l11 -2l10 -2l10 -4l10 -2l11 -2l10 -2l10 -2l10 -2l13 -2l10 -2h10l10 -2l11 -3h10l10 -2h10l10 -2h9h10h10l8 -2h35l6 -41h2h9h8h10h10l10 2h13l10 2 l12 3h13l12 2l12 2l12 2l13 2l14 2l12 2l15 2l12 2l14 4l13 2l12 4l14 2l13 2l12 4l12 4l12 2l13 5l10 4l12 2l10 4l11 4l10 4l10 2l8 4l11 4l10 6l12 4l12 7l11 6l12 6l14 6l13 8zM1716 117v-4v-4l-2 -7v-4l-2 -4l-2 -4l-2 -4l-4 -4l-2 -4l-4 -2l-4 -4l-4 -2l-4 -2l2 -31 v-6h270v20l-256 389h-2l-14 -8l-13 -8l-14 -6l-14 -8l-15 -7l-14 -6l-14 -6l-15 -6l-14 -6l-14 -4l-9 -2l150 -223l2 -3l2 -2l2 -4l2 -4l2 -2l2 -4l2 -4v-6zM1247 702l2 3l2 2l2 2h2l2 2v2l3 2l2 2v16l-2 2v2l-3 2l-2 2h-2l-2 2l-2 2l-2 3h-2l-2 2l-4 2l-2 2l-2 2h-4l-4 2 l-2 2h-4l-4 2h-5l-4 2h-4l-4 2h-4h-4h-4l-6 2h-4h-4h-7h-4h-6h-6l-4 -2h-6h-4l-7 -2h-4l-4 -2l-4 -2h-6l-4 -2l-2 -2l-4 -2l-4 -2h-4l-2 -2l-5 -2l-2 -3l-2 -2l-2 -2l-2 -2l-2 -2v-2h-2v-2l-2 -2v-2v-2v-2v-2v-2v-2h2v-2l2 -2v-2l2 -2l2 -2h2l2 -2l2 -2l5 -3l2 -2l4 -2l4 -2 l4 -2l2 -2h4l4 -2l6 -2h4l4 -2h7l4 -2h6h4h6l6 -2h4h7l4 2h4h6h4h4l4 2h4l4 2h6l3 2h4l4 2l4 2h2l4 2l4 2l2 2h2zM299 1040v37h868h11q141 -2 265 -25.5t218 -65.5t152.5 -101.5t64.5 -130.5h133v-37h-133q-2 -41 -39 -83t-88 -79t-105.5 -67.5t-93.5 -45.5 q-39 -16 -90 -29.5t-105 -22.5t-104.5 -15t-85.5 -6h-26l-6 41q-76 2 -167 19t-161 46l49 53q63 -23 143 -35t158 -14q20 0 56 3t80 10.5t92.5 19.5t93.5 31q43 18 81.5 40.5t66.5 48t41 54.5t9 57q-8 59 -50 103.5t-110.5 74t-160.5 44t-199 14.5v2h-147q-78 0 -157 -1 t-157 -1h-143l-2 -358h61v-543h111v-37h-197v-41h-243v53h-174v45h118q8 0 19.5 5.5t11.5 23.5v786q0 41 -31.5 67t-56.5 26h-107v34h236zM1710 483l279 -422h129l2 -61h-318h-145v37h-96v53h81q35 0 41.5 14.5t-8.5 24.5l-141 213q-57 -18 -116.5 -27.5t-104.5 -13.5 l-27 45q43 6 96.5 15.5t108.5 24.5t111.5 38.5t107.5 58.5zM1290 741h86v-30h-84q-10 -25 -44 -42.5t-81 -17.5q-53 0 -89 22.5t-36 51.5q0 31 36 52.5t89 21.5q47 0 80 -16.5t43 -41.5z" />
<glyph unicode="&#xe6;" horiz-adv-x="878" d="M389 1077q70 0 130.5 -13t106.5 -36.5t73.5 -54.5t31.5 -66h64v-18h-64q-4 -35 -32.5 -65.5t-74.5 -53t-106.5 -36t-128.5 -13.5h-12l-2 20q-45 2 -85 10.5t-73 20.5l23 27q63 -23 145 -23q51 0 97 10.5t80 27.5t53.5 40t19.5 49q0 27 -19.5 49.5t-53.5 40t-80 27.5 t-97 10t-97 -10t-80 -27.5t-53.5 -40t-19.5 -49.5v-12h-55l-17 39h41q14 41 61.5 71.5t113.5 47.5l-3 18q58 10 113 10z" />
<glyph unicode="&#xe7;" horiz-adv-x="1320" d="M651 1098q68 0 127.5 -25.5t104.5 -70t70.5 -103.5t25.5 -127t-25.5 -127t-70.5 -104t-104.5 -71t-127.5 -26t-127 26t-104 71t-70.5 104.5t-25.5 126.5q0 68 25.5 127t70.5 103.5t104 70t127 25.5zM651 1124q-74 0 -138 -27.5t-112.5 -75.5t-76 -111.5t-27.5 -137.5 q0 -68 24.5 -129t66.5 -108.5t99.5 -77t122.5 -37.5v-420q-115 8 -213 56t-171.5 127t-115.5 181.5t-42 217.5q0 121 46 227t124.5 185t185 125t227.5 46t226.5 -46t184.5 -125t125 -185.5t46 -226.5q0 -115 -42 -217.5t-116 -181.5t-173 -127t-212 -56v420q66 8 123 37.5 t100 77t68 109t25 128.5q0 74 -28 137.5t-76 111.5t-112.5 75.5t-138.5 27.5z" />
<glyph unicode="&#xe8;" horiz-adv-x="2635" d="M63 762h148h2h63q20 23 38 37t46 35l93 -29q233 147 530 196.5t657 14.5l113 59q256 -43 441.5 -133t271.5 -209h129v-262l-68 -65h-71q-82 -104 -212 -174t-284 -113t-319.5 -62.5t-317.5 -19.5q-47 0 -60.5 1t-35.5 1l-45 -45q-125 10 -243 30.5t-241 57.5l-20 63 q-33 10 -69 22.5t-60 22.5l-17 -20q-41 16 -70.5 34.5t-66.5 45.5l4 26q-29 23 -61.5 48.5t-56.5 54.5h-150l-68 67v316z" />
<glyph unicode="&#xe9;" horiz-adv-x="2670" d="M774 721h84v-19h-84v19zM377 764l-37 -12l215 -232h51l56 55h53l59 -65h31l-2 41h-29l-20 29v22h-109l-24 -24h-64zM1139 510q-4 4 -6.5 8t-6.5 8l-102 -110h-98l-166 -164l33 -12l127 133h90zM1538 375l43 -78h240l-103 113h-153zM1835 895l-18 -2l-369 -272 q0 -27 -10 -58l264 207h53l37 31h43v94zM1954 326l96 -127q-4 -4 -4 -11l8 -26l-65 -23l-9 25q-4 6 -14 11t-20 1l-95 -22q-20 -6 -20 -25l4 -27l-63 -10l-5 25q-8 14 -26 14l-109 -14q-18 -6 -18 -23l2 -26l-78 -9l-29 117h-39l29 -121q-66 -4 -130 -5t-130 3l-47 -43h-2 q-72 6 -140.5 13.5t-138.5 21.5q-55 10 -110.5 23.5t-108.5 27.5l-20 66q-37 12 -58.5 18t-56.5 23l-16 -23q-41 18 -81 42t-73 44l4 27q-14 10 -20 17t-21 18l113 98l-19 20l-112 -98q-16 10 -25.5 20.5t-21.5 24.5h-152l-80 78v330l228 -2q14 18 40.5 40.5t45.5 32.5 l92 -28l51 30l20 -20l132 -125h69l27 27h114l224 -133v6v12q0 8 2 14l-217 121h-138l-12 -16h-69v26l-103 117q78 41 166 71t174 50l66 -145l47 -7l26 -55l101 -72q4 4 7 8.5t7 8.5l-90 65l-100 211q141 27 297.5 32t298.5 -5l-216 -272l25 -13l47 64h31l153 188l43 27 l125 55l62 -12q57 -12 113 -27q84 -23 165 -53l21 -8l-125 -201l-49 -10l-129 -129v-182l112 -146l58 29l-19 22l76 156h-106l-56 -55l-20 18v127l20 16h47l97 109l-11 35l125 203l6 -5l25 -10l23 -10l22 -10l21 -10l20 -13l21 -12l18 -10l18 -13l19 -12l18 -12l15 -15 l16 -12l14 -12l15 -14l12 -13l12 -14l13 -12l18 -21h141v-74l-118 -81h-150q-20 -76 -62 -133.5t-96 -100.5l101 -117l-21 -12l-28 -16l-41 -21l-13 21q-4 4 -12 6t-16 -2l-43 -19l-105 127zM2615 670v-174l-78 -76h-71q-35 -41 -67 -71t-75 -58l-92 94q51 39 84 89t56 110 h125zM1726 735h35v-20h-35v20z" />
<glyph unicode="&#xea;" horiz-adv-x="2598" d="M1450 639h2l2 -6h-2l-4 -4v4v2v4h2zM1513 639h33l27 20v11v2h2h14l39 30q0 6 -1 11.5t-3 11.5h4l6 -18l35 26q-2 2 -2 6h-20v4h18q0 4 -1 6.5t-1 4.5l4 2q2 -4 2 -6t2 -7h80h-8l-2 7l16 12h-26v4h32l6 4v2h41q-4 20 -8 31h6q2 -8 4.5 -15.5t4.5 -15.5h8v135l-43 -6l-8 -6 q2 -4 3 -8t5 -8l-6 -2q-2 4 -7 16l-120 -88q4 -6 8 -19l-4 -2q-4 12 -8 17l-33 -25q4 -8 4 -10h10v-4h-8q0 -4 2 -4l-6 -2v6h-23l-22 -19h26v-4h-34l-74 -55v-92h2l51 41h-27v6zM1554 639h82h-61h-2v2v12zM1642 639h39q0 10 -1 21.5t-1 21.5h-4h-2v2v31q-2 4 -2 6q0 4 -2 8 l-35 -29q4 -16 4 -26v-2h19h2v-2v-29v-2h-2h-15zM1688 639h84v35l2 2l47 47q0 4 -1 8t-1 8h-62v-55v-2h-4h-70q2 -10 3.5 -21.5t1.5 -21.5zM1776 639h20v-6h-20v-41h20v-4h-20v-113l26 -33q2 4 3 10.5t3 10.5h4l-6 -25l189 -243l2 -2l-4 -3h-2l-37 -12l-6 -2h-2v2l-4 2l-5 2 h-2l-4 2h-4h-2h-4h-4h-4h-4h-4l-88 -22l-9 -2l-6 -4l-6 -4l-4 -7l-4 -6v-2h-2v-2l-29 -4l-16 -4h-2l-2 2l-6 4l-7 2l-6 2l-6 2h-8l-105 -14l-8 -2l-4 -2l-6 -4l-6 -4l-4 -4l-4 -5v-2h-8q-10 -8 -21.5 -14t-21.5 -12l-3 4q10 6 17.5 11t15.5 9h-6l-47 -4l-45 -4h-10v-18h-4 l-2 18l-31 -2h-47l-47 -2h-4h-3h-4h-2h-4h-2l-6 2h-6h-4h-2h-4h-2h-4h-3h-2h-4h-6h-2h-4h-6h-2h-2h-4h-2h-4h-2h-5l-22 2l-45 -43v-2v2h-8h-15l-12 -45l-4 2l12 45h-12l-16 2h-5l-12 -47l-4 2l12 45l-6 2h-16l-15 2l-16 2l-14 2l-17 2l-4 3q33 -16 60 -25l-2 -4 q-37 12 -74 31l-10 2h-4l-21 -37l-2 -2l-2 2l-31 16l-2 2v2l15 23l-15 4l-16 2l-15 2l-16 4l-14 2l-17 4l-14 4l-16 2l-15 4l-14 5l-16 4l-15 4l-14 4l-16 4h-5v2h-2l-18 63l-29 9l-4 2h-4l-4 2l-2 2h-4l-4 2h-4l-4 2l-2 2h-5l-4 2h-4l-2 2h-4l-4 2l-2 2h-4l-4 2h-2l-4 2 l-4 2h-3l-4 2h-2l-4 2l-4 2h-2l-4 2h-2l-4 3l-35 14l-14 -19h-2h-2l-2 2l-5 3l-6 2l-4 2l-4 2l-4 2l-4 4l-6 2l-4 2l-4 2l-4 2l-5 4l-4 2l-6 2l-4 4l-4 2l-4 2l-4 4l-4 3h-2l-2 2v2l4 22l-25 21l-4 2l-4 2l-2 2l-4 4l-4 2l-2 2l2 2l86 76l-13 14h-63l-55 -49l-2 -2v2h-2 l-3 4l-4 2l-2 4l-4 2l-2 4l-4 2l-2 5l-4 4l-2 2l-19 18h-149l-2 2h-31v4h25l-6 6h-33v7h26l-8 6h-28v6h24l-22 20v2v258v2h2h133h2h63l2 5l2 2l3 -2l239 -256h68l53 53v2h2h6q0 12 -2 18h6q0 -12 2 -18h23h2v-2l57 -62h60l-2 78h-35h-2l-11 14l-2 3v34h-96v-4q0 -4 1 -8 t1 -8h-6v16v4h-35l-24 -24v-2h-2h-43h-2v2l-185 188l-65 -22l-2 4l6 8l4 4l4 4l4 4l4 4l2 2l4 4l4 5l5 2l6 4l4 4l6 4l4 2l2 2l90 -29l49 29l15 10h2v-2l127 -119h20q0 4 1 9.5t1 9.5h6q-2 -6 -2 -19h58l12 13l4 -2v-37h66q0 14 2 20l4 -2q0 -4 -1 -9t-1 -9h41q0 6 2 8 q2 29 12 57h4q-2 -4 -3 -10t-3 -10h2l190 -115v14q0 33 9 60l-111 61h-43v4h35l-31 19h-33v4h25l-23 12q-4 -12 -6 -16h-6q2 4 4 9t4 9l-10 6h-31q-4 -4 -5 -10t-3 -10l-4 2l6 18h-112l-15 -16v-2h-28q0 -6 -5 -18h-4q2 4 2 8q0 6 2 10h-4h-2v2v14l-71 78l-2 2h4l16 10 l31 13l31 14l32 12l21 9q4 6 8 13t8 13l4 -2q-8 -16 -12 -22h4l33 12l33 10l32 8l35 11h8l2 2v-2l25 -52q4 4 6 7.5t6 7.5l4 -2q-4 -6 -14 -17l18 -41q4 4 13 17l4 -4q-4 -4 -7 -9.5t-7 -9.5l6 -12l45 -6h2l24 -49l41 -29h35v-4h-29l23 -19h20q4 6 17 19q12 12 18 16l-71 51 v2l-54 111q-8 -4 -14 -10l-4 2q10 10 16 14l-16 35q-4 -4 -7 -5t-7 -5l-5 4l13.5 9t15.5 11q6 4 13.5 9.5t15.5 9.5l2 -4q-8 -4 -14.5 -9.5t-14.5 -9.5q-4 -4 -6 -4l21 2l36 6l37 4l10 3q4 0 13 4q55 18 117 24h4h18q16 0 25 -2v4h6v-4q23 -2 43 -5t41 -9l41 -2l41 -2h20h-2 v2l-16 8t-17 8l2 4q16 -6 33 -16q8 -4 10 -6h4h5l-2 -4q4 -2 8 -4.5t8 -6.5l-4 -4q-8 6 -17 11l-24 -29q12 -8 16 -10l-2 -4l-8 4t-8 6l-129 -160q29 -12 55 -33l27 37h2l28 -2l84 105q-8 8 -14 12l4 4q4 -4 7 -6t7 -6l25 30q-6 4 -14 13l2 4q6 -4 14 -13l37 45l2 3l43 -5 l59 31q-8 8 -12 14l4 3q4 -4 6 -7.5t7 -7.5l47 25h2l14 -2l31 -6l28 -7l31 -8l29 -6l28 -8l27 -6l29 -8l26 -9l25 -10h2l25 -8l22 -8h2v-4l-92 -146l-45 -10l-47 -45h24v-4h-28l-17 -19h25v-4h-31l-16 -18q0 -6 1 -12.5t1 -12.5h-4q-2 6 -2 21l-47 -45v-33zM1772 633h-84v-8 q0 -23 -2 -33h86v41zM1681 633h-39v-4h15h2v-2v-29v-4h-2h-17v-2h41v33v8zM1636 633h-88l-53 -41h141v2h-61h-2v4v29v2h2h61v4zM1772 588h-86q-4 -47 -15 -80q-4 -23 -12 -43.5t-19 -40.5h58h2l67 -74l19 43q4 10 7 21.5t7 21.5l-28 37v2v113zM1681 588h-41q-2 -23 -6 -42.5 t-8 -39.5q-8 -23 -16 -42.5t-19 -39.5h43q20 37 33 86q4 18 8 38t6 40zM1636 588h-147l-2 -4l-2 -123h119q10 27 16 47q6 18 9 37.5t7 42.5zM1481 588h-27v4h27v88l-39 -29q2 -8 2 -16v-17q0 -37 -12 -69l49 37v2zM1839 635l2 2l2 2h80l92 100h-24v4h28l6 9l-2 10h-20v4h20 l-6 22l-2 3h2l92 153l2 2h3l12 -6l22 -10l23 -10l20 -13l21 -10l20 -12l19 -11l18 -12l17 -12l16 -12l16 -13l15 -12l14 -12l14 -13l13 -12l8 -10h28v-4h-24l10 -12l4 -7h27v-4h-23l17 -22h116h3v-2v-15h-3l-75 -71h-2h-156l-6 -23l-4 -8l-2 -8v-2l-2 -8l-4 -9l-2 -8h-3 l-2 -8l-4 -6v-2l-4 -6l-4 -9l-4 -8l-4 -6l-4 -8l-4 -6l-4 -8l-6 -7l-5 -8l-4 -6l-6 -6l-6 -8l-4 -6l-6 -6l-6 -7l-6 -6l-5 -6l-6 -4l-6 -6l-6 -6l-6 -6l-6 -5l-9 -6l-20 -16l78 -92l2 -2l-4 -2l-25 -15l-28 -14l-9 -2l-2 -2l-4 2h-4l-6 -2h-4l-4 -2h-4l-25 -10h-2l-2 2 l-121 147v2l82 172h-141l-47 -47l-4 -4v6v70h-19v4h19v31v2l8 6l2 2h47h-74l-2 -2zM1929 639h225h5v-4v-45v-2h-5h-290v-64l43 43h2h147h4l-2 -2l-84 -174l121 -145l23 8l4 2h4h2l4 2h6h4h4l8 2l29 16l23 13l-78 90l-2 2l2 2l24 18l7 5l6 6l6 6l6 6l6 4l6 6l6 6l7 6l4 7l6 6 l6 6l4 6l6 6l4 8l4 7l7 6l4 8l4 6l4 8l4 6l4 9l4 8l4 6l4 8l2 8l4 8l3 9l4 8l2 8l2 8l6 27l2 2h2h158l73 67v11h-114l-21 26h-377zM2152 633h-227l-6 -6h-2h-47l-6 -4v-31h288v41zM1772 766h40h-40zM1817 766h47l49 49l2 2l45 8l88 142l-20 8l-25 8l-27 8l-26 8l-27 9l-29 8 l-28 8l-29 6l-29 6l-30 6l-31 7l-12 2l-45 -23q10 -16 21 -30.5t22 -30.5q10 -16 19 -32.5t20 -33.5l6 4l2 2l47 4h2v-2v-141v-2h-2h-10zM1860 762h-41q0 -4 1 -6t1 -6q0 -2 1 -3.5t1 -3.5h18zM1815 762h-52l-14 -12h4h4v-2v-5h60v7q-2 4 -2 12zM2025 743h369l-2 5l-10 12 l-2 2h-350l2 -10v-2zM2028 766h348l-6 6l-13 12l-12 13l-14 14l-15 10l-16 13l-16 12l-19 12l-16 12l-21 11l-18 12l-21 10l-20 12l-23 11l-22 10l-10 4l-93 -152zM1837 739h-14q0 -4 1 -6t1 -6zM1751 739h-74v-4v-20q4 -16 4 -25v-2q2 0 2 -2h68v53zM1675 739h-2v-2z M1729 965q-10 16 -21.5 30.5t-21.5 30.5l-62 -33h-2l-41 4l-37 -45q16 -16 30.5 -32.5t29.5 -34.5q23 -31 43 -76l120 88q-10 16 -19 34t-19 34zM1804 432q-6 -23 -14 -41q-4 -10 -9 -21.5t-9 -23.5l71 -78l2 -4h-4h-119q-18 -27 -38.5 -50.5t-45.5 -45.5q-16 -18 -43 -39 l2 2l107 12h8h6l2 -2h6l7 -4l6 -4h2l16 2l25 6h2l4 6l4 7v2l8 4l6 4h2l7 4l90 20h4l4 2h4h4h4l4 -2h4h4l2 -2l5 -2l4 -2l4 2l37 11zM1767 342l-4 -8l-4 -8l-4 2q4 4 5 9t5 9l-67 74h-60q-4 -6 -6 -11.5t-4 -9.5l-6 2q8 12 10 19h-43q-4 -8 -12 -21l-4 2q2 6 10 19h-57 l-39 -53l22 -41q6 8 15 14l2 -4l-7 -7t-8 -7l19 -33q8 6 14 14l4 -4l-14 -14l8 -17h178q4 8 13 21l4 -2q-4 -4 -5 -9.5t-6 -9.5h109zM1636 170q45 45 80 94h-176l-2 2l-8 17q-55 -49 -125 -78q-78 -31 -166 -31q-106 0 -201 47q-41 20 -76.5 49t-66.5 64l-104 -111 q4 -6 10 -12t10 -12l43 43l2 -4l-41 -41q10 -2 18.5 -4.5t18.5 -4.5l39 37l2 -2l-35 -35q4 -2 6 -2q4 0 8 -2q66 -10 132.5 -16t134.5 -6h2v-2l18 -45q35 -2 68 -2h69h68q35 0 70 4h2v-2l2 -17h10l45 2l45 4l18 2q23 14 42.5 31t37.5 33zM961 76q-6 4 -13.5 8t-13.5 8 l-6 -12l8 -2l16 -2h9zM930 94q-18 10 -33 23q-16 10 -30.5 23.5t-30.5 27.5l-37 -37v-2l-2 2l-25 25l-2 2l2 2l33 35q-47 10 -94 24t-93 33h-2v2l2 37v2l80 69q-4 10 -9 21.5t-9 24.5q-4 16 -8 24h-219l10 -12l2 -2l-2 -2l-86 -76h2l2 -4l4 -2l2 -2l4 -2l27 -21v-2l-2 -24 l4 -2l4 -5l4 -2l4 -2l6 -4l4 -2l4 -2l5 -4l4 -2l4 -2l6 -2l4 -2l4 -4l4 -2l4 -2l4 -2h2l5 -2l4 -2l14 16l2 2h2l37 -16h4l2 -2h4l2 -2l4 -3h2l4 -2h5l2 -2l4 -2h2l4 -2h4l2 -2l4 -2h4l2 -2h4l4 -2l4 -2h3l4 -2h4l4 -2l2 -2h4l4 -2h4l4 -2h4l29 -10h2v-2l21 -62l2 -2l14 -4 l16 -4l15 -4l14 -4l16 -2l15 -5l14 -4l16 -4l15 -2l16 -4l14 -2l17 -4l14 -2l17 -2zM901 121q8 -6 15.5 -12.5t15.5 -10.5l35 58l4 -2l-35 -58q8 -4 14 -8t13 -8l32 57l4 -2l-32 -57l12 -6h4l14 -2l17 -2l14 -2l16 -3l15 -2l16 -2h8l11 39l4 -2l-11 -37l3 -2h16l12 -2l10 35 h7l-11 -35l13 -2h6l43 43h2h24h5h2h4h2l4 -2h2h4h4h4h2h6h4h2h3h4h2h4h2h4h6h6h2h4h2h4h3h4h47l47 2h31v15q-35 -2 -68 -2t-68 -3q-35 0 -68.5 1.5t-68.5 3.5h-2l-20 45q-137 0 -267 24q-4 0 -8 1t-8 1l-14 -12q16 -14 30.5 -26.5t30.5 -22.5zM834 170q-14 14 -21 23h-2 l-33 -35l21 -21zM807 199q-6 4 -11 10t-10 10l-12 -12q8 -4 16.5 -5t16.5 -3zM784 223q-4 4 -6 8.5t-6 8.5l4 2q4 -4 6 -7.5t6 -7.5l105 111q-8 8 -12 14l4 2q8 -8 12 -14l2 4h2h41q-6 6 -14 18l2 3q12 -12 18 -21h41l82 88h-24v4h28l6 6h-24v7h28l9 6h-25v6h29l8 8 q-4 4 -4 6q-20 20 -31 39l-51 -53h22v-6h-28l-6 -6h24v-7h-28l-7 -6h25v-4h-29l-6 -6h-2h-94q2 -6 10 -18l-4 -2q-8 6 -10 16l-29 -29q4 -4 5 -8t5 -8l-4 -2q-2 4 -10 16l-106 -106q2 -10 10 -17l-4 -4q-4 4 -5 8t-6 9l-47 -48l74 -24zM821 190q4 -4 7 -8t8 -8l12 10 q-6 2 -13.5 3t-13.5 3zM741 285q-12 16 -21 34.5t-20 36.5l-77 -65l-2 -35q16 -6 32.5 -12t32.5 -13l4 2zM684 410l9 -22.5l9 -22.5l17 14l2 2v-2l53 -19l6 -2l-4 -2l-26 -16l-2 4l20 12l-47 19l-16 -15q10 -18 19 -36.5t19 -34.5l109 106q-6 10 -11 18.5t-10 18.5h-153 q2 -6 3 -11t3 -11zM670 436v6h-230l6 -6h224zM668 449q0 2 -1 3t-1 3h-236l6 -6h232zM664 461q-4 20 -8.5 39.5t-8.5 40.5h-6l-53 -54h-2h-68h-2l-240 256l-2 -2v-2h-2h-61h-2h-133v-256l26 -22h217l58 49v35h-90l-49 -53h-2h-80h-2l-50 43h-2v2v96v2l35 49l4 -2l-32 -49 v-94l49 -43h78l47 53l2 2h94h4v-2v-41v-2h-2l-55 -45h80l8 8l2 2l2 -2l8 -8h238zM653 541q4 -20 7.5 -40t9.5 -40h149q-8 18 -10 33q-4 10 -6 20t-4 21l2 -56v-2h-2h-64h-2l-57 64h-23zM670 455q2 -2 2 -6h153l-2 2q0 2 -2 4h-151zM674 442q0 -2 1 -3t1 -3h153q0 2 -1 3 t-1 3h-153zM643 616v9v22q0 12 2 25q0 14 2 22h-22v2l-47 43h-185l146 -147h43l24 24h2h35zM647 625v-9h101h2v-2v-36l8 -13h35q-2 16 -3.5 29.5t-1.5 30.5q0 8 1.5 16t1.5 18v11h-66h-2v2v33l-10 -9v-2h-2h-60q0 -6 -1 -11t-1 -11q0 -12 -1 -24.5t-1 -22.5zM662 774 q4 20 10 40t12 38q14 35 29 61l-17 -6l-32 -10l-31 -14l-31 -15l-14 -6l69 -76v-2v-10h5zM690 850q-16 -39 -24 -76h24l12 17h3h116q12 33 31 61q18 33 39 57l-23 52l-6 -3l-35 -8l-32 -10l-35 -10l-33 -10l-8 -5q-19 -34 -29 -65zM1599 883q-23 35 -57 65l-24 -28 q29 -33 53 -66q12 -16 21.5 -34.5t17.5 -37.5l32 25q-16 37 -43 76zM1403 211q35 14 65.5 32.5t59.5 43.5l-21 32q-6 -8 -22 -20v-31l-4 -2l-13 21q-37 -27 -73 -41q-78 -33 -156 -33q-90 0 -172 39q-35 16 -72 43l-14 -21l-4 5l14 20q-12 10 -23.5 20.5t-21.5 20.5h-45 l-2 -4q61 -70 141 -111q90 -47 199 -47q82 0 164 33zM813 496q4 -10 6 -18.5t6 -16.5h43q-14 27 -18 49q-16 55 -16 113q0 12 1 23t3 24h-41q0 -8 -2 -11v-34q0 -68 18 -129zM827 455q0 -2 1 -3t1 -3h43q0 2 -1 3t-1 3h-43zM831 442q2 -2 3 -4l2 -2h43l-2 2q0 2 -3 4h-43z M838 432q4 -10 9 -17t9 -18l29 29l-2 2q0 2 -2 4h-43zM797 711q4 12 4 18l6 19l4 -3q-4 -12 -4 -18q-4 -8 -4 -16h-6zM856 850q-10 -14 -16 -28.5t-13 -30.5h29h2l10 -7q4 10 9.5 20.5t11.5 20.5q4 10 10 19.5t12 19.5l-18 41q-23 -28 -37 -55zM1567 852q-12 16 -24.5 31.5 t-29.5 31.5l-83 -106h-3l-28 2l-27 -37q2 -2 4 -3t6 -5h99v96h6v-96h102l17 12q-8 20 -18.5 39t-20.5 35zM1612 766q-2 2 -2 4t-2 4l-11 -8h15zM1634 674q-2 6 -2 12t-2 10l-31 -24h35v2zM1638 668q2 -6 2 -13q0 -6 2 -12h11v25h-15zM1642 625v-2v-23h11v25h-11zM1636 623v2 h-57v-25h57v23zM1636 643q0 16 -2 25h-43l-12 -11v-14h57zM1585 424q4 4 4 8h-104v-57l39 49h2h59zM1593 436q0 2 1 3t1 3h-110v-6h108zM1597 449l2 2q0 2 3 4h-117v-6h112zM1481 295q-2 -2 -4 -3t-4 -3l8 -13v19zM1393 250q37 14 71 41l-18 28h-39l-8 -40h-4l8 43v2h2l43 2 l2 -2l18 -31q4 4 13 8v66v2v63h-156q-37 -18 -82 -18q-43 0 -80 18h-67v-106h-4v106h-15l-86 -92h-37q20 -23 39 -37l8 12h3l69 -2h2l2 -2l8 -28l-4 -2l-10 26l-65 4l-9 -12q31 -23 72 -43q82 -39 170 -39q78 0 154 33zM1485 305q8 6 20 19l-20 34v-53zM854 510l18 -49h140 l55 59q-18 33 -25 78l-188 115v-41v-2h-2h-10q-2 -12 -2 -25v-22q0 -62 14 -113zM874 455q2 -2 3 -4l2 -2h122l7 6h-134zM881 442q2 -2 2 -4l2 -2h106l6 6h-116zM887 432v-2h2h96v2h-98zM844 682q0 8 4 29v-37h-6q2 2 2 8zM893 823q-6 -10 -11 -20t-10 -21l29 -16h125 l-35 27l-24 47l-45 6h-2v2l-5 10q-14 -17 -22 -35zM997 950q16 14 36 24.5t40 20.5l-33 -4l-36 -4l-21 -4zM1090 997q-25 -10 -47.5 -22t-43.5 -29l54 -112l71 -52q39 29 93 39v187l-25 -2l-37 -2l-39 -3zM1239 1026h-18v-12h10h33v12h-25zM1217 1026q-29 -2 -55.5 -7 t-53.5 -13h8l37 4l39 2h25v14zM1354 1010h-41h-41h-2v-189q10 -2 18 -4t19 -6l131 162q-20 10 -40.5 20.5t-43.5 16.5zM1335 1016q-16 4 -32.5 6t-32.5 4v-12h2l41 2h22zM1370 1010q18 -6 35.5 -14.5t34.5 -18.5l24 29l-28 2l-41 2h-25zM369 766h180l-51 49l-13 -8l-49 -29 l-2 -2h-2l-88 29l-4 -2l-4 -4l-6 -4l-4 -4l-4 -3l-5 -4l-4 -2l-4 -4l-4 -4l-2 -4l-4 -4l-4 -4l57 18h2zM555 762h-182l16 -19h184zM1034 762h-123l31 -19h115zM1092 743h8v-4h-13q-4 -4 -4 -8l13 -10q8 14 20 27q6 6 23 18l-15 10l-18 -18q-8 -7 -14 -15zM1081 739h-10l8 -4 l1 1t1 3zM1063 739h-113l103 -57q4 12 9 24.5t13 24.5zM1372 743h23q-4 6 -13 15q-2 2 -2 4h-18l-2 -4l10 -10q2 -3 2 -5zM1401 743h80v19h-95q7 -7 15 -19zM1487 743h74l22 19h-96v-19zM1552 739h-65v-49zM1481 739h-76q27 -37 37 -84l39 31v53zM1399 739h-21 q37 -43 43 -98l15 12q-6 45 -37 86zM1350 766h10l6 8q-27 20 -57 33l-11 -14q29 -11 52 -27zM1366 766h8l-4 4zM1270 815v-16q6 0 11 -1t11 -3l11 12q-8 4 -16.5 5t-16.5 3v0zM1264 799v16q-6 2 -21 2q-14 0 -22 -2v-16q8 2 22 2q15 0 21 -2zM1264 821v189l-31 -2h-12v-187 h22h21zM1217 799v16q-51 -6 -89 -37l15 -8q31 23 74 29zM1440 618q0 8 -1 15.5t-1 13.5l-17 -10q2 -6 2 -19q0 -57 -30 -100l32 25q6 18 10.5 36.5t4.5 38.5zM1430 541q-8 -20 -19.5 -36t-26.5 -30q-6 -8 -14 -14h111v121zM1382 477q23 23 39 55l-39 -28q-4 -4 -6 -7t-6 -8 q-8 -8 -17.5 -15t-19.5 -13h29q6 4 11 8t9 8zM1364 455q-4 -2 -5 -3t-5 -3h127v6h-117zM1346 442q-4 -2 -5.5 -3t-5.5 -3h146v6h-135zM1243 420q37 0 68 12h-135q30 -12 67 -12zM1323 436l12 6h-41q-8 -2 -16 -3t-18 -3h63zM1346 449q2 2 10 6h-33q-4 -2 -7 -3t-7 -3h37z M1153 436l-12 6h-45v-6h57zM1133 449q-4 2 -5.5 3t-5.5 3h-22l-6 -6h39zM1116 461l-6 6l-6 -6h12zM1106 477l4 -4l10 12l-4 4q-18 18 -31 43l-12 -14q8 -10 15.5 -20.5t17.5 -20.5zM1114 469q6 -6 10 -8h31q-14 6 -31 20zM1130 455l13 -6h37q-12 4 -17 6h-33zM1151 442 l12 -6h64q-10 2 -17.5 3t-15.5 3h-43zM1047 618q0 -4 1 -9t1 -9l16 -10q0 8 -1 14t-1 14q0 29 8 48l-16 8q-4 -12 -6 -26t-2 -30zM1049 596q2 -39 22 -72l12 13q-6 10 -9 22t-7 25zM1079 727q-14 -25 -22 -47l14 -8q4 12 9 23.5t14 21.5zM1092 436v6h-5l-4 -6h9zM283 430 l2 2h-2v-2zM291 436l8 6h-180l8 -6h164zM305 449l8 6h-207l9 -6h190zM319 455l-8 -6h80l8 6h-80zM305 442l-6 -6h80l6 6h-80zM293 432l-6 -4l10 -12l4 -4l2 -2l4 -4l2 -3l4 -4l2 -4l4 -2l3 -4l2 -2l49 45h-80zM424 455h-18l-7 -6h31zM412 461h8l-4 4zM434 442h-41l-8 -6h55z M1585 668h-6v-4zM1237 760q39 0 70 -27q29 -29 28 -69q0 -41 -28 -70q-31 -27 -70 -27t-70 27q-29 29 -28 70q0 41 28 69q31 27 70 27zM1303 729q-27 27 -66 27t-66 -27q-29 -25 -28 -65q0 -41 28 -66q27 -27 66 -27t66 27q29 25 28 66q1 40 -28 65zM1237 793q53 0 90 -37 q39 -39 39 -92t-39 -93q-16 -16 -39.5 -27.5t-50.5 -11.5t-50.5 11.5t-39.5 27.5q-39 39 -39 93q0 53 39 92q37 37 90 37zM1323 752q-33 37 -86 36q-53 0 -86 -36q-37 -37 -37 -88t37 -89q33 -37 86 -36q53 0 86 36q37 37 37 89q0 51 -37 88zM1268 371v-84l10 26h2h55h2 l15 -37l-4 -2l-15 35h-51l-14 -39l-4 2v99h4zM1126 276l19 35v2h2h61h2v-2l7 -18l2 96h4v-108l-6 -2l-11 28h-57l-19 -33zM938 37l18 33l-6 2l-14 2l-10 2l-15 -23zM2349 528l-4 -8l-2 -6v-2l-4 -6l-4 -6l-4 -8l-4 -7l-3 -8l-4 -6l-4 -6l-6 -8l-4 -6l-4 -7l-4 -6l-6 -6 l-4 -6l-4 -6l-7 -6v-2l-4 -4h-2l-4 -7l-6 -6l-6 -6l-6 -6l-6 -6l-5 -4l37 -41l11 6l22 16l21 19l20 16l16 17l17 18l31 37h2h73l45 49v94l-53 -53l-2 -2h-119l-4 -6l-2 -8l-4 -7v0zM2341 522l4 8l2 7l4 8l4 6v2v2h2h119l59 57l5 4v-6v-102v-2l-50 -49h-2h-73l-29 -37 l-16 -17l-19 -18l-18 -16l-21 -17l-22 -18l-13 -8h-2h-2l-41 45l-2 2l2 2l2 2l7 4l6 6l6 6l4 4l6 6l6 7l4 6l6 6l5 6l6 6l4 6l4 6l4 9l4 6l4 6l6 6l2 8l4 6l5 7l4 8l4 6l4 8zM1366 743q-49 53 -123 54q-74 0 -123 -54q-51 -51 -51 -125q0 -78 51 -124q10 -10 21.5 -18.5 t21.5 -14.5h160q27 12 43 33q51 47 51 124q0 74 -51 125zM1243 440q8 0 15.5 1t13.5 1h-58q8 0 14.5 -1t14.5 -1zM1292 449q8 2 21 6h-139q8 -2 20 -6h98z" />
<glyph unicode="&#xeb;" horiz-adv-x="2510" d="M1294 33l54 4l49 4l51 6l51 8l47 6h2l45 11l47 8l43 12l46 10l40 13l41 14l39 14l37 15l35 14h2l35 16l31 17l30 16l29 19l27 18l24 18l23 21l18 18l19 21l14 20l14 19v2l8 18l11 21l6 22l4 23v43l-4 18l-4 23l-10 20l-11 21l-14 22l-12 21l-19 18l-18 21l-23 18l-24 19 l-27 18l-29 18l-30 17l-31 16l-35 17l-37 16l-37 14l-36 15l-43 12l-41 12l-45 12l-44 11l-47 12l-47 8h-2l-47 8l-49 7l-51 6l-51 6l-52 2l-55 4h-53l-55 2h-13h-12h-10h-15l-10 -2h-12h-12h-11h-14l-10 -2h-10h-15l-10 -2h-12h-11h-10h-14l-10 -2h-13l-10 -2l-10 -2h-12 l-11 -2l-12 -2h-10l-10 -2l-13 -2l-10 -3h-10h-2h-2l10 -49l-55 -10l-27 -6l-25 -6l-26 -6l-25 -7l-20 -6l-25 -8l-24 -8l-23 -8l-22 -8l-19 -9l-20 -8l-23 -8l-16 -10l-21 -10l-18 -9l-17 -10l-16 -10l-14 -10l-17 -11l-16 -12l-12 -10l-13 -10l-12 -15l-10 -10l-12 -10 l-9 -13l-8 -12l-10 -10l-6 -14l-6 -13l-17 -30l-24 2h-84h-2l2 -2l28 -54h125h2v2v2v3v20l4 20l7 21l6 16l12 19l12 18l15 19l14 18l18 16l19 15l22 16l23 15l24 14l27 14l27 12l28 13l27 14l31 10l30 9l35 12l35 8l35 10l35 6l39 9l36 4l39 6l41 6l39 4l41 4h43l41 2h43h43 l43 -2h41l39 -4l43 -4l39 -6l37 -6l39 -4l37 -9l37 -6l36 -10l33 -8l33 -12l33 -9l30 -10l29 -14l29 -13l26 -12l25 -14l22 -14l25 -15l21 -16l18 -15l18 -16l17 -18l14 -19l10 -18l13 -19l8 -18l6 -19l2 -20l2 -20l-2 -21l-2 -18l-6 -21l-8 -20l-13 -19l-10 -18l-14 -19 l-17 -16l-18 -16l-18 -17l-21 -14l-25 -14l-22 -15l-25 -12l-26 -16l-29 -11l-29 -12l-30 -12l-33 -11l-33 -8l-33 -10l-36 -8l-37 -8l-37 -6l-39 -9l-37 -6l-39 -4l-43 -2l-39 -4l-41 -2l-43 -2h-43h-18h-17h-16h-16l-17 2h-16l-14 2h-19l-16 2h-17l-16 2h-14l-17 2l-14 2 l-17 2l-14 2l-16 2l-15 4l-16 2h-14l-15 5l-14 2l-14 4l-15 4l-14 2l-14 4l-15 2l-12 4l-14 4l-13 4h-6h-2l-30 -28l-3 -2h3l12 -3l14 -2l15 -6l12 -4l16 -4l15 -2l14 -4l14 -4l17 -2l14 -4l16 -2l15 -4l16 -3l18 -2l15 -2l16 -4l17 -2l16 -2l16 -2h17l18 -2l14 -2h19l16 -2 h19l18 -2l14 -2h21h43l10 -53v-2h2h2h2h2h2h2h3h55l53 2zM1241 31l-53 -2h-55h-3h-2h-2h-2h-2h-2l-10 55h-2h-43h-21l-14 2l-18 2h-19l-16 2h-19l-14 2l-18 2h-17l-16 2l-16 2l-17 2l-16 4l-15 2l-18 3l-14 4l-17 2l-14 2l-16 4l-15 2l-16 4l-12 2l-17 4l-16 4l-12 4l-13 4 l-16 5l-8 2l28 26h6l13 -4l14 -4l12 -4l13 -2l16 -4l12 -2l17 -4l12 -4l16 -3l13 -2l16 -2l16 -2l15 -4l16 -2l14 -2l17 -2l14 -2h17l14 -2l16 -2h17l16 -2h19l14 -2h16l17 -2h16h16h17h18h43l43 2l41 2l39 4l43 2l39 4l39 6l37 6l37 9l39 8l34 8l33 10l33 8l33 11l30 12 l29 12l29 10l26 17l25 12l25 14l24 15l19 14l20 17l18 16l15 18l16 19l10 18l13 17v2l8 18l6 21l2 20l2 21l-2 20l-2 20l-6 21l-8 18l-13 19l-10 18l-16 19l-15 18l-18 17l-20 14l-19 16l-24 15l-25 16l-25 12l-26 13l-29 12l-29 14l-30 10l-33 9l-33 12l-33 8l-34 10l-39 6 l-37 9l-37 6l-39 4l-39 6l-43 4l-39 4h-41l-43 2h-43h-43l-41 -2h-43l-41 -4l-41 -4l-39 -6l-39 -4l-38 -6l-37 -9l-35 -6l-35 -10l-37 -8l-33 -12l-30 -9l-31 -10l-29 -14l-28 -12l-27 -13l-27 -12l-24 -16l-21 -15l-22 -16l-21 -14l-18 -17l-14 -18l-15 -19l-12 -18 l-10 -19h-2l-6 -18l-7 -21l-4 -20v-20v-3v-2h-125l-26 52h82l26 -2l17 30l6 15l6 12l10 10l8 14l9 11l12 10l10 12l10 13l15 10l12 12l16 10l15 11l16 10l14 10l19 10l16 8l21 13l18 8l21 8l20 8l21 9l20 8h2l21 10l24 6l25 8l22 6l23 7l26 8l25 4l27 6l57 10h2l-2 2l-10 47 h2h10l12 2l11 3l10 2h10h2l10 2l11 2h12l10 2l10 2h13l10 2h14h10h11h12l10 2h15h10l10 2h14h11h12h12l10 2h15h10h12h13l55 -2h53l55 -4l50 -2l53 -6l51 -7l49 -6l47 -8l49 -8l47 -12l44 -11l45 -10l41 -14l40 -12l39 -15l37 -14l35 -14l35 -17l31 -16l30 -19l29 -16 l27 -18l24 -21l23 -18l20 -21l17 -18l14 -21l12 -20l10 -21l11 -20l4 -23l4 -20v-41l-4 -23l-8 -20l-9 -21l-8 -20l-12 -21l-16 -20l-17 -19l-20 -18l-23 -20l-24 -19l-27 -18l-29 -19l-30 -16l-31 -17l-35 -16l-35 -14l-37 -15l-41 -16l-39 -12l-43 -13l-43 -10l-43 -12 l-47 -8l-47 -11l-47 -6l-51 -8l-51 -6l-51 -4l-52 -4zM1133 965q223 0 423 -37q199 -35 349 -99q150 -61 239 -145q92 -86 105 -180h209v-47h-209q-12 -96 -105 -178q-47 -43 -107.5 -79t-133.5 -67q-150 -61 -349 -98q-100 -16 -204.5 -25.5t-216.5 -9.5h-41l-13 55 q-145 4 -274 25q-66 12 -125 26.5t-113 32.5l76 72q106 -33 221 -47q59 -10 124 -13.5t130 -3.5q84 0 163 6.5t153 20.5q147 25 262 72q53 25 97 51.5t77 58.5q66 66 65 136q0 72 -65 133q-66 61 -174 108q-106 47 -262 76q-74 14 -153 20.5t-163 6.5q-86 0 -165 -6.5 t-152 -20.5q-74 -14 -139.5 -32.5t-120.5 -43.5q-113 -47 -174 -108q-66 -61 -66 -133v-17q0 -4 4 -16h-184l-55 108h135h2q23 53 73 103q25 25 55.5 46t67.5 44q37 20 79 38.5t89 35.5q47 16 98.5 28t106.5 23l-12 51q45 6 89 11t91 9t95 6.5t98 2.5v0z" />
<glyph unicode="&#xf7;" horiz-adv-x="1146" d="M715 750l4 4l2 4l2 4l2 2v41v2l-2 4l-4 2l-2 4l-2 4l-4 4l-4 4l-5 5l-6 4l-4 4l-6 2l-6 4l-4 4l-8 4l-6 2l-7 4l-8 2l-8 2l-6 4l-8 2l-11 2l-8 3l-8 2l-8 2l-10 2l-11 2l-8 2h-10h-10l-11 2h-10h-10h-12h-11l-12 -2h-12l-10 -2l-13 -2l-10 -2l-10 -2l-10 -2l-11 -3l-8 -4 l-10 -2l-8 -4l-8 -4l-9 -4l-8 -4l-6 -4l-8 -4l-6 -4l-6 -4l-5 -5l-6 -4l-4 -4l-4 -6l-2 -4l-2 -4l-4 -4l-2 -4v-4l-2 -4v-5v-4v-4v-4l2 -4v-4l2 -4l4 -4l2 -4l2 -4l4 -4l4 -7l6 -4l5 -4l6 -4l6 -4l6 -4l8 -4l8 -4l9 -4l8 -4l8 -5l10 -2l8 -4l11 -2l10 -2l10 -2l10 -2l13 -2 l10 -2h12l12 -2h11h12h10h12l9 2h10l10 2h10l11 2l8 2l10 2l8 2l8 2l11 2l8 4l6 2l8 3l8 4l7 4l8 2l6 4l6 4l6 4l4 2l6 4l5 4l4 4l4 4zM819 487l-4 5l-2 4l-2 6l-2 4l-2 4l-2 4l-2 6l-2 4l-2 4v7l-2 4h-705v-52h268v-73h682v37h-151h-6h-6l-7 2l-6 2h-4l-6 2l-4 4l-4 2l-6 2 l-4 4l-4 4l-5 2l-4 4l-2 4zM385 219l-2 -4l-2 -4l-2 -2l-2 -2v-41l2 -4l2 -2l2 -4l4 -4l4 -5l2 -4l6 -4l4 -4l5 -4l6 -4l6 -2l6 -4l6 -4l6 -4l8 -2l7 -5l8 -2l8 -4l8 -2l8 -2l9 -2l10 -2l8 -2l10 -2l8 -2l11 -2h10l10 -2h10h11h10h12h12l11 2h12l10 2l13 2l10 2l10 2l10 2 l10 2l11 4l8 2l8 4l10 5l9 2l6 4l8 4l6 4l6 6l6 4l6 4l5 4l4 4l4 7l2 4l4 4l2 4l2 4v4l2 4v4v4v4v5l-2 4v4l-2 4l-2 4l-4 4l-2 4l-4 4l-4 4l-5 6l-6 5l-6 4l-6 4l-6 4l-8 4l-6 4l-9 4l-10 4l-8 2l-8 4l-11 2l-10 5l-10 2l-10 2l-10 2l-13 2l-10 2h-12h-11l-12 2h-12h-10 l-11 -2h-10h-10l-8 -2h-11l-10 -2l-8 -2l-10 -2l-8 -2l-9 -3l-8 -2l-8 -2l-8 -4l-8 -2l-6 -4l-9 -2l-6 -4l-6 -2l-6 -4l-6 -4l-6 -4l-4 -2l-5 -4l-4 -5l-4 -4l-4 -4zM754 815h88v-57h-86q-16 -47 -85 -78t-161 -31q-51 0 -97 10.5t-80 29t-53.5 43t-19.5 52.5 q0 27 19.5 51.5t53.5 43t80 30t97 11.5q90 0 158 -30t86 -75zM63 569h762q-2 -33 15.5 -60.5t50.5 -27.5h182l-2 -98h-741v74h-267v112zM348 217q20 45 87 75t157 30q51 0 97 -11.5t80 -30t53.5 -43t19.5 -51.5q0 -29 -19.5 -53t-53.5 -42.5t-80 -29t-97 -10.5 q-92 0 -159.5 31t-86.5 78h-86v57h88z" />
<glyph unicode="&#x2dc;" horiz-adv-x="972" d="M252 958h4h6l4 3l-6 53l53 2h19l20 -2l19 -2l18 -2l19 -4l16 -2l10 -3l10 27h-4l-8 2l-8 2l-8 2l-10 2l-9 2h-10l-10 2l-12 2h-11l-12 2h-10h-15h-12h-12l-14 -2h-15l-14 -2l-17 -2l-14 -2l-16 -4l-17 -4l-18 -4l-18 -4l-17 -6l-20 -6l-13 -4l2 -3l2 -6l2 -6v-4l3 -6 l2 -6l2 -6l2 -9l2 -6l2 -4l2 -6l2 -6l2 -6l8 2l6 2l6 2l9 2l6 2l6 2l6 2l6 2h6l6 2l7 2h6l6 2h6l6 2h6l6 2h7l6 2h6zM887 956q-96 -39 -173 -37.5t-144.5 16.5t-133 33.5t-141.5 16.5l4 -53q-47 -2 -90 -10.5t-105 -30.5l-7 21q-7 20 -14 44.5l-13 45.5l-7 20q84 33 151 44 t118 9t89 -11t64 -15l-12 -31q55 -16 103.5 -27.5t96.5 -15.5t96 4t101 33l4 -8q3 -9 5 -20t3 -15z" />
<glyph unicode="&#x2000;" horiz-adv-x="682" />
<glyph unicode="&#x2001;" horiz-adv-x="1365" />
<glyph unicode="&#x2002;" horiz-adv-x="682" />
<glyph unicode="&#x2003;" horiz-adv-x="1365" />
<glyph unicode="&#x2004;" horiz-adv-x="455" />
<glyph unicode="&#x2005;" horiz-adv-x="341" />
<glyph unicode="&#x2006;" horiz-adv-x="227" />
<glyph unicode="&#x2007;" horiz-adv-x="227" />
<glyph unicode="&#x2008;" horiz-adv-x="170" />
<glyph unicode="&#x2009;" horiz-adv-x="273" />
<glyph unicode="&#x200a;" horiz-adv-x="75" />
<glyph unicode="&#x2010;" horiz-adv-x="1640" d="M1032 442l-2 4l-2 5l-2 4l-2 4l-2 6l-2 4l-2 4l-2 4v6l-2 4v5h-615v-52h236v-75h594v38h-129h-6h-7l-4 3l-6 2h-6l-4 2l-4 4l-4 2l-4 4l-6 2l-2 4l-5 4l-4 4l-2 4zM371 522h671q0 -33 14.5 -60.5t43.5 -27.5l160 -2v-96h-656v74h-233v112z" />
</font>
</defs>
</svg>
